<?xml version="1.0" encoding="utf-8"?>
<svg version="1.1" id="beet_xA0_Image_1_" xmlns:x="&ns_extend;" xmlns:i="&ns_ai;" xmlns:graph="&ns_graphs;"
	 xmlns="http://www.w3.org/2000/svg" xmlns:xlink="http://www.w3.org/1999/xlink" x="0px" y="0px" width="100%"
	 height="100%" viewBox="-61 -90.146 246.184 346.309" enable-background="new -61.242 -90.146 246.184 346.309"
	 xml:space="preserve">
<metadata>
	<sfw  xmlns="&ns_sfw;">
		<slices></slices>
		<sliceSourceBounds  x="184.298" y="226.938" width="246.184" height="346.309" bottomLeftOrigin="true"></sliceSourceBounds>
	</sfw>
</metadata>
<g>
	<path style="fill:#204638;opacity:1;stroke:#204638;stroke-width:0.5" d="M36.208-86.221c1.106,0.147,0.506,2.002,1.613,2.15C37.077-82.517,35.919-84.973,36.208-86.221z"/>
	<path style="fill:#204638;opacity:1;stroke:#204638;stroke-width:0.5" d="M38.896-85.683c0.067-1.188,2.28-0.229,3.225-0.538C42.052-85.034,39.84-85.992,38.896-85.683z"/>
	<path style="fill:#204638;opacity:1;stroke:#204638;stroke-width:0.5" d="M98.017-76.009c2.578,1.841,4.441-1.632,8.062-0.538c-1.023,0.767-2.335,1.25-3.764,1.613
		c-2.657,1.447-8.516,6.515-11.286,2.688c1.837-0.222,0.682-1.451,2.688-0.538c-0.309-0.891,1.117-0.727,1.611-1.613
		c1.526-2.723,1.295-9.17,5.376-9.674c-1.247,1.442-1.929,3.447-2.15,5.912c3.296-0.827,5.304-2.938,8.6-3.762
		c-0.919-1.187-0.396-4.375,1.611-4.3c0.39,1.642-0.547,1.959-0.538,3.225c2.662,0.26,8.307-3.784,12.365-2.15
		C112.198-82.966,105.227-79.37,98.017-76.009z"/>
	<path style="fill:#204638;opacity:1;stroke:#204638;stroke-width:0.5" d="M91.566-82.996c-0.468,0.789-0.805,1.705-2.149,1.613C89.255-82.799,90.161-83.148,91.566-82.996z"/>
	<path style="fill:#204638;opacity:1;stroke:#204638;stroke-width:0.5" d="M88.344-80.846c2.527,1.615,1.421,11.677-1.614,12.899C87.324-72.19,87.079-77.27,88.344-80.846z"/>
	<path style="fill:#204638;opacity:1;stroke:#204638;stroke-width:0.5" d="M62.006-70.634c-3.124,0.195-2.688-2.667-2.149-4.836c-0.547,0.349-0.556,1.235-1.612,1.074
		c-0.155-3.101-2.294-4.492-3.763-4.836c-0.553-1.808,1.673-0.837,2.687-1.075c1.118,2.109,3.943,2.506,5.375,4.299
		C62.861-73.72,62.157-72.455,62.006-70.634z"/>
	<path style="fill:#204638;opacity:1;stroke:#204638;stroke-width:0.5" d="M79.742-80.308c0.538,0,1.073,0,1.611,0c-1.495,3.605-2.097,9.633,0.538,12.898c-2.637,1.585,1.26,6.735-2.686,6.449
		C79.889-66.299,77.133-74.737,79.742-80.308z"/>
	<path style="fill:#204638;opacity:1;stroke:#204638;stroke-width:0.5" d="M108.227-79.233c0.512,1.941-2.114,0.748-3.221,1.075C105.061-79.532,106.804-79.227,108.227-79.233z"/>
	<path style="fill:#204638;opacity:1;stroke:#204638;stroke-width:0.5" d="M110.915-73.859c1.126-0.229,1.424,0.37,2.149,0.538c-0.524,1.545-2.25,3.806-3.762,2.687
		C109.911-72.204,112.242-71.673,110.915-73.859z"/>
	<path style="fill:#204638;opacity:1;stroke:#204638;stroke-width:0.5" d="M70.605-72.784c1.567-0.791,1.567,2.403,0,1.613C70.605-71.709,70.605-72.246,70.605-72.784z"/>
	<path style="fill:#204638;opacity:1;stroke:#204638;stroke-width:0.5" d="M66.306-69.56c1.913,0.438-0.628,1.964,0.538,4.3c-2.574-0.425-1.429,2.874-3.226,3.226
		C62.401-64.265,64.722-67.246,66.306-69.56z"/>
	<path style="fill:#204638;opacity:1;stroke:#204638;stroke-width:0.5" d="M72.755-52.898c-2.694-0.667-1.96-4.272-2.686-6.449c-0.63-1.895-1.676-5.5-1.614-9.674
		c0.888,3.054,2.015,5.87,2.688,9.137c0.873-0.744,1.323-1.904,3.227-1.613c-0.051,1.466,0.892,1.081,0,2.149
		C72.021-60.16,72.808-56.241,72.755-52.898z"/>
	<path style="fill:#204638;opacity:1;stroke:#204638;stroke-width:0.5" d="M34.058-68.484c1.808-0.55,0.837,1.673,1.075,2.688C33.272-65.421,33.205-67.681,34.058-68.484z"/>
	<path style="fill:#204638;opacity:1;stroke:#204638;stroke-width:0.5" d="M101.78-67.947c-0.079,1.173-1.354,1.154-2.69,1.075C99.549-67.669,100.443-68.027,101.78-67.947z"/>
	<path style="fill:#204638;opacity:1;stroke:#204638;stroke-width:0.5" d="M-0.339-63.647c-1.306,1.923-6.237-0.605-8.062-1.613c-0.502,0.574-1.981,0.168-1.613,1.613
		c-3.676-2.19-10.495,1.339-12.899-2.688c2.71,0.872,4.685,0.075,6.987,0.538C-10.997-69.107-4.931-65.342-0.339-63.647z"/>
	<path style="fill:#204638;opacity:1;stroke:#204638;stroke-width:0.5" d="M-26.138-64.722c0.428-2.73,3.084,0.094,3.763,0.538C-23.293-62.617-24.33-65.403-26.138-64.722z"/>
	<path style="fill:#204638;opacity:1;stroke:#204638;stroke-width:0.5" d="M78.668-65.26c0,0.717,0,1.434,0,2.149c-1.027-0.225-2.313-0.194-2.151-1.612C77.48-64.655,77.649-65.38,78.668-65.26z"/>
	<path style="fill:#204638;opacity:1;stroke:#204638;stroke-width:0.5" d="M-25.062-64.184c-1.051,2.354-4.665,2.145-8.062,2.15c1.966-2.229,4.535-1.351,5.375-2.15
		C-27.295-65.759-26.02-63.865-25.062-64.184z"/>
	<path style="fill:#204638;opacity:1;stroke:#204638;stroke-width:0.5" d="M106.615-64.184c0.358,0,0.718,0,1.073,0c0.254,1.146-0.765,1.025-1.613,1.074
		C106.18-63.546,106.617-63.645,106.615-64.184z"/>
	<path style="fill:#204638;opacity:1;stroke:#204638;stroke-width:0.5" d="M74.907-62.034c0.356,0,0.715,0,1.073,0c0,0.357,0,0.716,0,1.074c-0.358,0-0.717,0-1.073,0
		C74.907-61.318,74.907-61.677,74.907-62.034z"/>
	<path style="fill:#204638;opacity:1;stroke:#204638;stroke-width:0.5" d="M-35.812-60.96c-1.566,1.839-3.457,3.353-5.912,4.301C-43.019-59.395-38.061-60.025-35.812-60.96z"/>
	<path style="fill:#204638;opacity:1;stroke:#204638;stroke-width:0.5" d="M105.541-57.735c0.083,0.629,0.98,0.452,1.612,0.537c-0.354,0.722-1.148,1.001-2.15,1.075
		c-0.38-1.992,0.919-2.306,0.538-4.299c0.621,0.087,0.956-0.118,1.072-0.538C108.892-60.277,106.049-58.803,105.541-57.735z"/>
	<path style="fill:#204638;opacity:1;stroke:#204638;stroke-width:0.5" d="M22.234-57.735c2.46-1.192,4.742,2.409,5.911,4.3C25.25-53.944,24.263-56.362,22.234-57.735z"/>
	<path style="fill:#204638;opacity:1;stroke:#204638;stroke-width:0.5" d="M-22.375-56.66c0.237-0.887,4.06-0.887,4.3,0C-18.132-54.302-20.409-57.506-22.375-56.66z"/>
	<path style="fill:#204638;opacity:1;stroke:#204638;stroke-width:0.5" d="M-35.812-56.123c-2.213,1.372-6.117,1.051-9.675,1.075C-44.788-55.798-38.988-56.062-35.812-56.123z"/>
	<path style="fill:#204638;opacity:1;stroke:#204638;stroke-width:0.5" d="M70.605-53.435c-0.943-0.491-1.868-1-1.612-2.688C70.673-56.369,70.712-54.974,70.605-53.435z"/>
	<path style="fill:#204638;opacity:1;stroke:#204638;stroke-width:0.5" d="M-25.601-55.048c-0.378,1.948-3.917,0.741-5.911,1.075c-1.996,0.334-2.011,2.649-4.838,2.15
		C-34.961-55.294-30.077-56.21-25.601-55.048z"/>
	<path style="fill:#204638;opacity:1;stroke:#204638;stroke-width:0.5" d="M56.632-55.585c2.229-0.079,1.632,2.665,2.149,4.3C56.886-51.542,57.014-53.818,56.632-55.585z"/>
	<path style="fill:#204638;opacity:1;stroke:#204638;stroke-width:0.5" d="M-39.574-53.973c-3.433,0.869-6.445,2.154-9.674,3.226c0,0.896,0,1.792,0,2.687c-2.162-0.37-3.068,0.515-4.837,0.537
		c1.802-1.244,3.083-3.007,4.299-4.836C-45.871-52.134-42.613-55.074-39.574-53.973z"/>
	<path style="fill:#204638;opacity:1;stroke:#204638;stroke-width:0.5" d="M57.168-49.674c-1.999,0.03-1.549-2.391-1.612-4.299C57.63-54.076,56.13-50.605,57.168-49.674z"/>
	<path style="fill:#204638;opacity:1;stroke:#204638;stroke-width:0.5" d="M19.546-53.435c3.22,0.897,4.169,4.071,5.375,6.987C21.536-47.183,20.583-50.352,19.546-53.435z"/>
	<path style="fill:#204638;opacity:1;stroke:#204638;stroke-width:0.5" d="M103.928-52.36C105.929-54.237,106.652-50.896,103.928-52.36L103.928-52.36z"/>
	<path style="fill:#204638;opacity:1;stroke:#204638;stroke-width:0.5" d="M60.931-39.999c0.419-0.791-1.231-3.339,1.613-3.763c1.225,3.431-1.494,5.214,0.536,8.6
		c-1.684,0.25-1.514-1.351-2.149-2.15c0.023,0.978-0.475,3.526-2.687,3.762c0.129-0.868-0.684-3.928,2.149-4.299
		c-3.346-3.642-5.901-8.073-6.987-13.975c2.228-0.362,1.216,1.803,1.611,2.688C56.562-45.689,58.852-42.749,60.931-39.999z"/>
	<path style="fill:#204638;opacity:1;stroke:#204638;stroke-width:0.5" d="M-20.763-50.748c-0.586,1.921-3.22,1.798-4.299,3.224C-26.731-49.58-23.128-50.943-20.763-50.748z"/>
	<path style="fill:#204638;opacity:1;stroke:#204638;stroke-width:0.5" d="M103.39-50.21c0.166-0.73,1.347-0.446,2.151-0.537C105.391-49.503,104.106-49.512,103.39-50.21z"/>
	<path style="fill:#204638;opacity:1;stroke:#204638;stroke-width:0.5" d="M34.058-44.298c-1.08-1.07-1.838-2.461-1.612-4.837C33.543-48.083,34.049-46.439,34.058-44.298z"/>
	<path style="fill:#204638;opacity:1;stroke:#204638;stroke-width:0.5" d="M-50.861-47.524c-1.147,2.258-4.374,2.435-4.837,5.375c-1.624-1.487,1.281-2.987,1.075-4.837
		C-52.878-46.674-52.122-47.354-50.861-47.524z"/>
	<path style="fill:#204638;opacity:1;stroke:#204638;stroke-width:0.5" d="M98.554-47.524c-0.15,1.246-1.437,1.234-2.149,0.538C96.57-47.716,97.749-47.432,98.554-47.524z"/>
	<path style="fill:#204638;opacity:1;stroke:#204638;stroke-width:0.5" d="M137.252-45.911c-1.076,0.894-1.992,1.951-3.764,2.15C133.55-45.671,135.267-45.924,137.252-45.911z"/>
	<path style="fill:#204638;opacity:1;stroke:#204638;stroke-width:0.5" d="M139.938-44.836c0.542,1.617-1.194,0.951-2.149,1.075C137.917-44.706,138.713-44.986,139.938-44.836z"/>
	<path style="fill:#204638;opacity:1;stroke:#204638;stroke-width:0.5" d="M-40.112-44.298c-0.468,0.785-0.425,2.08-2.15,1.612C-41.794-43.473-41.457-44.39-40.112-44.298z"/>
	<path style="fill:#204638;opacity:1;stroke:#204638;stroke-width:0.5" d="M49.107-38.387c-1.122,0.312,0.774,2.032,0.537,3.226c-1.911-0.061-2.163-1.779-2.15-3.763
		c1.812-0.338,1.399-2.9,1.613-4.837c2.161,0.348,0.844,4.17,2.687,4.837c-3.014,3.259,3.767,4.887,4.3,8.062
		c1.147,0.25,1.025-0.769,1.075-1.613c1.467-0.391,1.083,1.068,2.151,1.075c-0.235,0.66-0.688,1.104-1.613,1.075
		c0.081,0.994,1.818,0.329,2.15,1.075c0,0.897,0,1.792,0,2.688C55.008-29.239,51.219-32.974,49.107-38.387z"/>
	<path style="fill:#204638;opacity:1;stroke:#204638;stroke-width:0.5" d="M128.653-43.223c-1.277,0.874-3.255,1.043-4.838,1.612C124.159-43.416,126.392-43.333,128.653-43.223z"/>
	<path style="fill:#204638;opacity:1;stroke:#204638;stroke-width:0.5" d="M17.397-39.462c0.13-0.944,0.925-1.225,2.149-1.075C19.417-39.591,18.622-39.311,17.397-39.462z"/>
	<path style="fill:#204638;opacity:1;stroke:#204638;stroke-width:0.5" d="M93.717-38.924c2.517,0.064-0.589,0.782,0,2.15c-3.847,1.887-5.572,5.894-11.825,5.375c0.7-1.27,2.909-1.035,4.3-1.612
		c-5.17-0.509-11.396,2.573-16.66,3.761c4.732-4.402,13.717-4.56,20.96-6.449c0.618-2.271-2.104-0.488-2.147-1.075
		C88.251-38.037,93.098-37.126,93.717-38.924z"/>
	<path style="fill:#204638;opacity:1;stroke:#204638;stroke-width:0.5" d="M-56.235-37.311c1.124,0.477-0.173,3-1.613,2.687C-58.101-36.31-56.401-36.043-56.235-37.311z"/>
	<path style="fill:#204638;opacity:1;stroke:#204638;stroke-width:0.5" d="M100.166-35.699c0.538,0,1.076,0,1.614,0c-0.188,2.502-1.993,3.383-2.69,5.375c-0.726-0.165-0.441-1.346-0.533-2.15
		c-1.728-0.331-0.737,1.936-2.15,0.538c-0.492,0.366-0.516,2.138-0.538,4.3c-2.604-0.276-1.992,2.665-2.149,4.836
		c-1.172-0.08-1.154-1.354-1.076-2.687c-1.032,0.22-0.422,2.083-2.147,1.613c0.298,1.185,0.79,2.965-1.073,3.224
		c-0.374-3.599,0.907-5.542,3.221-6.449c-0.35-3.396,2.34-3.75,2.688-6.449C97.147-32.252,99.236-34.409,100.166-35.699z"/>
	<path style="fill:#204638;opacity:1;stroke:#204638;stroke-width:0.5" d="M67.379-31.399c-0.126-2.633,2.2-2.815,4.302-3.225c-0.299,1.312-2.079,1.145-1.616,3.225
		C68.411-31.776,69.037-31.776,67.379-31.399z"/>
	<path style="fill:#204638;opacity:1;stroke:#204638;stroke-width:0.5" d="M6.11-29.25c0.977,1.75,3.244-1.128,4.3,0.538c-1.44,0.53-2.441,1.5-4.3,1.612c-0.573-2.472-4.143-1.947-4.299-4.836
		c2.347,0.669,4.492,0,6.987-0.538c-0.442,1.891-3.214,1.447-5.375,1.613c1.583,2.253,4.463-0.508,7.525,0
		C10.273-29.386,8.04-29.468,6.11-29.25z"/>
	<path style="fill:#204638;opacity:1;stroke:#204638;stroke-width:0.5" d="M151.763-31.399c-1.096,1.234-4.464,0.194-6.449,0.538C146.717-32.774,149.062-31.56,151.763-31.399z"/>
	<path style="fill:#204638;opacity:1;stroke:#204638;stroke-width:0.5" d="M61.47-29.787c2.115-0.271,0.98,3.737-0.539,3.225C60.542-28.206,61.859-28.143,61.47-29.787z"/>
	<path style="fill:#204638;opacity:1;stroke:#204638;stroke-width:0.5" d="M87.268-29.25c-1.325,0.748-3.823,2.235-5.376,1.075C83.208-29.008,85.391-28.977,87.268-29.25z"/>
	<path style="fill:#204638;opacity:1;stroke:#204638;stroke-width:0.5" d="M70.069-28.712c-0.06,1.015-1.775,0.374-1.614,1.612c1.77-0.022,2.677-0.906,4.838-0.537
		c-1.973,1.073-3.545,2.545-6.449,2.687c0.196-0.913-0.422-1.014-1.074-1.075C67.195-26.927,67.174-29.278,70.069-28.712z"/>
	<path style="fill:#204638;opacity:1;stroke:#204638;stroke-width:0.5" d="M56.094-26.562c2.226-0.432,2.76,0.824,2.688,2.688c-0.896,0-1.791,0-2.688,0C56.094-24.771,56.094-25.667,56.094-26.562z"
		/>
	<path style="fill:#204638;opacity:1;stroke:#204638;stroke-width:0.5" d="M137.788-24.95c-0.917,1.23-4.101,0.198-5.911,0.538C133.066-26.15,135.279-25.071,137.788-24.95z"/>
	<path style="fill:#204638;opacity:1;stroke:#204638;stroke-width:0.5" d="M82.968-24.95c0.358,0,0.713,0,1.071,0c0.252,1.147-0.768,1.025-1.611,1.076C82.532-24.312,82.968-24.41,82.968-24.95z"/>
	<path style="fill:#204638;opacity:1;stroke:#204638;stroke-width:0.5" d="M65.231-24.412c4.859-0.022,8.928,0.746,12.361,2.149c-3.504,1.261-8.309-2.5-11.823,0
		C65.35-22.739,65.19-23.476,65.231-24.412z"/>
	<path style="fill:#204638;opacity:1;stroke:#204638;stroke-width:0.5" d="M145.313-19.038c0.787,0.468,2.082,0.425,1.611,2.15C146.516-17.734,145.222-17.689,145.313-19.038z"/>
	<path style="fill:#204638;opacity:1;stroke:#204638;stroke-width:0.5" d="M22.771-16.888c1.305,0.844,2.013,2.287,2.149,4.3c-1.588-0.56-1.579-2.721-4.299-2.15
		C20.057-16.738,22.436-15.792,22.771-16.888z"/>
	<path style="fill:#204638;opacity:1;stroke:#204638;stroke-width:0.5" d="M144.237-15.275c1.509-0.085,1.754,1.518,1.076,2.15C144.368-13.255,144.089-14.05,144.237-15.275z"/>
	<path style="fill:#204638;opacity:1;stroke:#204638;stroke-width:0.5" d="M97.479-8.826c-1.73,0.419-2.657,1.642-4.836,1.612c2.565,0.838,5.604,1.203,8.063,2.151
		c-2.896,1.8-5.846-0.95-9.137-0.538c0.028,2.675,1.349,0.104,2.149,1.075C93.43-4.873,89.008-1.7,86.731-1.839
		C90.276-4.072,91.414-12.458,97.479-8.826z"/>
	<path style="fill:#204638;opacity:1;stroke:#204638;stroke-width:0.5" d="M142.625-8.826c1.074,0.714,1.199,2.385,1.612,3.763c-1.443-0.372-1.039,1.11-1.612,1.612
		c-1.239,0.167-0.597-1.552-1.611-1.612C142.584-5.11,142.901-5.873,142.625-8.826z"/>
	<path style="fill:#204638;opacity:1;stroke:#204638;stroke-width:0.5" d="M34.058-5.601c-1.332,1.267-3.023-0.135-3.225-1.613C31.863-8.179,34.144-7.366,34.058-5.601z"/>
	<path style="fill:#204638;opacity:1;stroke:#204638;stroke-width:0.5" d="M62.006,0.848c0.166-0.729,1.345-0.445,2.149-0.537C64.007,1.555,62.721,1.547,62.006,0.848z"/>
	<path style="fill:#204638;opacity:1;stroke:#204638;stroke-width:0.5" d="M44.27,2.999c-1.201,1.488-2.996,2.377-5.375,2.687C39.898,4.16,41.697,1.238,44.27,2.999z"/>
	<path style="fill:#204638;opacity:1;stroke:#204638;stroke-width:0.5" d="M56.094,4.611c0.087-0.63,0.98-0.455,1.613-0.538c0,0.538,0,1.074,0,1.613C56.515,5.981,56.941,4.658,56.094,4.611z"/>
	<path style="fill:#204638;opacity:1;stroke:#204638;stroke-width:0.5" d="M35.133,11.598c-1.458,3.021-5.596,3.361-6.449,6.987C27.508,15.355,32.025,10.568,35.133,11.598z"/>
	<path style="fill:#204638;opacity:1;stroke:#204638;stroke-width:0.5" d="M81.892,14.285c-0.791,2.258-3.267,2.824-5.371,3.763C77.584,16.068,79.867,15.306,81.892,14.285z"/>
	<path style="fill:#204638;opacity:1;stroke:#204638;stroke-width:0.5" d="M75.442,18.585c-0.468,0.788-0.803,1.704-2.149,1.612C73.761,19.411,74.098,18.493,75.442,18.585z"/>
	<path style="fill:#204638;opacity:1;stroke:#204638;stroke-width:0.5" d="M73.293,22.885c0.87-0.153,0.925,0.508,1.614,0.537c-0.94,2.278,1.233,3.133,0,4.838
		C73.216,27.727,71.968,24.734,73.293,22.885z"/>
	<path style="fill:#204638;opacity:1;stroke:#204638;stroke-width:0.5" d="M77.593,29.872c1.843,2.069,1.935,1.058,4.299,0c-1.518,1.631-1.57,2.648-1.071,5.375
		C79.312,34.063,77.229,31.199,77.593,29.872z"/>
	<path style="fill:#204638;opacity:1;stroke:#204638;stroke-width:0.5" d="M55.019,53.519c0-1.253,0-2.508,0-3.761C58.033,48.707,58.033,54.57,55.019,53.519z"/>
	<path style="fill:#204638;opacity:1;stroke:#204638;stroke-width:0.5" d="M49.645,56.207c0.139-1.259,2.363-0.31,2.688,0c1.458,0.332,4.266-0.684,4.836,0.538c-1.791,0-3.582,0-5.375,0
		C50.832,56.814,50.661,56.085,49.645,56.207z"/>
	<path style="fill:#204638;opacity:1;stroke:#204638;stroke-width:0.5" d="M35.671,59.969c0.661,0.234,1.104,0.688,1.075,1.613C36.085,61.346,35.642,60.894,35.671,59.969z"/>
	<path style="fill:#204638;opacity:1;stroke:#204638;stroke-width:0.5" d="M48.033,60.506c0.092,1.167-1.908,0.244-2.688,0.538C45.398,59.675,47.349,59.774,48.033,60.506z"/>
	<path style="fill:#204638;opacity:1;stroke:#204638;stroke-width:0.5" d="M38.357,61.044c2.69,0.069,2.874,0.654,5.913,1.075C42.979,63.199,38.622,62.775,38.357,61.044z"/>
	<path style="fill:#204638;opacity:1;stroke:#204638;stroke-width:0.5" d="M35.133,62.12c1.25,0.6,1.44-0.117,2.688,1.075C37.43,64.394,34.754,63.454,35.133,62.12z"/>
	<path style="fill:#204638;opacity:1;stroke:#204638;stroke-width:0.5" d="M45.883,62.12c1.244-0.173,2.062,0.086,2.687,0.537C48.664,63.534,45.054,63.74,45.883,62.12z"/>
	<path style="fill:#204638;opacity:1;stroke:#204638;stroke-width:0.5" d="M59.319,66.956c-2.955,0.793-7.711-1.24-12.362-0.537C48.774,65.409,56.771,64.719,59.319,66.956z"/>
	<path style="fill:#204638;opacity:1;stroke:#204638;stroke-width:0.5" d="M36.208,66.956c0.092,1.167-1.906,0.245-2.687,0.538C33.577,66.125,35.523,66.224,36.208,66.956z"/>
	<path style="fill:#204638;opacity:1;stroke:#204638;stroke-width:0.5" d="M83.506,66.419c0.895,0,1.793,0,2.686,0c0.554,1.805-1.671,0.837-2.686,1.075C83.506,67.135,83.506,66.776,83.506,66.419z"
		/>
	<path style="fill:#204638;opacity:1;stroke:#204638;stroke-width:0.5" d="M98.554,68.031c-1.841,1.436-5.823,1.087-9.137,0.538C90.98,66.112,95.075,68.974,98.554,68.031z"/>
	<path style="fill:#204638;opacity:1;stroke:#204638;stroke-width:0.5" d="M61.47,68.569c-4.549,1.496-9.973-0.773-15.587,0C48.028,67.18,57.074,68.486,61.47,68.569z"/>
	<path style="fill:#204638;opacity:1;stroke:#204638;stroke-width:0.5" d="M73.831,69.644c0.551,1.805-1.673,0.837-2.688,1.075C71.222,69.543,72.497,69.565,73.831,69.644z"/>
	<path style="fill:#204638;opacity:1;stroke:#204638;stroke-width:0.5" d="M68.455,70.182C67.274,71.823,65.013,69.561,68.455,70.182L68.455,70.182z"/>
	<path style="fill:#204638;opacity:1;stroke:#204638;stroke-width:0.5" d="M23.309,72.332c3.133-1.688,6.947,0.566,10.212,0.537C30.426,74.514,26.865,72.013,23.309,72.332z"/>
	<path style="fill:#204638;opacity:1;stroke:#204638;stroke-width:0.5" d="M45.883,72.868c0.736-1.386,3.292-0.119,4.299,0C49.322,74.375,47.764,72.114,45.883,72.868z"/>
	<path style="fill:#204638;opacity:1;stroke:#204638;stroke-width:0.5" d="M86.191,74.481c-0.231,1.202-2.648,0.217-3.762,0.537C82.438,73.458,85.465,73.749,86.191,74.481z"/>
	<path style="fill:#204638;opacity:1;stroke:#204638;stroke-width:0.5" d="M22.771,75.018c3.135-1.686,6.946,0.566,10.212,0.538C29.889,77.204,26.325,74.698,22.771,75.018z"/>
	<path style="fill:#204638;opacity:1;stroke:#204638;stroke-width:0.5" d="M38.896,74.481C37.716,76.123,35.453,73.86,38.896,74.481L38.896,74.481z"/>
	<path style="fill:#204638;opacity:1;stroke:#204638;stroke-width:0.5" d="M45.883,76.093c-0.092-1.167,1.905-0.244,2.687-0.537C48.659,76.723,46.664,75.8,45.883,76.093z"/>
	<path style="fill:#204638;opacity:1;stroke:#204638;stroke-width:0.5" d="M68.455,76.093c-3.171,2.491-8.896-0.418-13.973,0.538C57.442,74.127,63.465,77.119,68.455,76.093z"/>
	<path style="fill:#204638;opacity:1;stroke:#204638;stroke-width:0.5" d="M30.833,77.706c-3.411,1.607-7.471-0.762-11.287-0.538C20.856,75.375,28.068,77.696,30.833,77.706z"/>
	<path style="fill:#204638;opacity:1;stroke:#204638;stroke-width:0.5" d="M72.217,77.167c1.983-1.243,6.264-0.186,9.137-0.537C80.293,78.584,74.124,77.795,72.217,77.167z"/>
	<path style="fill:#204638;opacity:1;stroke:#204638;stroke-width:0.5" d="M37.283,78.781c-0.562-0.955,9.865,0.04,6.987,0.537c-3.028,0.522-0.083,0.513-3.763,0
		C40.712,79.347,37.522,79.188,37.283,78.781z"/>
	<path style="fill:#204638;opacity:1;stroke:#204638;stroke-width:0.5" d="M66.844,79.317c-4.254,1.537-11.18,0.598-16.125,0c-5.693-0.688,3.765-1.054,0-0.537
		C54.948,78.2,60.936,79.612,66.844,79.317z"/>
	<path style="fill:#204638;opacity:1;stroke:#204638;stroke-width:0.5" d="M19.01,79.855c10.274-1.675,18.948,2.907,30.098,2.15C39.486,83.026,28.092,81.163,19.01,79.855z"/>
	<path style="fill:#204638;opacity:1;stroke:#204638;stroke-width:0.5" d="M34.058,84.155c-2.631,0.126-13.221-0.848-13.974-1.613C23.663,82.099,30.551,82.76,34.058,84.155z"/>
	<path style="fill:#204638;opacity:1;stroke:#204638;stroke-width:0.5" d="M50.719,82.542c1.037-0.985,9.975-0.691,13.436,0c2.688,0,5.376,0,8.062,0c1.258,0,2.511,0,3.766,0
		C68.44,83.809,58.435,82.892,50.719,82.542z"/>
	<path style="fill:#204638;opacity:1;stroke:#204638;stroke-width:0.5" d="M44.27,84.692c-1.949,1.562-4.6-0.754-7.524,0C36.217,83.7,42.953,84.021,44.27,84.692z"/>
	<path style="fill:#204638;opacity:1;stroke:#204638;stroke-width:0.5" d="M17.935,84.692c12.225,0.675,22.837,2.961,35.473,3.226c-9.343,0.239-20.717-0.132-30.636-1.613
		C21.338,86.089,18.681,86.292,17.935,84.692z"/>
	<path style="fill:#204638;opacity:1;stroke:#204638;stroke-width:0.5" d="M71.681,85.23c-1.248,1.818-5.846,1.243-9.137,1.075c-4.412-0.226-8.154-1.339-13.437-1.075
		C53.232,84.093,64.044,85.888,71.681,85.23z"/>
	<path style="fill:#204638;opacity:1;stroke:#204638;stroke-width:0.5" d="M73.831,90.604c-2.288,2.396-5.888,0.661-8.6,0.538c-16.354-0.743-32.255-0.336-47.297-2.688
		c0.086-0.629,0.981-0.453,1.612-0.537c4.678-1.98,9.075,0.989,13.975,1.612C45.934,91.106,59.912,89.924,73.831,90.604z"/>
	<path style="fill:#204638;opacity:1;stroke:#204638;stroke-width:0.5" d="M55.557,88.455c4.333-0.923,12.319-0.857,16.66,0C67.589,89.672,61.475,87.738,55.557,88.455z"/>
	<path style="fill:#204638;opacity:1;stroke:#204638;stroke-width:0.5" d="M29.221,91.679c-3.627,1.646-8.155-0.435-12.362,0C19.517,89.158,25.867,91.402,29.221,91.679z"/>
	<path style="fill:#204638;opacity:1;stroke:#204638;stroke-width:0.5" d="M65.231,93.829c2.147,0,4.3,0,6.449,0c5.492,0.365-0.138,0.457-3.226,0.538c-8.939,0.237-14.742-0.58-23.11-0.538
		c-2.656,0.015-10.559-0.927-13.974-1.074c-4.615-0.199,8.031-0.047,9.136,0C48.384,93.097,56.794,92.622,65.231,93.829z"/>
	<path style="fill:#204638;opacity:1;stroke:#204638;stroke-width:0.5" d="M72.217,97.053c-2.176,0.549-7.503-0.371-11.288,0C63.592,96.019,69.501,96.358,72.217,97.053z"/>
	<path style="fill:#204638;opacity:1;stroke:#204638;stroke-width:0.5" d="M52.332,102.967c4.618-1.265,16.53-0.293,22.575,0.533c-3.818-0.3-8.882,0.639-11.823-0.533
		C59.775,104.395,56.407,102.429,52.332,102.967z"/>
	<path style="fill:#204638;opacity:1;stroke:#204638;stroke-width:0.5" d="M95.866,103.505C90.705,105.373,92.715,102.42,95.866,103.505L95.866,103.505z"/>
	<path style="fill:#204638;opacity:1;stroke:#204638;stroke-width:0.5" d="M14.709,104.041c4.829,0.009,9.964-0.288,13.437,1.074c-0.74,0.993-2.597,0.087-4.836,0
		C20.369,105.005,15.965,106.075,14.709,104.041z"/>
	<path style="fill:#204638;opacity:1;stroke:#204638;stroke-width:0.5" d="M49.645,106.191c-2.84,1.279-7.016,0.148-10.212,0c-2.099-0.099-7.795,0.819-8.599-0.538
		c-0.218-0.367,0.844-0.547,1.075-0.534C34.558,105.249,43.826,105.88,49.645,106.191z"/>
	<path style="fill:#204638;opacity:1;stroke:#204638;stroke-width:0.5" d="M51.794,106.191c6.081-1.238,13.604,0.726,20.961,0c4.649,0.715-4.076,0.516-5.911,0.538
		C61.462,106.786,56.403,106.68,51.794,106.191z"/>
	<path style="fill:#204638;opacity:1;stroke:#204638;stroke-width:0.5" d="M93.717,105.653c-1.927,2.821-6.817-0.212-10.216,0.538C83.786,105.023,90.779,105.95,93.717,105.653z"/>
	<path style="fill:#204638;opacity:1;stroke:#204638;stroke-width:0.5" d="M28.146,111.566c-1.749,1.687-13.073,0.385-13.437,0C18.716,110.002,23.645,111.862,28.146,111.566z"/>
	<path style="fill:#204638;opacity:1;stroke:#204638;stroke-width:0.5" d="M49.645,111.566c5.372,0.005,10.857-0.962,16.125-0.538c1.33,0.107,4.079-0.043,4.836,1.614
		C63.576,111.792,55.536,112.209,49.645,111.566z"/>
	<path style="fill:#204638;opacity:1;stroke:#204638;stroke-width:0.5" d="M46.42,112.104c-3.105,1.286-9.981,0.134-3.225,0C44.478,112.078,45.199,112.122,46.42,112.104z"/>
	<path style="fill:#204638;opacity:1;stroke:#204638;stroke-width:0.5" d="M13.097,113.178c7.007-0.381,12.767,0.492,18.811,1.073c-3.33,1.685-11.133,1.339-15.586,0.538
		C14.997,114.549,13.104,114.195,13.097,113.178z"/>
	<path style="fill:#204638;opacity:1;stroke:#204638;stroke-width:0.5" d="M59.856,115.328c-0.092-1.168,1.907-0.24,2.688-0.538C62.634,115.954,60.638,115.035,59.856,115.328z"/>
	<path style="fill:#204638;opacity:1;stroke:#204638;stroke-width:0.5" d="M72.217,115.866c-1.793,0-3.584,0-5.373,0C66.778,114.417,72.379,113.946,72.217,115.866z"/>
	<path style="fill:#204638;opacity:1;stroke:#204638;stroke-width:0.5" d="M34.596,115.866c-0.092-1.168,1.905-0.245,2.687-0.538C37.372,116.491,35.377,115.568,34.596,115.866z"/>
	<path style="fill:#204638;opacity:1;stroke:#204638;stroke-width:0.5" d="M79.206,115.866c3.589-1.251,9.491-0.184,13.973-0.538C90.359,116.54,82.745,115.835,79.206,115.866z"/>
	<path style="fill:#204638;opacity:1;stroke:#204638;stroke-width:0.5" d="M45.345,118.551c-3.983,1.17-11.065-0.431-14.511,0c-0.15-0.958,0.508-1.103,0.538-0.536
		C34.575,117.766,41.229,117.996,45.345,118.551z"/>
	<path style="fill:#204638;opacity:1;stroke:#204638;stroke-width:0.5" d="M13.097,118.015c2.678,0.138,5.385-0.182,8.062,0c2.217,0.151,5.467,0.055,6.45,1.612c-2.966-0.228-6.605,0.302-9.674,0
		C16.21,119.461,13.495,119.579,13.097,118.015z"/>
	<path style="fill:#204638;opacity:1;stroke:#204638;stroke-width:0.5" d="M54.482,118.551c0.233-1.203,2.649-0.219,3.763-0.536C58.014,119.216,55.595,118.232,54.482,118.551z"/>
	<path style="fill:#204638;opacity:1;stroke:#204638;stroke-width:0.5" d="M64.693,118.551c0.263-0.744,4.845-1.304,4.3,0.538C67.445,119.024,65.477,119.382,64.693,118.551z"/>
	<path style="fill:#204638;opacity:1;stroke:#204638;stroke-width:0.5" d="M50.182,121.241c0.231-1.202,2.65-0.219,3.762-0.537C53.713,121.902,51.295,120.919,50.182,121.241z"/>
	<path style="fill:#204638;opacity:1;stroke:#204638;stroke-width:0.5" d="M91.566,121.241c0.009-0.822,3.98-1.176,3.224,0.536C93.47,121.849,92.201,121.858,91.566,121.241z"/>
	<path style="fill:#204638;opacity:1;stroke:#204638;stroke-width:0.5" d="M33.521,122.315c0.59-0.999,9.28-1.267,9.674,0C39.97,122.315,36.746,122.315,33.521,122.315z"/>
	<path style="fill:#204638;opacity:1;stroke:#204638;stroke-width:0.5" d="M47.495,121.241C45.761,122.885,43.475,120.594,47.495,121.241L47.495,121.241z"/>
	<path style="fill:#204638;opacity:1;stroke:#204638;stroke-width:0.5" d="M88.879,122.851c0.895,0,1.791,0,2.688,0c0.552,1.806-1.67,0.835-2.688,1.073
		C88.879,123.568,88.879,123.209,88.879,122.851z"/>
	<path style="fill:#204638;opacity:1;stroke:#204638;stroke-width:0.5" d="M14.709,123.389c5.769,0.144,12.237-0.409,17.199,0.537C28.303,125.206,17.395,126.398,14.709,123.389z"/>
	<path style="fill:#204638;opacity:1;stroke:#204638;stroke-width:0.5" d="M34.596,123.926c4.539,0.517,7.499,0.293,12.898,0.538c-1.346,0.897-4.261,0.591-6.987,0.538
		C38.479,124.963,34.963,125.871,34.596,123.926z"/>
	<path style="fill:#204638;opacity:1;stroke:#204638;stroke-width:0.5" d="M65.231,124.464c-0.214-1.043,2.447-0.787,1.612,0.538c-0.358,0-0.718,0-1.074,0
		C65.87,124.545,65.56,124.496,65.231,124.464z"/>
	<path style="fill:#204638;opacity:1;stroke:#204638;stroke-width:0.5" d="M66.306,126.615c0.717,0,1.433,0,2.149,0c0.543,1.616-1.194,0.955-2.149,1.073
		C66.306,127.33,66.306,126.973,66.306,126.615z"/>
	<path style="fill:#204638;opacity:1;stroke:#204638;stroke-width:0.5" d="M96.404,127.15c3.097-0.936,9.784-0.835,12.898,0C106.206,128.088,99.517,127.99,96.404,127.15z"/>
	<path style="fill:#204638;opacity:1;stroke:#204638;stroke-width:0.5" d="M35.133,127.15C33.953,128.794,31.69,126.532,35.133,127.15L35.133,127.15z"/>
	<path style="fill:#204638;opacity:1;stroke:#204638;stroke-width:0.5" d="M42.657,127.688c-1.469,1.609-3.55-0.717-5.912,0C35.996,126.486,41.426,127.395,42.657,127.688z"/>
	<path style="fill:#204638;opacity:1;stroke:#204638;stroke-width:0.5" d="M46.42,127.15c-0.496,0.94-1.68,1.186-3.225,1.076C43.255,126.853,44.996,127.159,46.42,127.15z"/>
	<path style="fill:#204638;opacity:1;stroke:#204638;stroke-width:0.5" d="M49.107,127.688c0.165-0.73,1.346-0.446,2.15-0.538C51.091,127.88,49.911,127.596,49.107,127.688z"/>
	<path style="fill:#204638;opacity:1;stroke:#204638;stroke-width:0.5" d="M29.758,130.378c-4.606-0.446-8.738-0.315-14.511-0.538c-0.914,0.196-1.015-0.42-1.075-1.074
		c1.923-0.815,4.832-0.669,7.524-0.535C24.747,128.375,28.737,128.427,29.758,130.378z"/>
	<path style="fill:#204638;opacity:1;stroke:#204638;stroke-width:0.5" d="M65.231,130.378c0.009-0.822,3.98-1.182,3.222,0.535C66.811,131.305,66.498,130.365,65.231,130.378z"/>
	<path style="fill:#204638;opacity:1;stroke:#204638;stroke-width:0.5" d="M35.133,130.914c3.229-1.248,8.774-0.184,12.9-0.535C44.8,131.625,39.259,130.562,35.133,130.914z"/>
	<path style="fill:#204638;opacity:1;stroke:#204638;stroke-width:0.5" d="M39.97,134.14c0.067-1.188,2.28-0.232,3.225-0.538C43.128,134.787,40.915,133.83,39.97,134.14z"/>
	<path style="fill:#204638;opacity:1;stroke:#204638;stroke-width:0.5" d="M46.42,134.14c0.656-1.63,2.051,0.376,2.688,0.533c2.255,0.271,8.454-0.593,8.061,0.538c-3.045,0-6.09,0-9.136,0
		C47.797,134.553,47.345,134.109,46.42,134.14z"/>
	<path style="fill:#204638;opacity:1;stroke:#204638;stroke-width:0.5" d="M66.844,133.602c1.078-0.184,1.682,0.109,1.611,1.071c-0.538,0-1.071,0-1.611,0
		C66.844,134.319,66.844,133.96,66.844,133.602z"/>
	<path style="fill:#204638;opacity:1;stroke:#204638;stroke-width:0.5" d="M57.707,137.901c0.224-1.832,2.947,0.813,2.688-0.538C62.025,139.086,58.867,137.98,57.707,137.901z"/>
	<path style="fill:#204638;opacity:1;stroke:#204638;stroke-width:0.5" d="M72.217,139.515c-2.546,0.214-3.698-0.96-6.451-0.538C66.22,136.851,71.767,138.137,72.217,139.515z"/>
	<path style="fill:#204638;opacity:1;stroke:#204638;stroke-width:0.5" d="M38.357,138.439c0.359,0,0.717,0,1.075,0c0,0.358,0,0.713,0,1.072c-0.358,0-0.716,0-1.075,0
		C38.357,139.157,38.357,138.797,38.357,138.439z"/>
	<path style="fill:#204638;opacity:1;stroke:#204638;stroke-width:0.5" d="M39.97,139.515c0.4-1.212,3.014-0.212,4.3-0.538C42.778,140.263,41.139,139.983,39.97,139.515z"/>
	<path style="fill:#204638;opacity:1;stroke:#204638;stroke-width:0.5" d="M48.569,138.977C47.39,140.618,45.127,138.356,48.569,138.977L48.569,138.977z"/>
	<path style="fill:#204638;opacity:1;stroke:#204638;stroke-width:0.5" d="M21.159,139.515c4.783,0.411,11.493-1.103,13.974,1.614C30.428,140.635,23.488,142.38,21.159,139.515z"/>
	<path style="fill:#204638;opacity:1;stroke:#204638;stroke-width:0.5" d="M52.332,140.051c0.921-1.229,4.103-0.197,5.913-0.536C57.324,140.745,54.142,139.712,52.332,140.051z"/>
	<path style="fill:#204638;opacity:1;stroke:#204638;stroke-width:0.5" d="M60.931,139.515c0.543,1.614-1.199,0.953-2.15,1.071C58.912,139.642,59.707,139.362,60.931,139.515z"/>
	<path style="fill:#204638;opacity:1;stroke:#204638;stroke-width:0.5" d="M37.821,141.125c2.599-0.341,3.8,0.709,5.375,0C43.262,142.575,37.659,143.045,37.821,141.125z"/>
	<path style="fill:#204638;opacity:1;stroke:#204638;stroke-width:0.5" d="M67.917,141.125c1.081-0.184,1.685,0.109,1.614,1.074c-0.536,0-1.074,0-1.614,0
		C67.917,141.842,67.917,141.484,67.917,141.125z"/>
	<path style="fill:#204638;opacity:1;stroke:#204638;stroke-width:0.5" d="M44.27,142.201c0.233-1.2,2.649-0.219,3.763-0.538C47.802,142.866,45.383,141.881,44.27,142.201z"/>
	<path style="fill:#204638;opacity:1;stroke:#204638;stroke-width:0.5" d="M49.645,142.201c-0.092-1.168,1.908-0.24,2.688-0.538C52.424,142.827,50.426,141.908,49.645,142.201z"/>
	<path style="fill:#204638;opacity:1;stroke:#204638;stroke-width:0.5" d="M62.006,142.739c-1.316,1.627-3.498-0.407-5.374,0C56.35,141.851,60.828,141.431,62.006,142.739z"/>
	<path style="fill:#204638;opacity:1;stroke:#204638;stroke-width:0.5" d="M68.993,143.815c-2.149,0-4.3,0-6.449,0C62.704,142.297,68.906,141.912,68.993,143.815z"/>
	<path style="fill:#204638;opacity:1;stroke:#204638;stroke-width:0.5" d="M72.217,142.739c-0.079,1.172-1.354,1.154-2.686,1.071C68.978,142.008,71.202,142.979,72.217,142.739z"/>
	<path style="fill:#204638;opacity:1;stroke:#204638;stroke-width:0.5" d="M49.107,144.888c0.746-1.227,3.74-0.203,5.375-0.538C53.736,145.578,50.742,144.554,49.107,144.888z"/>
	<path style="fill:#204638;opacity:1;stroke:#204638;stroke-width:0.5" d="M58.781,144.888c0.571-1.222,3.376-0.207,4.837-0.538C63.869,146.402,59.42,145.37,58.781,144.888z"/>
	<path style="fill:#204638;opacity:1;stroke:#204638;stroke-width:0.5" d="M43.732,147.039c0.068-1.188,2.282-0.228,3.226-0.538C46.89,147.688,44.678,146.728,43.732,147.039z"/>
	<path style="fill:#204638;opacity:1;stroke:#204638;stroke-width:0.5" d="M56.632,147.039C55.452,148.678,53.189,146.417,56.632,147.039L56.632,147.039z"/>
	<path style="fill:#204638;opacity:1;stroke:#204638;stroke-width:0.5" d="M69.531,148.65c-3.018-0.566-6.53-0.637-10.212-0.536c-0.961,0.151-1.104-0.509-0.538-0.537
		C61.12,147.174,68.875,145.613,69.531,148.65z"/>
	<path style="fill:#204638;opacity:1;stroke:#204638;stroke-width:0.5" d="M43.195,149.724c0.57-1.221,3.378-0.206,4.837-0.536C47.461,150.409,44.653,149.391,43.195,149.724z"/>
	<path style="fill:#204638;opacity:1;stroke:#204638;stroke-width:0.5" d="M43.195,151.875c0.079-0.148,1.155-0.995,1.613-0.538C45.179,151.709,42.687,152.819,43.195,151.875z"/>
	<path style="fill:#204638;opacity:1;stroke:#204638;stroke-width:0.5" d="M45.345,151.875c-0.092-1.168,1.906-0.244,2.688-0.538C48.125,152.505,46.126,151.579,45.345,151.875z"/>
	<path style="fill:#204638;opacity:1;stroke:#204638;stroke-width:0.5" d="M59.856,152.414c-1.601-0.221-6.934,0.517-5.913-0.538C54.831,151.381,59.858,150.336,59.856,152.414z"/>
	<path style="fill:#204638;opacity:1;stroke:#204638;stroke-width:0.5" d="M60.931,151.875c1.08-0.184,1.68,0.109,1.613,1.072c-0.538,0-1.074,0-1.613,0
		C60.931,152.593,60.931,152.235,60.931,151.875z"/>
	<path style="fill:#204638;opacity:1;stroke:#204638;stroke-width:0.5" d="M65.77,151.875c0.895,0,1.794,0,2.686,0c0.554,1.807-1.671,0.836-2.686,1.072C65.77,152.593,65.77,152.235,65.77,151.875z"
		/>
	<path style="fill:#204638;opacity:1;stroke:#204638;stroke-width:0.5" d="M42.657,152.952c7.646,0.057,13.457,1.951,20.961,2.147c-3.179,2.563-9.952,0.109-13.436-0.533
		C47.324,154.374,43.607,155.046,42.657,152.952z"/>
	<path style="fill:#204638;opacity:1;stroke:#204638;stroke-width:0.5" d="M60.394,153.488c1.076-0.184,1.682,0.109,1.612,1.073c-0.536,0-1.075,0-1.612,0
		C60.394,154.203,60.394,153.846,60.394,153.488z"/>
	<path style="fill:#204638;opacity:1;stroke:#204638;stroke-width:0.5" d="M64.155,154.023c1.794,0,3.587,0,5.376,0c0,0.359,0,0.718,0,1.076C67.896,154.583,64.081,156.25,64.155,154.023z"/>
	<path style="fill:#204638;opacity:1;stroke:#204638;stroke-width:0.5" d="M52.332,159.399c0.887-1.929,10.188-1.618,10.748,0.538C59.717,159.539,56.287,159.207,52.332,159.399z"/>
	<path style="fill:#204638;opacity:1;stroke:#204638;stroke-width:0.5" d="M92.643,158.325c0.21,2.179-3.351,0.593-4.837,1.074C87.596,157.22,91.155,158.808,92.643,158.325z"/>
	<path style="fill:#204638;opacity:1;stroke:#204638;stroke-width:0.5" d="M56.094,178.21c0-0.358,0-0.717,0-1.075c0.538,0,1.075,0,1.613,0c0,0.538,0,1.075,0,1.613
		C56.837,178.902,56.781,178.242,56.094,178.21z"/>
	<path style="fill:#204638;opacity:1;stroke:#204638;stroke-width:0.5" d="M48.569,178.21c2.287,1.063,2.732,5.625,0,6.45C47.629,182.764,48.146,180.236,48.569,178.21z"/>
	<path style="fill:#204638;opacity:1;stroke:#204638;stroke-width:0.5" d="M46.958,186.272c0.219,1.295-0.981,1.17-0.538,2.688c-1.223-0.389-2.746-0.479-3.763-1.073
		C42.951,186.207,45.774,187.061,46.958,186.272z"/>
	<path style="fill:#204638;opacity:1;stroke:#204638;stroke-width:0.5" d="M51.257,186.81c0.246,1.68-1.149,1.719-2.688,1.614C49.061,187.484,49.569,186.556,51.257,186.81z"/>
	<path style="fill:#204638;opacity:1;stroke:#204638;stroke-width:0.5" d="M46.958,189.498c0.392,1.524-1.077,4.125,0.537,6.449c-0.706-0.19-0.844-0.946-1.612-1.071
		c-1.752,0.884,0.981,2.915-0.538,3.762C41.009,197.233,45.932,192.03,46.958,189.498z"/>
	<path style="fill:#204638;opacity:1;stroke:#204638;stroke-width:0.5" d="M54.482,200.247c1.146-0.249,1.023,0.77,1.075,1.614c-0.434-0.101-0.536-0.538-1.075-0.538
		C54.482,200.963,54.482,200.605,54.482,200.247z"/>
	<path style="fill:#204638;opacity:1;stroke:#204638;stroke-width:0.5" d="M58.781,217.445c1.088,0.439-0.34,2.836-0.537,3.766c-1.369-0.813-2.464-1.518-4.301-0.538
		c-0.169-1.246,0.087-2.064,0.538-2.686C55.83,219.142,58.022,219.338,58.781,217.445z"/>
	<path style="fill:#204638;opacity:1;stroke:#204638;stroke-width:0.5" d="M56.632,221.744c0.896,2.17-3.041,4.112-4.838,5.374c-0.513,1.458-0.235,3.707-2.687,3.226
		c-0.489-2.642,2.252-2.047,2.15-4.3c-0.167-0.73-1.346-0.446-2.15-0.538C50.419,222.943,55.355,225.246,56.632,221.744z"/>
	<path style="fill:#204638;opacity:1;stroke:#204638;stroke-width:0.5" d="M68.993,227.658c2.104,0.079,5.768,6.889,1.071,6.985C71.181,231.323,70.152,230.334,68.993,227.658z"/>
	<path style="fill:#204638;opacity:1;stroke:#204638;stroke-width:0.5" d="M166.272-33.011c2.366-0.697-0.949,3.182,1.074,3.761c0.907-1.062,0.588-3.354,1.073-4.837
		c-5.655,2.585-10.866,5.617-16.122,8.6c-0.563,5.939-0.262,13.842-2.688,18.811c-0.776,1.585-3.711,4.94-4.3,5.375
		c-1.59,1.171-5.74,2.891-7.524,2.688c-6.124-0.699-8.478-11.267-5.912-18.811c-9.133,0.184-14.429,4.201-22.037,5.911
		c-4.12,6.333-7.571,10.934-16.122,11.825c-2.953,0.306-6.387-0.585-8.6,1.075c7.22,1.189,14.476,2.221,15.587,9.674
		c1.183,7.961-1.958,20-7.525,23.111c-2.1,5.213-5.526,12.638-11.823,10.749c-5.017-1.505-0.892-10.024-6.984-11.287
		c-1.854,4.398-1.96,11.631-2.152,16.125c-2.698-1.275-1.854-5.27-1.614-8.062c0.275-3.173,2.034-6.909,1.614-9.674
		c-1.934,4.792-2.673,12.086-2.686,17.198c-2.883-0.201-1.815-4.203-1.614-6.449c0.353-3.951,2.056-9.092,3.224-11.287
		c0.062-1.994-2.493-3.147-1.076-4.838c2.297,0.475,2.194,2.628,3.767,4.3c2.812,2.993,6.88,4.053,6.449,10.75
		c5.795,5.578,8.71-3.351,12.362-8.062c3.204-4.131,7.783-12.949,5.914-22.573c-1.059-5.441-5.345-7.014-11.287-8.062
		c0.77,1.294-3.497,1.542-4.838,0.537c0.143-2.723,3.075-2.658,3.764-4.837c9.741,1.431,18.64-2.447,20.96-10.212
		c-3.725-2.028-10.333,5.444-11.287,0c-5.141-1.021-5.456,2.786-8.599,3.763c5.657-9.567,15.009-15.448,23.647-22.036
		c4.36,1.028,7.326-2.735,12.898-2.15c-2.272,1.847-6.255,1.984-8.599,3.762c7.258,0.983,15.35,1.134,23.651,1.075
		c1.902-0.058-1.144-1.776,0.536-1.612c3.188-0.322,4.791,0.943,8.062,0.537c-1.47-0.857-3.551-1.105-5.911-1.075
		c2.437-2.308,6.478-0.125,10.211-0.537c-2.854,3.178-8.837,2.956-15.586,3.225c-2.793,0.111-5.874,1.082-8.062,1.075
		c-8.205-0.023-16.62-2.434-23.651,1.613c1.057,1.193,3.566-0.704,5.911,0c-1.267,1.597-4.697,1.035-6.985,1.612
		c0.065,1.188,2.281,0.229,3.224,0.538c-1.5,1.451,1.316,0.964,1.614,2.15c8.164-0.077,16.813,0.329,20.96-3.763
		c1.97,0,3.94,0,5.913,0c-1.334,1.646-2.189,0.43-4.3,1.075c0.088,0.63,0.979,0.455,1.614,0.538
		c-7.608,5.885-25.015,0.83-35.477,4.3c-0.508,1.941,2.117,0.748,3.226,1.075c-1.812,1.411-4.778,1.67-6.987,2.687
		c-0.074,1.4,3.001-0.066,3.762,0.538c0.131,0.101-0.134,1.585,0,1.612c2.64,0.506,4.524-1.988,8.065-2.15
		c1.456-0.064,3.158,1.186,4.3,1.075c4.129-0.396,9.049-4.657,14.508-5.375c4.68-0.614,8.223-0.022,10.751-3.225
		c9.909,0.053,16.013-4.458,23.111-8.599c5.074-2.959,12.007-8.618,20.422-5.913c-5.17-3.222-13.255-6.904-20.422-4.837
		c2.773,1.974-8.21,1.163-6.451-1.075c-1.745-0.311-2.497,0.367-3.762,0.538c3.49,1.646,10.555,4.197,16.66,3.225
		c-0.556,1.981-3.359,1.122-4.3,1.075c-4.198-0.213-8.546-2.22-12.9-2.15c-2.762,0.045-6.388,1.943-10.211,1.613
		c1.558-2.381,7.016-0.867,8.6-3.226c-4.986-1.039-9.649,2.889-15.051,3.226c1.308,1.446,4.291,0.022,5.913,0
		c-0.815,2.181-4.26,0.788-6.449,1.074c-2.049,0.269-3.348,1.153-4.837,1.074c9.327-0.608,22.658,4.389,28.484-1.074
		c1.973,0,3.941,0,5.914,0c0.279,1.062-3.167,1.433-0.536,1.613c-11.843,5.459-33.082-3.959-44.609,4.299
		c-1.376,0.025-0.656-0.398-0.538-1.075C98.847-23.404,86.523-12.974,78.668,1.923c2.97-0.438,3.683-7.779,8.063-8.599
		c-1.9,2.938-3.781,5.892-5.373,9.137C82.841,6.06,85.684,5.2,89.422,6.76c-0.335,1.149-3.31,0.504-3.764,0
		c-0.727,0.528-1.074,1.434-1.614,2.15c5.093-2.026,10.571,2.88,12.898,6.987c-2.673,0.159-4.177-5.489-8.062-5.913
		c-1.961,1.324,1.895,4.119-2.686,4.3c3.62,1.933,7.659,3.449,8.6,8.062c-2.391-1.549-3.823-4.058-6.451-5.375
		c-1.286,1.09,2.193,4.631-0.534,5.375c1.52,1.525,3.226,2.863,3.762,5.375c-0.778-1.552-2.791-1.868-3.762-3.225
		c-0.009,1.81-0.118,5.229-1.614,6.987c-0.231,1.507,2.006-1.349,2.148,0.538c1.198,1.354-1.352,2.221-2.686,2.687
		c0.157,3.025-0.298,5.438-1.074,7.524c-2.248-4.398-0.072-9.783,0-14.511c0.07-4.685-0.861-8.404-0.536-12.898
		c-0.122-0.775-1.604-0.188-1.613-1.075c0.765-2.591-0.549-8.47-3.224-10.749c-3.31,4.21-3.18,8.234-9.138,11.286
		c-1.146,3.48,3.957,3.301,1.074,5.374c-1.304-0.326-1.021-3.033-3.226-3.761c0-0.896,0-1.791,0-2.688
		c-4.339,3.284,2.373,7.502,2.689,11.287c-3.337,6.696-5.121,14.943-5.913,24.187c-0.665,1.267-2.848,2.797-1.614,4.299
		c0.022-2.632,2.078-1.801,3.224-4.299c1.842,0.917,0.118,3.408,2.149,4.836c1.188-0.066,0.23-2.278,0.538-3.225
		c1.45,0.205,4.312,3.449,3.222,0c2.437-0.252,1.47,2.515,1.076,3.763c3.976-1.948-0.302-6.4-0.538-9.137
		c2.202-0.41,1.853,1.731,2.152,3.225c2.453,0.271,3.044-0.934,4.835,0c-1.96,1.803-4.062,3.462-4.3,6.987
		c-5.435,0.06-9.458-1.291-15.048-1.075c3.274-1.534-2.038-2.837,2.15-3.763c-0.129-0.944-0.925-1.225-2.15-1.075
		c-0.356-9.376-3.354-17.206-5.912-25.26c-0.428-1.346,0.43-3.812-1.613-4.301c-1.216,2.31,1.525,5.271,2.149,7.525
		c-0.624-0.087-0.956,0.118-1.075,0.537c1.579,2.901,0.374,8.583,3.226,10.212c-2.269,2.058,1.585,1.82-0.538,3.225
		c1.801,3.019,0.192,5.702,3.225,9.675c-0.513,1.456-0.235,3.706-2.687,3.225c2.328-3.832-0.453-8.306-5.912-7.524
		c-0.327-2.122,2.949-0.634,4.299-1.075c-1.547-8.485-2.676-17.39-5.375-24.724c-3.895,1.12-5.688,4.344-9.137,5.911
		c-2.676,5.926-12.624,13.981-19.349,7.525c1.374-5.617,0.782-10.186,1.613-15.049c1.539-8.996,10.123-11.128,14.512-17.199
		c-1.384-0.9-2.564,0.134-4.837-0.537c-2.033-2.089-3.475-4.765-4.3-8.062c-3.393-0.011-6.897,0.09-7.524-2.688
		c9.287,4.515,16.422-3.888,15.586-14.511c3.932,0.725,3.475,5.84,6.987,6.986c0.295,2.75,2.483,3.607,2.687,6.45
		c-0.782,0.293-2.776-0.627-2.687,0.537c2.073,1.156,3.33,0.345,0.537,1.613c1.109,1.755,2.779-0.397,3.763-0.538
		c-0.205,1.816,0.932,2.293,1.612,3.225c3.297-2.609-4.007-7.33-1.075-9.674c1.91-0.835,0.325,1.825,1.613,1.612
		c-1.126-3.242-0.546-5.415-3.225-6.449c-2.006,1.194,1.364,1.442,0.537,3.225c-2.936-1.005-3.9-3.981-5.375-6.449
		c-3.471-5.101-7.898-9.706-12.898-13.974c-3.367-2.874-6.835-5.587-10.212-8.6c3.97-0.688,5.398,5.178,9.674,5.913
		c-3.097-6.137-3.639-14.514-10.212-18.274c-1.387,0.13,0.739,0.925,0,2.149c-2.372-3.361-6.507-4.956-10.749-6.449
		c2.501,3.058,8.059,7.704,10.212,12.898c-1.277-0.335-2.504-0.723-2.688-2.149c-1.737-0.663-0.412,1.741-2.15,1.076
		c-1.162-2.063-3.917-2.533-5.375-4.3c-0.788,0.468-1.705,0.804-1.613,2.149c-2.436-2.218-6.718-2.597-10.212-3.761
		c0.068-1.188,2.28-0.229,3.225-0.538c-0.483-2.562-3.731-2.36-5.374-3.763c2.423-0.44,6.51,2.081,8.062,4.301
		c4.432-0.795,6.951,0.826,10.212,1.075c-1.944-4.15-5.547-6.635-9.674-8.599c10.014,0.199,20.867,4.214,23.11,13.974
		c0.629-0.087,0.453-0.981,0.537-1.613c1.662,1.384,2.423,3.67,2.688,6.45c-1.259-0.175-0.521-2.345-1.613-2.688
		c0.672,5.245,3.971,12.509,9.137,15.049c0.517-0.381-0.351-3.919,0-5.913c-3.785-2.175-7.54-7.088-7.524-11.287
		c0.766,1.025,1.25,2.333,1.613,3.763c0.729-0.168,0.445-1.346,0.537-2.15c1.603,1.979,1.87,5.296,3.225,7.524
		c1.68-4.149-1.299-8.327-1.612-13.437c0.985,2.417,2.526,4.279,2.687,7.524c2.224,0.124,1.579,3.436,3.763,2.15
		c0.332,3.85,6.723,8.564,1.612,11.287c0.182-1.558-0.678-3.498-0.537-5.913c-1.286-0.684-2.803-1.137-2.149-3.761
		c-1.564,4.509-1.369,11.645,1.612,14.511c1.266,0.011,1.583-0.927,3.226-0.538c2.548-3.079,2.559-7.601,1.612-11.287
		c-0.372-1.449-2.073-3.041-2.688-4.836c-0.327-0.961,0.254-1.969,0-2.688c-1.473-4.21-3.849-6.642-5.911-8.599
		c0-0.896,0-1.792,0-2.688c-0.789-0.77-1.705-0.412-1.613,1.075c-1.44-0.351-2.045-1.541-3.225-2.15
		c-7.079-0.252-11.728-3.011-19.349-3.762c-11.289-1.109-23.088-8.076-34.934-4.3c-3.427,1.093-7.579,3.897-11.825,5.374
		c-6.252,2.177-10.49,2.652-14.512,6.451c-1.865,1.761-3.784,5.497-5.912,8.599c-2.257,3.292-4.492,6.624-4.836,9.674
		c-0.439,3.893,0.99,8.154,0,12.899c3.71-6.261,10.404-13.094,19.348-14.511c6.419-1.019,11.511,1.876,18.274,2.688
		c6.911,0.828,14.522-1.033,18.811,2.15c3.891,2.889,3.597,7.969,6.987,11.287c2.603,2.548,7.424,3.213,8.599,6.45
		c1.643-0.388,1.959,0.549,3.225,0.537c0.777,1.913,1.913,3.462,3.226,4.837c-1.512,1.301-3.451-1.542-3.762-3.225
		c-3.434-0.477-5.007-2.965-8.062-5.375c-1.856-1.464-4.791-2.873-5.912-4.299c-2.846-3.621-2.371-9.345-8.599-10.749
		c-3.097-0.699-8.095,0.493-12.898,0c-8.998-0.923-12.866-4.485-20.962-2.688c-2.808,0.952-1.393,6.134-3.225,8.062
		c-1.017-0.603-2.642-0.054-4.3-1.075c-1.126,0.893-2.604,3,0.538,2.688c-0.168,0.729-1.346,0.445-2.149,0.537
		c0.212,1.938,2.66,1.639,3.761,2.688c-3.426,1.624-5.635-2.598-8.062-3.763c1.927-0.179,3.434-0.884,3.225-2.687
		c2.393-0.421,3.226,0.714,5.375,0.537c1.33-0.716-0.617-2.84,0-3.762c-4.951-0.113-6.626,3.047-9.137,5.375
		c0.774,1.731,0.509,4.507,0.537,6.986c-1.191-0.958-1.95-2.349-1.612-4.836c-0.647,1.682-1.474,3.184-2.15,4.836
		c0.156,1.897,1.453-1.896,1.612,0c0.423,1.846-0.5,2.771-1.612,1.613c-0.639,2.628,0.548,2.535,1.612,2.688
		c0.461,0.064,2.011,1.554,4.299,1.075c3.797-0.795,6.549-6.447,7.525-9.137c0.323-1.936-1.641-1.585-1.613-3.225
		c2.542-0.41,2.656,2.754,2.688,3.762c0.169,5.474-9.052,12.919-15.05,9.137c-1.303-5.375-0.932-9.081-1.075-13.437
		c-0.259-7.87-0.673-10.896,2.688-16.661c2.853-4.893,5.212-8.924,9.674-12.362c3.975-3.062,9.25-3.919,14.511-5.912
		c7.336-2.779,12.008-6.548,23.112-5.375c5.783,0.611,12.345,3.861,18.811,4.837c2.974,0.45,5.988-0.038,8.599,0.537
		c1.575,0.348,2.759,1.758,4.3,2.149c4.215,1.074,8.6,0.053,11.825,2.15c0.992-0.682-1.75-2.156-2.15-3.224
		c-0.298-3.722-0.878-7.296-2.688-9.137c-2.336-2.376-6.463-6.13-9.137-6.451C8.937-80.913,2.39-65.1-4.639-72.246
		c-1.261-9.635,8.389-14.783,18.273-16.661c5.48-1.042,10.972,1.706,15.586-1.074c7.705-0.537,12.958,0.361,18.274,2.151
		c3.57,1.199,6.568,4.471,10.212,5.911c3.628,1.434,7.449,1.12,10.21,4.301c2.59-2.346,5.9-5.355,10.216-6.451
		c4.743-1.205,11.549-0.746,18.273-1.612c7.679-0.995,14.04-6.358,20.958-3.765c2.029,0.759,4.362,2.587,6.987,3.763
		c5.513,2.466,10.564,4.312,12.364,10.212c-0.286,0.432-0.562,0.873-0.537,1.612c-4.972,3.372-13.653,0.295-17.736-2.15
		c-2.846,0.378-2.941,3.507-3.764,5.913c-4.497,1.274-4.037,7.75-4.836,13.973c11.882-4.47,25.936-0.788,31.709,6.987
		c5.384-0.374,10.561,5.413,17.736,6.449c5.2,0.75,8.332,0.361,12.9,2.15c8.846,3.467,18.442,10.554,8.599,17.736
		c-7.945-0.654-13.867-3.332-17.735-8.062C165.039-31.628,166.579-29.727,166.272-33.011z M182.399-26.562
		c-0.074-0.972,1.518-2.047,1.073-4.837c-1.257-0.041-3.028-2.289-4.299-0.537c0.685,0.748,2.633,0.233,2.688,1.612
		c-1.905,2.13-3.276-0.855-5.376,1.075c0.158-1.056-0.726-1.066-1.075-1.612c0.944-0.309,3.157,0.65,3.226-0.538
		c-1.923-0.257-3.107-0.873-4.838,0c-0.623-2.062-2.474-2.9-4.835-3.225c0.314,3.384-1.399,5.16,0.535,6.987
		c0.239-1.017-0.73-3.239,1.074-2.688c0.591,2.047-1.422,3.355,0.538,3.763c0.059-0.656,0.159-1.271,1.073-1.075
		c-0.002,3.585,5.129,2.037,6.987,3.762c-0.142-1.754,2.085-1.14,2.15-2.688c-1.346,0.066-1.687,1.025-2.15-0.538
		C180.815-27.487,181.131-26.551,182.399-26.562z M63.08-73.859c2.187,1.327,1.653-1,3.224-1.612
		c-1.75-4.634-10.749-5.619-14.512-8.062c-5.375-3.492-18.922-8.475-25.798-3.225c-2.857-0.793-6.218-1.463-9.674-1.076
		c-4.801,0.536-11.135,2.218-12.9,4.837c14.861-1.005,27.055,5.154,28.486,19.349c4.716,1.765,5.616,9.5,9.674,10.212
		c-1.616-0.542-0.951,1.198-1.075,2.15c1.635,1.124,2.624,0.501,4.3,2.149c0.478,2.271-0.548,3.035-1.612,3.763
		c1.451,0.161,0.963,2.259,2.15,2.687c-0.03-3.254,1.57-4.879,2.149-7.524c-2.224-0.645-4.669-1.064-5.374-3.225
		c2.553,0.134,3.301,2.071,5.912,2.15c2.503-0.363,1.197-4.535,4.836-3.763c0.829-2.261-2.781-0.084-2.687-1.612
		c0.945-0.31,3.157,0.649,3.225-0.538c-1.225,0.15-2.021-0.13-2.15-1.075c0.789-0.004,4.398,0.203,2.687-0.537
		c-6.597,0.02-12.458,1.417-15.586-2.688c3.231,1.427,7.376,1.939,12.361,1.613c1.008-0.13-0.304-0.887,0.538-1.076
		c1.402-0.445,2.947,1.626,3.762,0c-0.93-0.864-3.321-0.259-3.762-1.612c1.9-0.472,2.768,1.382,3.225-0.538
		c-1.901-0.787-5.027-0.347-6.449-1.612c2.287-0.318,3.554,0.385,5.375,0.538c-0.791-3.72-7.009,0.56-8.062-2.151
		c1.458-0.331,4.266,0.684,4.837-0.537c-2.607-1.515-7.814-0.428-10.212-2.15c1.847-0.84,4.492-0.882,6.449-1.613
		c-2.447-0.419-5.186-0.543-5.913-2.687c2.205-0.055,4.406-0.106,5.913,0.537c-0.842-2.676-4.804-1.18-7.524-1.613
		c-0.182-0.028-0.186-0.947-1.075-1.074c-1.414-0.205-4.466,1.016-4.837-1.074c1.731-0.118,2.275,0.95,4.299,0.538
		c0.562-3.071-3.532-1.485-2.687-4.838c-2.37-0.139-4.156-0.857-6.987-0.537c2.727-2.235-1.942-2.425-2.149-4.837
		c7.84-0.592,13.255,5.673,18.811,9.137c0.31-0.945-0.649-3.158,0.537-3.225c1.12,4.971,4.293,7.887,7.525,10.749
		c-0.28-3.943,0.643-6.114,0-9.137c-1.335-2.069-4.37-2.436-5.375-4.836c-1.643-0.388-1.959,0.548-3.226,0.537
		c0.617-1.69-0.842-1.306-1.075-2.15c5.839-0.282,8.643,2.466,11.287,5.375c-1.197,4.172,0.703,9.171,0,11.825
		c-0.402,1.523-1.773,0.275,0,1.075c1.394,0.626,0.816,5.767,4.3,4.837C61.278-64.554,62.678-68.711,63.08-73.859z M45.883-71.709
		c0.329,0.157,2.069,1.337,2.15,0C47.52-72.611,46.247-73.389,45.883-71.709z M28.146-85.146c0,0.359,0,0.718,0,1.075
		c2.647,0.056,4.91,3.312,6.987,2.15c-1.062-1.984-5.144-0.945-5.375-3.762C29.017-85.708,28.579-85.43,28.146-85.146z
		 M108.765-60.96c0.377-5.672,4.711-8.588,5.376-13.974c3.245-4.277,9.638-5.41,16.66-5.912c-4.774-2.056-11.197-6.996-16.66-7.524
		c-6.156-0.596-12.111,3.614-18.274,4.3c-1.098,0.124-2.764-0.548-3.762-0.537c-8.336,0.099-18.444,3.251-22.573,6.987
		c-3.026,2.736-3.899,7.275-5.913,10.749c-0.998,1.72-3.818,1.814-2.689,4.299c-2.703,2.135-5.498,4.177-6.449,8.062
		c-5.959,2.952-9.752,12.129-7.524,19.886c-3.913,6.825-0.592,15.64,6.449,15.049c2.355-0.2,2.43-2.332,5.375-2.688
		c1.062-1.088-0.289-4.588,2.687-3.762c-0.114,3.091-1.486,6.626-2.148,10.212c-0.632,3.401-2.101,8.124,0.537,10.212
		c0.146-5.202,0.607-11.195,2.15-15.586c0.683-1.939,0.328-5.263,3.762-4.3c-0.621,1.525-2.147,2.148-2.686,3.763
		c1.929-0.316,2.603,0.625,3.764,1.075c1.559,7.258,13.106,8.753,18.273,3.762c1.083-1.603-0.487-5.86,2.688-5.375
		c-0.6,2.333-1.015,5.935,0.533,7.524c4.66-3.759,9.526-7.316,13.437-11.824c4.755-2.054,8.951-4.665,12.903-7.524
		c5.176-0.634,9.88-4.378,15.584-5.912c1.811-0.485,4.145-0.092,6.451-0.538c2.029-0.392,3.956-1.375,5.911-1.612
		c5.063-0.613,10.362,0.629,12.901-1.075c-4.619-1.472-9.146-3.037-13.437-4.837c-1.9,1.229-4.471,0.194-7.523,0.538
		c-4.446,0.497-9.594,2.342-13.975,2.687c-1.378,0.952-2.178,2.479-4.3,2.688c-5.152-1.938-8.45-0.295-13.437,2.15
		c-5.843,2.868-11.591,5.923-11.824,12.362c-2.285,1.378-1.978,4.778-4.3,4.836c1.262-1.588,2.946-5.069,1.612-7.524
		c4.641-3.959,7.579-9.618,15.05-10.749c4.621-4.587,3.187-11.907,4.838-19.349c-0.16-0.632-2.848-1.351-1.074-2.15
		C108.168-62.512,107.525-60.796,108.765-60.96z M8.26-81.921c-0.327-0.309-2.548-1.259-2.687,0
		C5.9-81.612,8.121-80.663,8.26-81.921z M5.035-78.696c-1.799-0.486-0.468-1.202,0-2.15c-2.156,0.113-2.406-0.137-1.075-1.075
		c-1.321-0.458-3.652-0.535-3.763,1.613c0.805,0.092,1.984-0.192,2.15,0.537c-1.112,0.32-3.531-0.663-3.762,0.538
		c0.528,1.14,3.381-1.151,4.299,0.537c-1.982,0.348-4.105,0.553-5.375,1.613c2.656,0.128,6.201-1.832,5.912,2.149
		C8-75.91,8.849-80.616,14.709-80.308C12.495-83.567,6.162-81.345,5.035-78.696z M43.732-76.009
		c-2.53-0.874-3.589-3.218-6.449-3.763C38.458-77.89,41.855-75.402,43.732-76.009z M123.277-77.621
		c-0.711-0.005-0.494-0.941-1.076-1.076c0.232,1.485-2.003,0.506-2.149,1.613c4.092,1.283,7.259,3.491,12.362,3.763
		C131.032-76.584,126.606-81.061,123.277-77.621z M134.562-76.009c-0.547-1.624-3.102-4.037-4.836-2.688
		C131.443-78.242,133.271-75.104,134.562-76.009z M-1.414-71.171c2.087-0.421,3.511-1.505,4.836-2.688
		c-2.21-1.348-1.787,1.331-3.762,1.613c-0.006-0.711-0.942-0.493-1.075-1.075c-0.166-1.241,1.552-0.598,1.612-1.613
		c-1.858-0.436-2.268,1.003-3.225,0C-2.834-73.335-2.171-72.206-1.414-71.171z M46.958-69.56c1.373-0.417,2.47,2.103,3.225,0.538
		c-1.034-0.22-0.425-2.085-2.149-1.613C48.025-69.925,47.089-70.144,46.958-69.56z M107.688-45.911
		c2.651-2.252,3.814-8.639,7.523-8.062c-2.948,2.896-3.639,4.775-5.911,8.062c2.929-0.116,4.057-2.033,6.987-2.149
		c1.548-3.113,3.381-8.792,8.061-6.987c-2.915,1.025-5.255,2.627-5.911,5.912c5.231-0.859,8.833-3.348,15.049-3.225
		c-3.654-6.404-17.482-4.335-24.186-2.15C109.126-51.631,107.851-47.022,107.688-45.911z M134.026-51.823
		c-7.344,2.215-15.162,4.918-20.424,8.062c7.606-1.287,14.199-4.385,22.035-5.375c1.505-0.188,2.904,0.56,4.3-0.538
		C138.245-50.222,135.927-52.396,134.026-51.823z M108.765-43.761c2.588-0.28,4.217-1.516,5.914-2.687
		C112.592-45.667,110.384-45.009,108.765-43.761z M154.45-41.074C157.949-39.318,156.628-42.61,154.45-41.074L154.45-41.074z
		 M172.187-34.624c3.053-0.528,6.153,1.707,8.061,0.537C178.423-34.577,172.372-36.024,172.187-34.624z M43.195-24.412
		c-0.22-1.295,0.98-1.167,0.537-2.688c-0.416-0.12-1.059-0.013-1.075-0.537c0.298,0,0.609-0.434,0-0.538
		C41.802-27.329,42.507-25.295,43.195-24.412z M137.252-18.5c1.106-0.327,3.735,0.866,3.224-1.075
		c-1.715-1.192-4.099,1.283-5.913-0.538c-0.138,0.754-1.177,0.611-1.614,1.075c0,1.434,0,2.866,0,4.3
		c1.258,0.179,2.315,0.551,2.688,1.613c-0.468,0.786-0.803,1.704-2.149,1.612c0.067-1.345,1.025-1.682-0.538-2.15
		c0.306,2.455-0.951,3.348-0.534,5.913c0.635,0.26,1.217,0.573,1.612,1.075c-1.966,1.207,2.449,4.006,2.688,6.449
		c3.571-0.37,6.587-1.293,8.6-3.225c0.763-3.111-2.05-5.451-0.538-7.524c-0.132,2.282,1.406,2.893,1.075,5.375
		c3.333,0.417,2.544-4.304,3.222-6.987c1.032-4.067,3.965-8.758,1.074-12.362c-0.49,0.946-1.881,0.984-2.686,1.613
		c-0.311,0.945,0.649,3.158-0.538,3.225c-0.879-1.118-2.622-2.52-3.762-0.538c0.501,0.574,1.981,0.167,1.611,1.613
		c-1.437,0.002-1.165-1.697-2.688-1.613c1.032,3.779,0.6,9.135-1.611,11.287c0.96,3.189-2.881,9.611-3.764,5.912
		c-0.049-0.212,2.878-1.285,0-1.612c-0.014-1.805,2.13-1.453,3.224-2.151c-0.088-1.522-0.984-2.239-1.072-3.761
		c1.607-0.742,2.581-4.918,1.612-6.449c0.711,3.348-3.924,0.785-2.688,2.687c-0.003-0.297,0.435-0.609,0.537,0
		C136.338-13.143,135.489-17.457,137.252-18.5z M57.707-20.113c0.688,0.029,0.746,0.69,1.613,0.538
		c-0.085-0.634,0.092-1.528-0.538-1.613C58.775-20.478,57.841-20.697,57.707-20.113z M38.357-17.963
		c-0.837-0.139-0.374-1.178,0-1.612C35.69-20.271,37.391-16.185,38.357-17.963z M62.544-18.5c-0.269,2.086,3.554,2.859,4.835,1.612
		c-0.997-0.974-3.849-0.09-4.299-1.612c0.782-0.294,2.777,0.626,2.686-0.538c-1.295,0.22-1.166-0.98-2.686-0.537
		C62.962-19.159,63.066-18.516,62.544-18.5z M56.094-18.5C59.637-17.168,58.533-20.296,56.094-18.5L56.094-18.5z M52.332-14.738
		c-0.215-2.006,0.43-3.152,2.15-3.225c-0.303,1.549,4.242,2.795,3.763,1.075c-1.936-1.111-4.085-2.006-7.525-1.612
		C51.302-16.798,50.419-15.769,52.332-14.738z M39.97-16.888c0.359,0,0.716,0,1.075,0c0-0.357,0-0.716,0-1.075
		c-0.359,0-0.716,0-1.075,0C39.97-17.604,39.97-17.246,39.97-16.888z M41.045-14.738c0.716,0,1.434,0,2.15,0
		C43.309-16.498,40.673-16.858,41.045-14.738z M69.531-13.125c-3.001,1.013-7.363-1.684-7.525,0
		c0.475,2.033,4.818,0.195,5.911,1.612c-1.528,2.333-6.158-1.721-5.911,0.538c0.82,1.688,4.122,0.893,6.449,1.075
		c0.713-1.438,1.155-3.146,3.762-2.688c-0.514,1.796-1.574,8.237,0.538,9.137c1.216-2.009,0.035-6.415,1.614-8.062
		c3.337-0.289,5.001,1.091,8.062,1.076c1.096-0.287,3.856-3.602,1.074-4.3c0.226,2.63-1.632,1.282-3.764,2.15
		c0.844,0.051,1.863-0.071,1.611,1.075c-7.186-0.691-12.26-3.502-18.808-4.836C62.172-12.574,68.552-15.551,69.531-13.125z
		 M57.168-9.364c0.1-2.881-0.673-3.292,0.538-4.836c-0.15-1.104-1.436-1.073-2.15-1.613C56.486-14.469,54.11-9.751,57.168-9.364z
		 M85.653-10.976c0.888-0.724,1.851-1.375,2.152-2.688c-0.923-0.513-1.085-1.782-2.152-2.149
		C87.224-14.373,85.002-9.55,85.653-10.976z M36.208-13.664c0.952-0.123,2.692,0.542,2.149-1.075c-0.716,0-1.432,0-2.149,0
		C36.208-14.38,36.208-14.021,36.208-13.664z M52.332-8.288c0.392-2.722-0.715-3.944-1.613-5.375
		C49.691-12.111,51.798-9.975,52.332-8.288z M39.433-12.051c-0.716-0.896-3.043-0.179-3.762-1.075
		C35.5-11.661,38.795-10.931,39.433-12.051z M44.27-10.976c0.15-1.225-0.13-2.02-1.075-2.15C43.27-12.125,43.549-11.33,44.27-10.976
		z M43.195-6.676c-0.771-2.096-1.284-4.449-2.688-5.912c0.397,3.234-3.909,0.936-5.375,1.075c-0.521,2.137,3.004,0.222,2.688,2.15
		c-2.027,0.412-2.569-0.656-4.3-0.537c-0.374,2.165,2.674,0.909,3.225,2.15c-3.496,0.034-4.284-1.735-6.987,0
		c0.461,5.807,4.235,9.954,10.749,8.062c1.026-2.34,3.38-4.114,1.075-6.987c-1.697,0.087-3.242,0.018-3.761-1.075
		c2.839,1.218,2.344-0.351,3.225-2.15C42.454-9.518,41.561-6.833,43.195-6.676z M74.907-2.376c1.725,0.076,2.349,2.869,3.761,1.613
		c0.932-3.102-2.093-5.878-2.147-9.674c-0.538,0-1.076,0-1.613,0C74.907-7.751,74.907-5.063,74.907-2.376z M78.668-9.901
		c-0.087,2.415,0.434,4.222,1.612,5.375c0.942-1.534,4.992-5.197,3.762-5.375C82.846-9.556,80.531-9.321,78.668-9.901z M61.47-7.751
		c1.076-0.894,3.985,0.045,4.836-1.075C65.184-9.672,62.736-9.2,61.47-9.901C61.47-9.185,61.47-8.467,61.47-7.751z M66.306-7.214
		c-0.991,1.158-4.859-0.56-4.836,1.613c0.849,2.374,5.992,0.457,8.595,1.075c-0.334-1.633,0.691-4.629-0.533-5.375
		C68.889-8.573,67.689-7.8,66.306-7.214z M52.869-7.214c1.068,0.008,0.683,1.468,2.149,1.076c0.233-2.686,0.95,0.416,2.15,0
		c0.469-1.725-0.826-1.682-1.612-2.15C54.952-6.454,53.474-8.458,52.869-7.214z M44.808-6.676c-0.122,1.017,0.604,1.188,0.537,2.15
		c1.205-0.229,1.713-1.153,2.688-1.612c-0.419-0.119-0.625-0.451-0.538-1.076C45.977-7.659,46.102-6.457,44.808-6.676z
		 M43.732-5.601C44.507-0.437,43.732-7.892,43.732-5.601L43.732-5.601z M59.856-4.526c-7.083-1.93-14.758-0.267-18.274,5.375
		c3.089,0.115,4.791-3.809,8.062-4.3c3.135-0.47,6.394,0.985,9.137,2.688c-3.101,1.227-4.606-2.603-9.137-1.613
		c-1.097,2.04-1.843,1.281-3.225,3.225c5.972,1.632,9.742,0.482,13.974-1.612c1.566-0.775,3.3-1.438,4.299-2.688
		c-1.994-0.38-2.307,0.918-4.299,0.538C60.416-3.653,60.141-4.095,59.856-4.526z M68.993,6.222c-0.145-7.046-5.1-9.477-8.062-5.911
		c1.309,2.461,3.402,0.396,4.838,1.075c-0.492,0.94-1.001,1.868-2.686,1.613c0.289,2.501,1.938,5.375-0.538,6.986
		c0.232-4.53-1.059-7.54-4.299-8.599c-4.468,1.244-2.872,6.223-1.613,9.674c-0.846,0.049-0.421,1.371-1.613,1.075
		c0.168-3.393-1.018-5.428-2.687-6.986c0.669,3.453-0.227,4.142-2.15,5.912c-0.081-0.994-1.821-0.329-2.15-1.075
		c-0.235,3.348,0.033,7.201-2.15,8.6c0-1.971,0-3.942,0-5.912c-1.691-0.891,0.47,4.299-1.075,4.299c-2.38,0,2.022-5.571-1.075-4.299
		c-0.267,0.109-0.039,4.436-0.538,4.836c-0.347,0.277-1.958-1.997-2.688-0.537c-1.157,1.887-0.413,5.677-2.149,6.987
		c-0.32-1.115,0.666-3.532-0.537-3.763c0.139,1.754-0.639,2.587-2.15,2.688c0.094-1.585,1.447-3.329,0.537-4.3
		c-1.975,0.28-1.616,2.894-1.075,4.3c-1.787,1.258-2.127,3.964-3.225,5.911c-0.842-0.77-0.423-2.801-2.15-2.687
		c-0.75,1.543,1.464,2.729,0,3.225c-0.945-2.795-2.338,1.942-3.225,0.538c3.011-5.409,6.902-9.94,10.749-14.513
		c-2.378-0.383-4.173,2.603-5.374,1.613c0.714-1.816,3.474-3.775,5.912-2.149c1.818-2.84,5.067-4.249,6.449-7.524
		c-4.275-1.04-6.812,2.49-9.137,1.612c2.049-2.313,6.711-3.442,10.75-2.15c1.567-0.582,2.022-2.277,4.3-2.149
		c-0.119,0.676-0.838,1.1,0.537,1.075c1.566-4.521-5.578-4.259-10.212-4.3c-2.086,1.473-3.357,3.492-5.374,5.375
		c-1.958,1.825-4.947,3.18-6.45,4.837c-4.521,4.983-4.369,14.469-5.374,22.036c3.932,3.966,8.83,0.726,12.898-2.688
		c2.434-2.042,3.98-5.377,6.449-7.524c2.72-2.365,7.207-4.556,10.75-5.374c2.598-0.601,4.733,0.07,6.449-0.538
		c1.666-0.591,3.276-3.293,5.911-3.762c0.422-5.162,11.725-6.676,11.289-11.825c-0.203-2.383-2.943-3.785-6.451-4.299
		c-1.896,0.159,1.898,1.453,0,1.613c-2.484,0.406-0.744-2.054-1.612-2.15c-0.669,1.65-2.105-2.26-2.688,0.537
		C69.531-2.45,71.41,4.198,68.993,6.222z M44.27,11.06c2.282,0.67,1.438-1.787,2.688-2.15c0.691,1.048,4.097-2.15,1.612-2.688
		C46.811,7.51,44.377,8.122,44.27,11.06z M69.531,12.135c2.218,0.938,4.616-2.04,5.371-4.299
		C72.942,9.094,70.008,9.387,69.531,12.135z M85.653,12.673c-0.166-1.241,1.553-0.598,1.614-1.613
		c-1.575,0.139-1.651-1.214-3.226-1.075C84.221,11.239,84.593,12.301,85.653,12.673z M42.657,15.359
		c-0.004-0.787,0.204-4.398-0.537-2.687C42.125,13.461,41.917,17.071,42.657,15.359z M38.896,16.972
		c0.156-0.329,1.336-2.069,0-2.149C39.411,15.823,37.285,16.618,38.896,16.972z M65.231,32.559c0,0.537,0,1.075,0,1.613
		c0.028,0.564,0.689,0.421,0.534-0.538c0.267-5.423,5.102-10.682,0-13.975c-0.123,0.953,0.542,2.692-1.072,2.151
		c-0.337-2.799,1.247-4.369-0.538-5.912C62.172,20.492,64.112,27.791,65.231,32.559z M62.006,47.608
		c1.863-0.422,1.387-2.983,1.612-4.299c0.988-5.769-0.162-10.25-1.072-15.587c-0.572-3.341-0.73-7.343-2.688-9.136
		c-0.358,0-0.716,0-1.075,0C61.125,29.041,61.278,36.576,62.006,47.608z M56.632,22.885c0.799,3.526,2.22,9.661,3.225,11.287
		c-1.165-3.129-0.533-8.676-1.612-11.825c-0.451-1.31-1.013-3.901-3.226-3.225C54.73,21.203,56.39,21.334,56.632,22.885z
		 M87.268,27.184c0.028-0.925-0.416-1.378-1.076-1.613C86.163,26.497,86.603,26.949,87.268,27.184z M32.983,22.347
		c-0.699,0.715-0.708,2,0.538,2.15C33.429,23.693,33.713,22.513,32.983,22.347z"/>
	<path style="fill:#204638;opacity:1;stroke:#204638;stroke-width:0.5" d="M103.928-70.096c0-0.359,0-0.717,0-1.075C99.7-70.258,95-69.895,92.104-67.947c-1.749,1.178-2.16,3.118-3.761,4.3
		c4.221,0.631,9.158-2.661,13.972-3.225c1.006,1.921-2.729,3.706-5.373,3.761c0.131-0.944,0.923-1.225,2.147-1.074
		c-5.131-0.647-10.209,3.403-15.048,4.836c0.172,2.323-0.899,3.397-3.222,3.225c0.188,0.706,0.944,0.844,1.071,1.613
		c4.111-0.546,12.243-5.487,13.437-2.149c1.426,0.169-0.503-3.013,1.614-2.15c-0.088-0.63-0.982-0.455-1.614-0.538
		c0.077-1.539,2.242-0.983,3.762-1.075c-0.309-1.773-2.027-0.77-3.222-0.537c0.261-2.428,4.058-1.322,5.912-2.151
		c-0.351,0.722-1.148,1.002-2.148,1.074c-0.087,0.881,3.312,0.881,3.224,0c0.604,1.341-3.293,2.781-4.299,4.3
		c0.048,1.661,2.099-1.662,2.149,0c-0.271,1.52-1.528,2.054-2.688,2.687c-0.197,0.914,0.42,1.015,1.071,1.075
		c-2.62,2.576-5.916,4.474-11.284,4.299c2.432-1.866,7.168-1.433,9.137-3.762c-1.399-0.663-4.085,1.99-6.985,1.612
		c0.893-1.253,2.918-1.379,4.3-2.149c-0.062-1.03-1.802,0.632-3.226,0c0.312-1.301,2.029-1.195,3.226-1.612
		c-0.33-0.479-0.651-0.961,0-1.075c-6.823,0.706-14.486,5.22-19.888,9.136c2.878-0.345,4.12-2.332,7.522-2.15
		c-1.032,1.835-4.219,1.515-5.911,2.688c-0.092,1.167,1.909,0.244,2.688,0.538c-0.794,2.614-4.713,2.097-5.375,4.836
		c4.895-3.124,12.562-3.28,19.886-5.912c2.604-0.936,5.373-2.228,7.525-4.3c0.984-0.949,2.742-4.633,5.371-3.225
		c-4.422,2.027-6.364,6.533-11.285,8.062c0.486,1.126,3.033,0.19,3.224,1.613c-1.802,4.469-7.82,4.718-12.898,5.911
		c1.052-1.097,2.694-1.603,4.838-1.612c-0.919-1.688-3.774,0.603-4.304-0.538c0.939-3.359,5.832-2.768,8.604-4.299
		c-9.159,0.52-19.479,4.526-26.34,9.137c1.463,2.714,3.307-1.568,6.451-0.538c-2.537,1.585-6.543,1.7-7.523,4.837
		c-0.57,2.004,2.017,0.851,1.612,2.688c-3.243-0.435-1.503,3.29-4.835,3.762c1.017-8.834,5.34-14.366,8.062-21.499
		c1.785-0.543,1.682-2.976,4.3-2.687c-0.007-1.068-1.468-0.683-1.073-2.149c1.124-0.229,1.421,0.37,2.147,0.537
		c0.664-1.737-1.737-0.409-1.072-2.149c2.168-0.877,2.44-3.65,5.371-3.762c0.051-4.251,3.987-4.613,4.838-8.062
		c6.045-3.094,12.081-6.197,19.888-7.524c-0.619,2.607-2.064,4.385-5.373,4.3C101.198-69.959,102.384-70.209,103.928-70.096z
		 M93.717-44.298c0.925,0.029,1.375-0.414,1.611-1.075C94.405-45.402,93.95-44.958,93.717-44.298z M72.755-44.298
		c-0.473-1.727,1.771-0.737,1.614-2.149C72.707-47.152,71.318-44.923,72.755-44.298z M91.566-44.298
		c-0.052,0.018,0.044,0.486,0,0.537C88.619-41.671,95.372-45.566,91.566-44.298z"/>
	<path style="fill:#204638;opacity:1;stroke:#204638;stroke-width:0.5" d="M109.841-69.56c-0.984,1.551-0.875,1.682-0.538,3.763c-1.521-0.444-1.393,0.757-2.688,0.537
		c0.805-0.806,0.965-2.261,2.149-2.687c0.232-0.867-2.003-1.805-2.149-0.538C105.047-69.406,108.454-69.818,109.841-69.56z"/>
	<path style="fill:#204638;opacity:1;stroke:#204638;stroke-width:0.5" d="M105.003-67.947C106.727-68.686,100.883-66.182,105.003-67.947L105.003-67.947z"/>
	<path style="fill:#204638;opacity:1;stroke:#204638;stroke-width:0.5" d="M36.746-24.95c-1.645-0.389-1.581,0.927-3.225,0.538c0.169-1.261,1.663-1.203,2.15-2.15
		c-6.149,0.123-9.242,7.954-15.049,10.212c-3.863-3.006-8.443-2.56-11.287-5.913c-0.034-0.038,0.682-1.137,0.538-1.612
		c-0.367-1.217-3.29-1.023-2.688-2.688c6.976,0.604,14.588-2.54,18.811-6.449c2.573-0.209,2.235,2.819,4.299,0.537
		c-2.396-1.502-5.524-0.175-7.524-2.149c0.455-1.16,2.771-0.455,3.225-1.613c-1.642-1.78-2.479,1.788-4.837,1.074
		c0.058-1.015,1.776-0.374,1.612-1.613c-0.488-1.302-1.586,1.218-3.225,0.537c0.473-1.498,2.159-1.782,3.763-2.15
		c-6.947-0.133-12.209,6.064-20.961,5.913c-0.089-1.167,1.908-0.244,2.688-0.537c-3.725-1.292-6.671-3.359-10.749-4.3
		c0.229-1.122-0.369-1.422-0.538-2.15c-3.876-0.186-9.616,0.271-11.824,0c-3.165-2.748-10.246-1.578-13.975-3.762
		c-2.709,0.461-3.005,0.144-5.913,0c-0.094-3.147,3.803-1.536,5.913-1.075c2.387-0.48,3.536-2.2,5.912-2.688
		c-0.072,2.079-2.181,2.122-2.688,3.763c1.796-0.534,3.218-1.44,4.837-2.149c2.024,5.994,8.36,2.017,12.362,2.149
		c-0.058,1.336-1.008,1.664,0,2.687c9.103,1.147,14.646-4.27,23.648-4.836c-1.617-2.759-4.354,0.919-7.524,0
		c0.922-1.049,2.783-1.16,4.836-1.075c-2.1-2.858-5.789,0.665-8.599,0.537c0.808-1.521,2.786-1.872,4.837-2.15
		c-2.48-1.389-5.729,1.066-7.525,2.15c-1.648-0.526,0.619-1.434,0.538-2.15c-1.015-0.436-1.814,1.188-2.688,1.075
		c-0.673-0.089-0.432-1.233-1.612-1.075c-4.86,0.656-8.799,4.78-13.974,5.913c4.049-4.013,10.397-5.727,16.124-8.062
		c1.695-0.265,1.896,0.97,3.762,0.537c-4.21-3.349-7.878,0.767-12.362,1.613c0.19-0.705,0.948-0.844,1.075-1.613
		c-1.462,0.419-2.535,0.675-3.761,0.538c-0.041-0.004,0.701-0.94,0.537-1.075c-0.904-0.734-4.425,2.064-3.761-1.613
		c-4.054,0.068-8.874-0.631-9.675,2.688c-0.733,0.466-4.06,0.083-5.375-0.538c-3.19,0.822-4.577,5.461-8.062,4.301
		c0.333-1.637,2.891-1.051,3.225-2.688c-4.035,1.519-8.61,2.497-10.21,6.449c-1.913-1.047-2.354,0.765-3.763,1.613
		c-0.459-1.344,1.292-3.03,2.149-3.762c3.996-3.413,11.417-5.281,16.661-7.524c0.78-0.333,1.68-0.13,1.613-1.613
		c7.586-0.473,13.714-2.409,22.036-2.15c-1.801-1.292-4.768-2.9-7.524-1.612c-2.591-3.859-10.731-2.168-16.125-3.225
		c2.59-2.092,6.141-0.929,9.674-0.538c3.848,0.426,6.972,1.648,10.212,2.688c2.912,0.934,5.542,2.801,8.6,3.762
		c2.475,0.777,5.475,0.271,8.061,1.075c0.71,0.222,2.249,0.524,4.3,1.075c1.191,0.32,4.069,1.763,5.912,2.688
		c0.988,0.498,2.934,1.494,3.225,2.688c-10.082-4.277-22.311-9.184-37.084-6.987c15.939,0.47,27.386,3.33,37.084,9.137
		c-0.812,0.797-2.357,0.864-3.762,1.075c1.308,1.447,4.291,0.022,5.913,0C25.542-37.752,33.66-33.868,36.746-24.95z M27.609-29.25
		c-0.573-0.5-0.168-1.981-1.613-1.612c-3.607,3.198-10.044,3.569-13.974,6.45c2.327-0.043,3.558-1.128,4.299,1.075
		c-1.861,0.111-2.859,1.082-4.299,1.613c1.389,1.274,4.823-2.117,6.449-0.538c0.291,2.083-3.12,0.466-3.225,2.15
		c2.392,0.421,3.225-0.716,5.375-0.538c-0.007,1.069-1.466,0.684-1.075,2.151c6.837-1.405,9.614-6.866,14.512-10.212
		c-1.567,0.15-1.847-0.13-1.075-1.075c-1.808-0.681-2.844,2.103-3.763,0.537c0.478-1.314,3.001-0.582,2.688-2.687
		C29.492-32.022,29.515-29.673,27.609-29.25z M-17-51.285c1.017-0.237,3.238,0.73,2.687-1.075
		C-15.648-52.441-16.543-52.083-17-51.285z M-13.239-50.748c0.957-0.296,2.233-0.275,2.688-1.076
		C-11.622-52.943-12.846-51.841-13.239-50.748z M-10.551-50.21c1.667-0.305,4.087,0.146,4.3-1.613
		C-8.368-51.969-9.987-51.615-10.551-50.21z M-27.75-49.674c0.03-0.924-0.415-1.376-1.075-1.611
		C-29.593-50.499-29.616-49.206-27.75-49.674z M-32.05-49.674c0.538,0,1.075,0,1.613,0c0.069-0.964-0.534-1.257-1.613-1.074
		C-32.05-50.39-32.05-50.031-32.05-49.674z M3.422-34.624c8.098,0.395,11.594-3.814,18.274-4.838
		c-0.485-1.484-2.049-1.892-3.762-2.149c-1.179,0.466-3.181,2.869-4.3,1.613c0.061-1.017,1.776-0.374,1.613-1.613
		c-2.562,0.448-3.876,1.735-5.375-0.537c0.974-1.355,3.531-1.126,4.3-2.688C8.215-42.462,0.828-42.7-4.102-38.387
		c1.312,1.362,1.145-1.133,3.225-0.537c0.498,1.686,1.696,2.287,3.225,1.613C0.966-35.979,2.71-35.397,3.422-34.624z"/>
	<path style="fill:#204638;opacity:1;stroke:#204638;stroke-width:0.5" d="M61.47-57.198c2.463,1.748,2.408,7.344,5.374,6.987c0.133,2.62-0.116,4.427,0.535,5.375
		C65.332-46.738,61.667-51.655,61.47-57.198z"/>
	<path style="fill:#204638;opacity:1;stroke:#204638;stroke-width:0.5" d="M67.379-51.823C65.746-54.645,69.833-47.588,67.379-51.823L67.379-51.823z"/>
	<path style="fill:#204638;opacity:1;stroke:#204638;stroke-width:0.5" d="M64.155-45.373c-2.232,2.492-2.818-2.021,0-2.151c-0.856,2.343,1.868,1.944,0.538,3.226
		C64.173-44.314,64.278-44.957,64.155-45.373z"/>
	<path style="fill:#204638;opacity:1;stroke:#204638;stroke-width:0.5" d="M121.663-42.687c-0.756,2.468-3.332,3.116-4.299,5.375C116.472-39.295,119.358-42.113,121.663-42.687z"/>
	<path style="fill:#204638;opacity:1;stroke:#204638;stroke-width:0.5" d="M98.554-42.148c-1.607,1.908-8.942,3.562-11.286,3.762c-1.26,0.106-1.66,0.788-0.538-0.537
		C91.843-38.828,94.243-41.443,98.554-42.148z"/>
	<path style="fill:#204638;opacity:1;stroke:#204638;stroke-width:0.5" d="M113.603-38.924c-0.884,1.579-3.766,1.853-4.838,0.537c-0.872,0.92-1.627,1.957-1.611,3.763
		c-0.63-0.087-0.453-0.981-0.538-1.613c-6.454,0.619-0.674,7.444-5.373,9.137c2.112-4.396-0.405-10.099,4.299-11.824
		c0.402,1.655-1.474,1.032-1.073,2.687c0.717-0.678,1.057-1.616,2.149-0.537c0.796-0.235-0.212-0.688,0-1.613
		C109.648-39.031,110.384-38.635,113.603-38.924z"/>
	<path style="fill:#204638;opacity:1;stroke:#204638;stroke-width:0.5" d="M78.668,8.373c-0.15,1.104-1.438,1.073-2.151,1.612c-0.254,1.687,1.447,1.42,1.613,2.688
		c0.219,1.293-0.979,1.167-0.537,2.687C75.167,14.547,75.165,7.942,78.668,8.373z"/>
	<path style="fill:#204638;opacity:1;stroke:#204638;stroke-width:0.5" d="M80.815,24.497c-0.898,1.608-2.458,2.558-3.761,3.763C76.271,27.09,78.756,24.607,80.815,24.497z"/>
	<path style="fill:#204638;opacity:1;stroke:#204638;stroke-width:0.5" d="M37.283,58.895c-3.026-0.158-4.12,1.611-6.449,2.149c0.058,2.27,3.744,0.913,3.225,3.762
		c-1.573-0.936-3.059-1.959-5.375-2.15c-0.485,0.729,1.421,2.161-2.15,1.613c0.087,0.629,0.981,0.452,1.612,0.537
		c-0.146,2.799-3.592-0.503-4.299,1.075c-0.041,1.832,1.993,1.592,3.763,1.613c0.483,1.466-4.116-0.271-5.913,0
		c2.415,3.054,9.558,2.697,13.437,2.688c-1.516,1.959-6.241,0.635-9.674,0c-1.959-0.363-4.032-1.566-5.913-1.076
		c-0.017,1.63,1.885,1.339,3.225,1.613c-1.223,1.534-3.15-0.754-5.375,0c0.491,1.304,2.158,1.425,3.762,1.613
		c-1.272,1.806-4.044-1.209-5.375,0.537c1.277,0.874,3.256,1.043,4.837,1.613c-1.881,1.55-5.005-1.452-6.987,0
		c-0.513,1.948,2.32,0.546,2.688,1.612c-0.517,1.331-2.064-0.741-3.762,0c-0.078,1.511,1.317,1.549,2.688,1.613
		c-0.885,1.751-2.916-0.983-3.763,0.537c1.396,2.009,4.968,1.841,7.525,2.688c-2.269,1.579-6.401-2-8.6-0.538
		c0.5,2.008,3.796,1.22,5.375,2.149c-1.343,1.829-4.926-1.468-6.45,0.538c1.026,2.199,4.614,1.836,7.524,2.15
		c-1.112,1.87-6.159-0.293-8.599-0.538c-0.911,4.316,5.955,0.854,6.449,3.763c-1.216-0.135-5.571-1.397-7.524-0.537
		c0.968,2.795,6.139,1.386,8.599,2.687c-2.655,1.564-6.053-0.741-9.136-0.537c0.605,2.428,3.567,1.205,5.375,1.612
		c1.583,0.358,3.299,1.418,4.836,1.613c2.312,0.29,4.801-0.195,6.987,0c2.229,0.196,4.217,1.347,6.449,1.611
		c9.431,1.126,19.468,0.309,27.949,1.612c-17.107,0.798-37.333-2.792-52.671-3.762c6.733,3.298,17.172,2.891,25.798,4.299
		c-6.982,1.842-14.814-0.87-20.423-2.149c-1.756-0.4-4.329,0.886-5.375-1.075c-1.508,3.131,5.821,3.92,8.599,4.301
		c14.306,1.951,27.854,0.831,44.609,1.612c5.541,0.256,12.675-0.628,17.735,0c3.409,0.422-4.028,0.811-6.452,0.535
		c-12.537,0.893-26.905-1.622-39.771-1.071c-1.34,0.055-2.454,0.912-3.761,1.071c-8.312,1.02-15.116-3.63-22.037-2.686
		c0.211,2.139,2.869,1.214,4.3,1.614c7.952,2.22,23.044,2.646,33.859,3.762c1.736-0.228,7.075,0.101,4.837,0.538
		c-1.713,0.334-5.195,0.104-7.524,0c-11.357-0.519-28.17-1.929-36.008-3.229c1.912,2.567,7.541,1.42,10.749,2.69
		c-3.27,1.994-8.398-1.614-11.287,0c1,3.479,9.167-0.21,10.212,3.221c13.007,0.072,23.512,2.648,36.01,3.227
		c-11.283-0.771-23.228,0.927-35.472,0c2.694-2.078,9.518,0.325,14.511-0.538c-4.018-2.144-9.556-0.792-14.511-1.614
		c-1.908-0.314-8.793-3.591-11.287-1.074c2.669,0.914,6.045,1.122,9.674,1.074c-1.454,3.49-8.334-1.758-9.674,1.614
		c0.94,3.178,9.518-1.273,9.674,2.686c-3.821,0.417-5.995-0.812-9.674-0.536c0.584,3.354,7.323,0.56,9.674,2.149
		c-1.148,2.274-7.15,0.176-9.674,1.076c1.902,1.417,5.144,1.553,7.524,1.612c5.987,0.142,12.474-0.374,18.811,0.535
		c-1.769,2.437-7.849,0.674-10.749,0.538c-5.343-0.249-11.016-0.302-15.049,0c2.29,1.115,6.598,0.21,9.137,1.074
		c-1.809,2.67-7.587-0.28-9.674,1.073c9.014,2.225,20.724,1.009,29.023,2.147c-7.458,2.117-18.961-0.638-28.486,0
		c1.023,2.563,7.485-0.314,8.6,2.152c-2.004,1.443-5.75,0.037-8.062,0c0.934,2.834,4.521,1.262,6.987,1.614
		c6.709,0.949,14.956,1.399,19.886,1.611c-0.515,2.486-3.765,0.573-5.913,0.536c-7.464-0.118-13.911-0.637-19.886-1.074
		c1.545,1.323,5.152,0.584,6.987,1.616c-1.271,1.233-4.824,0.192-6.987,0.534c2.041,1.185,5.917,0.535,8.062,1.613
		c-1.449,1.24-5.184,0.192-7.524,0.538c5.535,2.479,14.187-0.341,22.036,0.536c1.238,0.138,3.81,0.059,4.299,1.611
		c-9.695-0.069-16.834,0.224-25.798,0c8.554,2.124,21.394-0.639,30.636,1.076c-8.893,2.415-19.398-0.072-29.561,1.071
		c9.609,1.542,20.305,0.077,30.636,1.614c-1.416,2.528-4.53,0.595-6.45,0.538c-7.215-0.214-15.267,0.063-23.111,0
		c8.116,1.846,16.749,0.009,25.798,1.074c-1.323,2.036-4.366,1.061-6.449,1.073c-5.872,0.044-12.274,0.149-18.274-0.538
		c1.136,2.406,8.578,0.3,9.137,1.614c-1.047,2.567-5.039-0.499-8.062,0.538c7.124,2.937,17.616-0.175,26.336,1.611
		c0.15,0.868-0.508,0.926-0.538,1.612c2.705,0.14,6.756-1.627,6.987,0.538c-1.577,0.098-3.964,0.529-6.987,0.538
		c2.139,1.981,5.192,0.221,6.987,1.071c-1.464,0.61-4.68,1.378-5.913,0.538c0.006,1.067,1.467,0.687,1.075,2.149
		c-1.787-0.081-3.59,0.111-5.374,0c-2.21-0.133-5.524-0.076-6.45-1.611c3.225,0,6.45,0,9.674,0
		c-2.917-1.92-10.862,1.186-12.899-1.614c2.15,0,4.3,0,6.449,0c-1.057-1.272-3.564-1.091-5.912-1.074
		c-0.43-2.042,2.542-0.685,3.763-1.073c-2.891-1.621-6.804,0.354-10.212,0c0.406,1.745,5.254-0.953,4.837,1.614
		c-2.867,0-5.733,0-8.6,0c2.16,1.603,7.72-0.197,9.137,2.149c-2.509,0-5.016,0-7.524,0c1.483,2.819,9.352-0.755,10.749,2.149
		c-2.687,0-5.375,0-8.062,0c7.093,2.314,13.207-0.634,21.499,0c-0.099,1.77,1.149,1.085,1.613,3.224
		c-2.898,0.009-1.539-0.048-1.075,1.614c-3.798-1.194-10.043,0.032-14.511-0.538c-1.109-0.14-3.688-0.14-3.763-1.614
		c4.671,0.016,9.612,0.298,12.9-1.073c-3.312-0.344-10.438,1.454-15.05,0c0.594,4.148,5.845,2.95,10.749,3.226
		c5.854,0.326,11.665,1.548,17.199,1.071c-2.163,2.454-6.36,0.695-9.674,0.538c-4.904-0.231-10.409-0.494-14.512,0
		c4.304,2.104,15.377-0.205,20.961,2.149c-5.385,1.258-12.496-0.399-18.274-0.535c3.995,2.095,10.733,1.447,16.661,1.614
		c-2.676,2.836,4.338,1.959,7.525,2.147c-0.875-1.634-5.959,0.94-5.374-2.147c6.413,0.931,13.48,1.207,20.423,1.611
		c-1.133,1.96-4.17,1.133-6.45,1.074c-2.463-0.062-5.569-1.074-8.062-0.538c12.164,1.968,25.076,0.249,38.698,1.073
		c0.094-1.528-3.517,0.649-2.688-1.611c2.546,0.216,3.695-0.963,6.449-0.538c1.249-3.035-2.382-1.198-2.149-3.224
		c4.417,1.015,5.463-1.343,8.061-2.147c-0.868-1.417-3.713,1.279-3.762-1.616c1.973,0,3.941,0,5.914,0
		c-0.709-1.798-6.043,1.027-5.914-1.612c2.62-0.244,6.299,0.562,8.065-0.537c-2.174-0.547-7.503,0.371-11.289,0
		c-0.025,1.64,1.938,1.29,1.614,3.223c-2.058,0.434-5.078,0.529-8.065,0.538c-2.445,0.009-6.036,0.886-6.985-1.073
		c2.511,0,5.018,0,7.523,0c-1.474-2.823-9.548,0.949-10.211-2.688c2.661,0.389,5.354,0.738,8.599,0.537
		c-0.129-1.662-4.424,0.84-3.764-1.613c8.661,0.061,17.302,0.101,24.726-1.074c-8.687,0.221-19.38,0.459-30.099,0
		c-1.301-0.055-3.816,0.951-4.3-1.073c12.695,0.413,24.588,0.794,36.011-1.074c-6.086-0.706-14.043,1.358-22.036,0.538
		c2.793-3.06,10.454-1.301,16.125-1.611c2.401-0.136,4.42-0.972,6.446-0.538c-3.429-1.094-8.599,0.161-13.972,0
		c-1.643-0.049-4.792,0.932-5.373-1.076c6.451-0.893,14.753,0.062,20.959-1.071c-4.454-0.151-13.146,0.106-19.35,0
		c-0.074-2.227,3.739-0.561,5.373-1.076c-1.133-1.374-3.965-1.05-6.449-1.072c0.462-2.764,7.155,0.704,6.987-2.688
		c6.742,0.651,11.206-0.978,17.198-1.073c-0.6-1.374-4.157,0.214-4.836-1.074c1.519-0.812,3.71-0.951,5.914-1.074
		c-1.568-0.831-7.19-1.115-6.452,2.148c-2.564-0.263-5.472,0.673-8.062,0.537c-1.853-0.096-4.635-0.057-5.373-1.611
		c4.122,0,8.242,0,12.362,0c-1.948-1.013-5.318-0.487-8.599-0.538c-2.64-0.041-6.52,0.919-7.525-1.073
		c2.825-0.271,8.284,0.616,6.987-2.148c6.165,0.25,11.57-0.256,17.2-0.538c-2.865-1.124-7.668,0.153-12.363,0
		c-1.684-0.052-4.521,0.901-4.837-1.075c2.866,0,5.736,0,8.601,0c-1.627-1.24-5.544-0.188-8.062-0.534
		c0.856-1.541,3.974-1.452,5.911-1.613c4.881-0.405,10.471,0.577,13.437-1.614c-1.387-1.002-4.434,0.916-6.985,0.538
		c1.032-2.015,4.658-1.435,6.985-2.152c-2.53-0.397-7.696,0.695-12.898,0.538c-1.691-0.05-4.895,0.914-5.376-1.073
		c6.701-0.107,13.31-0.309,18.812-1.612c-5.507-1.023-12.27,1.343-19.349,0.534c2.563-3.23,14.692-0.652,19.887-2.686
		c-2.651-1.046-6.622,0.472-10.214,0.537c-3.046,0.053-6.993,0.079-8.062-1.613c6.58,0.127,12.876-0.022,18.81-0.538
		c-6.281-1.08-14.386,0.665-22.035,0c-0.432-2.043,2.541-0.683,3.764-1.071c0.159-1.413-2.089-0.425-1.616-2.15
		c6.698-0.111,12.747-0.872,19.888-0.538c-4.037-1.454-9.48-0.413-15.584-0.535c-2.262-0.049-5.376,0.936-6.451-1.074
		c3.044,0,6.092,0,9.137,0c-0.905-1.782-5.507,0.129-5.914-2.149c6.449,0,12.899,0,19.351,0c-1.902-2.463-5.835-0.691-9.138-0.538
		c-3.485,0.161-6.906,0.203-9.672-0.538c1.188-1.553,4.207-0.416,6.449-0.538c3.219-0.171,8.415,0.267,12.36-0.533
		c-2.804-1.619-12.993,0.052-19.348-0.538c0.12-1.674,2.674-0.905,4.299-1.076c-0.063-1.184-2.28-0.228-3.221-0.534
		c3.914-3.49,13.038-0.59,18.27-1.613c-1.461-2.537-4.496-0.591-6.985-0.538c-3.949,0.083-8.526-0.42-12.362-0.536
		c6.19-3.003,13.762,0.531,19.348-1.611c-5.745-1.623-12.168,0.726-18.808,0c3.735-3.44,13.55,0.936,18.273-2.152
		c-2.398-2.064-15.078,0.875-19.352-0.536c1.205,0.398,1.419-1.104,4.837-0.537c4-1.529,11.217,0.33,14.511-0.536
		c-4.584-3.145-13.524-0.057-20.96-1.074c4.799-2.368,13.87-0.461,20.424-1.073c-1.019-1.621-3.991-1.553-5.915-1.614
		c-3.403-0.104-7.405,1.155-11.285,0.538c-1.115-0.323-3.529,0.663-3.764-0.538c1.258,0,2.509,0,3.764,0
		c4.593-1.142,11.206-0.258,16.66-0.538c-0.875-1.494-3.512-1.543-5.375-1.611c-4.204-0.154-9.693,1.227-14.509,0.537
		c1.26-2.26,4.685-0.88,7.523-1.074c4.011-0.273,7.09-1.501,11.822,0c0.512-1.942-2.116-0.748-3.221-1.076
		c0.485-1.126,3.033-0.19,3.221-1.611c-1.281-2.287-4.431,0.255-7.522-0.538c0.336,1.277,3.309-0.082,3.764,1.076
		c-4.766,1.325-12.311-0.128-17.2,1.073c0.507-1.464,2.714-1.229,4.302-1.611c-1.708-1.321-5.602-0.246-7.525,0
		c0.756-3.626,5.611,0.186,8.065-1.613c-0.192-2.14-4.903,0.245-4.838-2.149c3.906,0.871,6.408-0.073,10.749,0
		c0.861,2.114-2.32,0.186-2.15,1.613c3.5,1.109,7.79,1.109,11.287,0c-0.4-1.921-5.292,0.244-8.063-0.538
		c0.252-2.064,6.032,0.989,6.985-1.612c-6.08-0.521-15.404,0.355-23.107,0c5.489-2.39,15.322-0.444,22.574-1.073
		c-0.854-2.568-4.063-0.508-5.916-0.538c-5.29-0.087-13.064-0.222-18.81,0c6.259-2.915,16.183-0.246,23.649-1.612
		c-1.627-1.241-5.546-0.188-8.062-0.538c0.608-1.709,5.42,0.374,6.985-1.612c-6.793-1.147-13.541,1.797-20.96,0.537
		c5.796-1.191,13.043-0.932,19.349-1.612c-0.3-2.696-3.576-0.634-5.912-0.538c-3.702,0.152-8.763-0.116-12.364,0
		c-0.781-0.293-2.777,0.627-2.686-0.538c0.895,0,1.793,0,2.686,0c1.973,0,3.945,0,5.915,0c3.37-0.75,7.771-0.47,11.287-1.074
		c-0.531-2.953-4.404-0.713-6.987-0.538c-3.173,0.212-6.738-0.166-9.675,0c-1.612,0-3.222,0-4.835,0
		c5.322-1.841,14.005-0.327,19.883-1.613c-2.554-2.917-10.567,0.749-16.657-0.537c-0.895,0-1.791,0-2.688,0
		c-1.329,0.067-0.914-0.658,0-0.538c1.614,0,3.224,0,4.838,0c3.513-1.146,9.553,0.239,12.36-1.612
		c-20.807,1.14-44.434-0.493-65.57-2.149c-1.092,0.311-4.234-0.365-1.612-0.538c12.478-0.195,24.029,2.453,35.472,1.613
		c1.532-0.378-1.826-3.091-0.536-3.225c2.368-0.754,1.454,1.769,1.611,3.225c11.471,0.548,20.341,0.526,29.562,0
		c-1.288-3.413-5.568,0.721-9.675-0.538c0.759-2.109,5.098-0.635,7.524-1.075c-1.229-2.894-5.386-2.855-9.675-2.687
		c-1.306-0.998,3.543-0.363,4.838-0.538c0.083-2.846-2.415-0.325-4.838-1.075c-1.64-0.831,2.331-0.472,3.224-0.538
		c-1.802-2.992-6.911,0.664-11.822-0.537c1.38,1.487,6.105-0.374,7.522,1.075c-5.34,1.417-9.268-0.042-13.972,0.538
		c-1.258,0.154-0.997,1.236-2.15,1.612c-0.383,0.126-0.516-1.075-1.075-1.075c-0.543,0-0.416,0.994-1.072,1.075
		c-1.329,0.162-3.188,0.079-4.837,0c-0.759-0.036-3.546,0.918-3.762-1.075c2.327,0,4.658,0,6.985,0
		c-3.583-0.898-8.302-0.654-12.363-1.075c3.739-2.543,7.407,0.252,12.9-0.538c-0.57-2.521-3.905-0.788-4.302-1.074
		c-1.922-4.03,5.641-2.863,6.987-5.375c3.587,0.649,7.622-1.278,9.138,0.538c-0.979-3.115-7.727-0.004-11.823-1.072
		c1.17-1.696,4.776-0.959,4.3-4.3c11.866,3.359,20.575,9.879,29.559,16.123c0.77,2.637,2.821,3.989,4.838,5.375
		c6.499,10.773,10.654,19.833,9.675,37.087c-0.619,10.878-4.041,20.443-8.604,28.484c-1.57,2.771-3.591,6.004-5.371,8.063
		c-5.152,5.962-10.033,9.835-15.586,13.437c-7.035,4.562-17.856,6.814-27.411,9.673c0.17,1.249-0.086,2.062-0.536,2.688
		c2.975,0.966,4.676,3.203,6.447,5.371c-1.308,4.015-0.088,5.498,0,8.065c-2.386-0.118-1.441-3.578-3.222-4.3
		c-0.291-1.907,1.905-1.325,1.612-3.224c-0.434-2.791-3.301-3.149-5.371-4.302c0.857,3.924,2.928,6.567,1.611,11.287
		c-1.754,0.14-1.14-2.087-2.688-2.15c-0.14-1.751,1.673-1.55,2.149-2.688c-0.352-3.311-3.302-3.455-5.374-3.762
		c0.376-2.312,0.69-4.688,1.613-6.449c-0.746-1.227-3.742-0.203-5.375-0.538c0.746,1.228,3.95-0.009,3.225,2.688
		c-0.249,0.713-0.256,1.423-2.688,1.071c-1.194,2.437,0.291,1.811,1.075,3.766c0.34,0.845-0.822,1.207-0.537,2.147
		c0.069,0.226,1.614,0.923,1.612,1.076c-0.013,1.316-1.162,0.177-1.612,1.071c-0.735,1.461,0.417,2.507-0.538,3.764
		c-0.253,2.212,1.446-0.518,1.613,1.612c-3.062,2.935-2.11,7.886-3.225,11.824c0.244,2.264,2.438,2.574,3.761,3.764
		c0.616-2.61-1.423-3.87-1.612-5.913c-0.542-5.856,4.15-10.961,2.687-18.812c3.959,3.635,0.117,11.895-1.075,15.588
		c1.541,4.103,6.806,3.727,9.138,6.985c1.686,2.357,0.52,5.017,3.223,6.987c-0.078,1.174-1.354,1.157-2.686,1.073
		c-1.078,6.811,3.012,8.455,4.834,12.363c4.583-0.457,6.781,1.461,8.064,4.302c-3.612-0.689-4.447-4.151-9.137-3.764
		c-1.237-1.083-1.396-3.652-3.224-5.373c-1.286-0.215,0.298,2.449-1.613,1.613c-2.108-4.286,0.196-10.55-2.15-14.513
		c-1.242-2.099-3.204-1.998-5.374-3.761c-0.109,3.407,1.368,6.344,3.763,8.599c-0.582,5.784,4.406,8.136,2.149,15.051
		c-0.533,1.634-2.218,2.252-2.688,3.762c-1.473,4.732,1.382,9.114,1.076,13.437c-0.263,3.685-5.22,8.367,1.611,9.137
		c-0.372,1.684-1.437,0.7-2.688,0.538c0.15,2.537,4.496,0.879,3.762,4.3c-3.613-0.688-5.546-3.054-5.912-6.99
		c-0.466-1.588-0.804,1.249-2.15,0.538c0.177-1.255,0.647-2.218,1.075-3.224c-3.852-0.446-2.06,4.746-5.913,4.302
		c0.837-3.718,6.998-4.728,4.837-9.675c-2.624,2.102-4.671,7.416-8.599,6.449c3.218-3.646,8.59-5.957,7.524-12.36
		c-0.455-1.577-1.731,0.319-2.688,0c-0.149-1.944,2.354-1.229,3.226-2.152c0.801-1.636-0.177-2.091,0.537-3.224
		c1.279,0.573,4.715-4.553,4.838-6.984c0.228-4.566-5.191-7.536-7.524-12.901c-1.662-3.82-0.708-7.14-3.763-8.599
		c1.191-6.769,4.118-14.41,3.225-21.5c-1.854,1.316,1.053,4.203-0.538,5.373c-2.474-0.032,0.283-5.299-3.225-4.299
		c0.44-0.392,1.442-3.721-0.537-3.227c0.562-1.885,2.004-3.487,1.075-5.371c-11.513-5.412-22.791-8.817-31.172-17.202
		c-4.712-4.708-7.85-10.585-12.9-15.048c-0.273-2.592-0.929-4.805-2.687-5.912c-2.227-7.807-2.508-17.561-3.763-26.339
		c2.801-10.073,3.959-19.345,8.062-27.409c7.648-15.032,23.848-24.233,44.071-27.411c0.726-2.543-1.122-5.289-0.537-5.912
		c2.329-0.18,3.316,6.115,1.075,6.987c3.366,1.673,7.578-0.031,10.749,1.075c-7.041,1.252-13.7-0.432-20.422,1.075
		c4.248,3.834,13.437-0.23,17.198,3.225c-7.242,1.683-17.873-0.752-23.11-1.075c1.4,1.976,6.103,1.128,6.987,2.15
		C42.804,61.595,38.607,60.271,37.283,58.895z M74.369,60.506c1.679,0.177,2.07,1.03,2.686,1.075
		c-0.63-0.047-1.63-1.575-0.538-1.613c0.21-0.007,2.83,3.888,2.151,1.076c-0.42-0.121-1.062-0.016-1.075-0.538
		c-0.003-0.54,0.435-0.641,0.537-1.075C75.792,59.904,75.156,58.966,74.369,60.506z M80.28,55.669
		C76.838,55.049,79.102,57.312,80.28,55.669L80.28,55.669z M43.732,57.282c-1.293,0.22-1.167-0.98-2.687-0.537
		C40.836,58.411,43.634,58.932,43.732,57.282z M87.806,59.432C85.632,57.541,86.537,61.161,87.806,59.432L87.806,59.432z
		 M88.344,61.582c0.778-0.293,2.777,0.626,2.686-0.537C90.345,60.312,88.396,60.213,88.344,61.582z M89.417,63.194
		c1.253,0,2.509,0,3.762,0C93.304,60.932,89.856,62.63,89.417,63.194z M77.055,64.269c-0.127-2.463-1.496,1.377-2.147-1.075
		c-0.132,0.765-0.886,0.906-1.074,1.612c2.163-0.345,5.715,0.699,6.987-0.537c-3.698-0.585,2.434-1.25,0.533-1.613
		c-1.253,0-2.506,0-3.761,0C77.509,63.291,77.685,64.182,77.055,64.269z M86.729,62.656c-0.783,0.293-2.777-0.626-2.688,0.538
		C84.822,62.9,86.819,63.821,86.729,62.656z M108.765,89.53C102.211,88.905,104.124,91.122,108.765,89.53L108.765,89.53z
		 M119.516,106.729c-2.357-0.919-7.577,0.463-9.137,0.537C112.443,107.735,118.342,108.793,119.516,106.729z M108.765,107.266
		C104.743,106.62,107.033,108.912,108.765,107.266L108.765,107.266z M118.978,112.642c-2.875,0.348-7.155-0.704-9.137,0.536
		C112.715,112.831,116.997,113.884,118.978,112.642z M108.765,113.178C105.322,112.559,107.584,114.82,108.765,113.178
		L108.765,113.178z M118.44,116.942c-3.871,0.214-6.938-1.312-9.676,0.535C111.533,117.186,118.331,118.101,118.44,116.942z
		 M108.765,129.84c2.601-0.267,6.493,0.757,7.525-1.076C113.705,128.708,108.778,129.11,108.765,129.84z M103.39,133.064
		c-3.363,0.435-2.872,0.319,0,0.538c3.744,0.284,9.587-0.261,10.751-1.076C109.574,133.029,105.248,132.823,103.39,133.064z
		 M101.242,140.051c2.449-0.61,8.043-0.284,10.748-2.15C108.914,139.124,103.256,137.766,101.242,140.051z M105.003,140.586
		c-2.797,0.608,6.01,1.273,5.912-0.535C108.699,139.983,107.549,140.985,105.003,140.586z M14.172,142.739
		c-0.688-0.026-0.746-0.691-1.613-0.538C14.083,144.497,19.318,142.94,14.172,142.739z M30.833,159.399
		c-3.68-0.226,8.729,3.473,9.137,1.076C37.366,160.142,31.263,159.425,30.833,159.399z M35.671,163.699
		c4.039-4.204,10.868,3.805,12.898-1.612c-4.214,0.932-10.487-1.036-15.048,0.538C34.473,162.75,36.212,162.083,35.671,163.699z
		 M55.557,162.625c-1.113,0.321-3.532-0.665-3.763,0.536C52.907,162.841,55.326,163.825,55.557,162.625z M56.632,163.699
		c5.402,0.271,10.542-0.058,15.585,0c2.198,0.026,5.428-0.96,6.985,1.075c-3.85-0.445-6.559,0.245-8.062,2.15
		c2.922,1.179,4.571-0.353,6.449-1.612c4.319,0.552,5.833-1.692,9.138-2.151C77.238,163.489,63.154,162.491,56.632,163.699z
		 M39.433,165.312c0.341,0.158,3.039,1.921,3.763,0C40.669,165.291,37.366,164.337,39.433,165.312z M59.319,167.459
		c0.071-1.539,3.688,0.464,3.761-1.071c-2.478-0.03-5.254,0.236-6.989-0.538C55.6,167.957,58.929,166.24,59.319,167.459z
		 M48.033,166.924c-1.116,0.321-3.532-0.665-3.763,0.535C45.383,167.145,47.802,168.126,48.033,166.924z M49.645,169.074
		c4.051,1.953,11.701,2.179,15.049,0c0.783-0.293,2.778,0.626,2.686-0.538c-1.073,0-2.147,0-3.224,0
		c-1.557,1.854-8.549,1.111-10.211,1.076c-1.104-2.23,4.679-0.271,2.688-1.614C53.917,167.971,51.467,168.208,49.645,169.074z
		 M61.47,176.597c0.398-0.724,1.194-3.753,0.536-3.762C61.726,173.684,59.937,175.717,61.47,176.597z M53.407,177.135
		c0.145-0.73-0.334-2.098-0.538-1.072C52.721,176.793,53.203,178.159,53.407,177.135z M64.693,202.934
		c-0.728-2.497-4.149-2.299-5.912-3.764C59.641,201.537,62.741,201.664,64.693,202.934z M66.844,206.698
		c-0.238-1.373-0.755-2.476-1.612-3.224C65.47,204.848,65.984,205.944,66.844,206.698z M64.155,221.744
		c0.541-6.026-4.485-7.107-3.761-11.822c-0.052,0.845,0.071,1.863-1.075,1.612c-0.179-3.227-1.44-5.369-3.763-6.449
		C57.315,211.75,62.1,215.38,64.155,221.744z M59.856,242.17c-0.071,0.704-0.081,3.888,0.538,2.147
		c-0.22-5.122-1.303-9.876-1.075-13.971C57.456,233.518,58.132,239.471,59.856,242.17z"/>
	<path style="fill:#204638;opacity:1;stroke:#204638;stroke-width:0.5" d="M71.143,74.481c-0.015,0.521-0.658,0.416-1.073,0.537c-1-0.073-1.798-0.354-2.152-1.075
		c-5.682,0.312-10.369-0.376-15.583-0.538C55.813,72.067,66.426,72.999,71.143,74.481z"/>
	<path style="fill:#204638;opacity:1;stroke:#204638;stroke-width:0.5" d="M62.544,121.777c0.219-1.087,3.899,0.007,6.449-0.536C68.239,123.949,64.688,121.158,62.544,121.777z"/>
	<path style="fill:#204638;opacity:1;stroke:#204638;stroke-width:0.5" d="M65.231,132.526c0.644-0.752,0.208-0.046,0,0.538c-0.48-0.328-0.962-0.649-1.076,0
		C62.879,132.764,64.751,131.448,65.231,132.526z"/>
	<path style="fill:#204638;opacity:1;stroke:#204638;stroke-width:0.5" d="M85.653,158.325c-13.297-1.592-23.309-0.5-36.546-1.073c3.292-3.245,12.087,1.817,15.586-1.614
		c3.068-0.024,5.886,0.206,8.062,1.076c1.242,0.162,0.6-1.553,1.614-1.614c5.373,0,10.751,0,16.122,0
		c0.431,2.043-2.542,0.683-3.762,1.074c-0.18,0.706-0.411,1.765-1.076,3.221c-2.147,0-4.3,0-6.447,0
		c0.009,1.605,3.982-0.756,3.224,1.614c-2.655-0.039-6.019,0.048-9.137,0c-2.696-0.044-6.338,0.928-7.523-1.073
		c3.941,0,7.884,0,11.823,0c-2.159-1.245-6.622-0.187-9.676-0.536c1.309-1.981,5.203-1.061,8.065-1.074
		c3.017-0.02,6.082,0.014,8.6,0C84.938,158.325,85.295,158.325,85.653,158.325z M81.354,156.175
		c-1.809,0.337-4.99-0.695-5.911,0.538C77.251,156.373,80.436,157.405,81.354,156.175z"/>
	<path style="fill:#204638;opacity:1;stroke:#204638;stroke-width:0.5" d="M70.605,226.582c-0.965-0.065-1.133,0.66-2.15,0.538c-0.3-1.312-2.079-1.146-1.611-3.224
		c1.83-0.39,4.337,2.694,7.525,2.686c-3.301,0.363-0.515,3.014-2.152,3.226C72.241,228.173,71.084,227.714,70.605,226.582z"/>
</g>
</svg>
