<?xml version="1.0" encoding="utf-8"?>
<!-- Generator: Adobe Illustrator 21.1.0, SVG Export Plug-In . SVG Version: 6.00 Build 0)  -->
<svg version="1.1" id="Lager_1" xmlns="http://www.w3.org/2000/svg" xmlns:xlink="http://www.w3.org/1999/xlink" x="0px" y="0px"
	 viewBox="0 0 595.3 841.9" style="enable-background:new 0 0 595.3 841.9;" xml:space="preserve">
<style type="text/css">
	.st0{fill:#FFFFFF;}
	.st1{font-family:'Arial';}
	.st2{font-size:65.6338px;}
	.st3{fill:#82C073;}
	.st4{fill:#2B5224;}
	.st5{fill:url(#SVGID_1_);stroke:url(#SVGID_2_);stroke-width:0.25;stroke-miterlimit:10;}
</style>
<text transform="matrix(1.0885 0 0 1 137.6556 421.0488)" class="st0 st1 st2">Lokal</text>
<g>
	<text transform="matrix(1.0885 0 0 1 297.64 421.0488)" class="st0 st1 st2">Bonden</text>
</g>
<path class="st3" d="M95.8,420.8l-11.6-6.1c-1-0.5-1.3-1.7-0.8-2.6l38.3-73.6c0.5-1,1.7-1.3,2.6-0.8l11.6,6.1c1,0.5,1.3,1.7,0.8,2.6
	L98.4,420C97.9,421,96.8,421.3,95.8,420.8z"/>
<path class="st4" d="M109.3,370.1l12,1.6c0.8,0.1,1.5-0.4,1.6-1.2l4.4-32.7c0.1-0.8-0.4-1.5-1.2-1.6l-12-1.6
	c-0.8-0.1-1.5,0.4-1.6,1.2l-4.4,32.7C107.9,369.2,108.5,370,109.3,370.1z"/>
<path class="st4" d="M112.3,363.9l8.2,9c0.5,0.6,1.5,0.6,2,0.1l22.4-20.4c0.6-0.5,0.6-1.5,0.1-2l-8.2-9c-0.5-0.6-1.5-0.6-2-0.1
	l-22.4,20.4C111.8,362.4,111.8,363.3,112.3,363.9z"/>
<path class="st4" d="M110.8,359.4c-10.6,20.3-10.6,20.3-10.6,20.3l11.4,15.1l12-23L110.8,359.4z"/>
<linearGradient id="SVGID_1_" gradientUnits="userSpaceOnUse" x1="176.0383" y1="554.8964" x2="176.0383" y2="554.8964" gradientTransform="matrix(0.8855 0.4647 -0.4647 0.8855 214.5086 -194.1634)">
	<stop  offset="0.7004" style="stop-color:#2B5224"/>
	<stop  offset="1" style="stop-color:#309F37"/>
</linearGradient>
<linearGradient id="SVGID_2_" gradientUnits="userSpaceOnUse" x1="176.0383" y1="554.8964" x2="176.0383" y2="554.8964" gradientTransform="matrix(0.8855 0.4647 -0.4647 0.8855 214.5086 -194.1634)">
	<stop  offset="0.7004" style="stop-color:#2B5224"/>
	<stop  offset="1" style="stop-color:#309F37"/>
</linearGradient>
<path class="st5" d="M112.6,379"/>
</svg>
