<?xml version="1.0" encoding="utf-8"?>
<!-- Generator: Adobe Illustrator 16.0.0, SVG Export Plug-In . SVG Version: 6.00 Build 0)  -->
<!DOCTYPE svg PUBLIC "-//W3C//DTD SVG 1.1//EN" "http://www.w3.org/Graphics/SVG/1.1/DTD/svg11.dtd">
<svg version="1.1" id="Layer_1" xmlns="http://www.w3.org/2000/svg" xmlns:xlink="http://www.w3.org/1999/xlink" x="0px" y="0px"
	 width="1160px" height="366px" viewBox="0 0 1160 366" enable-background="new 0 0 1160 366" xml:space="preserve">
<g>
	<g opacity="0.5">
		<path fill="#294437" stroke="#294437" stroke-width="0.75" stroke-miterlimit="10" d="M367.995,197.98v8.072v1.242
			c0.621,14.279,1.242,36.013,1.242,64.573v6.209h18.627c3.726,2.483,5.589,4.968,5.589,6.83s-0.621,3.727-1.863,5.589
			s-2.482,1.862-3.726,1.862c-1.241,0-2.483,0-4.347-0.621c-1.862,0-3.104,0-4.968,0h-8.071c-1.862,1.862-3.726,3.104-6.21,3.104
			c-2.482,0-4.967-0.621-6.209-2.483c-1.24-1.862-2.482-3.104-2.482-5.589l1.862-11.176c0-18.628-0.62-47.189-2.483-84.444
			c-1.862-37.254-2.483-65.815-2.483-84.442c0-1.242,0.621-2.483,1.863-3.726c1.241-1.241,2.483-1.241,4.346-1.241
			c1.863,0,3.727,0.621,4.969,1.862c1.24,1.242,2.482,3.104,2.482,4.968L367.995,197.98z"/>
		<path fill="#294437" stroke="#294437" stroke-width="0.75" stroke-miterlimit="10" d="M467.341,216.608l-1.862,31.666v1.242
			c-1.241,4.346-1.862,9.313-1.862,14.901s-0.621,10.556-2.483,15.521c-1.862,4.968-4.968,9.314-8.691,13.039
			c-3.727,3.727-8.072,5.589-12.419,5.589s-8.692-1.242-12.419-4.347c-3.726-3.105-6.829-6.83-9.312-11.797
			c-2.483-4.968-4.347-10.557-6.209-17.387c-1.863-6.829-3.104-13.038-4.347-19.247c-1.241-6.209-1.862-13.039-2.483-19.869
			c-1.242-10.557-1.242-19.248-1.242-24.837c0-5.588,0-11.177,0-15.522s0-8.071,0-11.176c0-1.863,0-3.727,0-5.589s0-4.347,0-6.83
			c0-4.967,0-9.313,0.621-13.039c0.621-3.727,0.621-8.071,1.242-12.418s1.241-8.071,1.862-11.797
			c0.621-3.727,1.862-6.83,3.104-9.936c1.242-3.104,3.104-6.209,4.968-8.071c4.347-4.968,8.692-6.831,13.66-6.831
			c4.967,0,9.936,1.242,13.659,3.105c3.726,1.862,6.83,4.967,9.314,9.313c2.482,4.347,4.967,8.071,6.829,12.419
			c1.862,4.346,3.104,9.312,4.347,16.765c1.242,7.45,1.862,13.039,2.482,17.385c0.621,4.348,1.242,10.557,1.242,19.248
			c0.621,11.178,0.621,19.869,0.621,26.078v12.419L467.341,216.608L467.341,216.608z M445.609,125.955
			c-1.863-4.347-3.727-7.45-6.209-9.936c-2.484-2.483-4.969-3.726-7.451-3.726c-2.483,0-4.348,0.621-6.209,2.483
			c-1.863,1.862-3.104,4.347-3.727,7.45c-0.622,3.104-1.862,6.21-3.104,9.935c-1.242,3.727-1.242,7.451-1.863,12.42
			c-0.62,4.967-0.62,8.691-1.241,12.418c0,3.726-0.62,8.07-0.62,12.418c0,7.45,0,13.659-0.621,17.386v1.241
			c0,11.177,0.621,22.974,2.482,36.013c1.863,13.039,3.727,23.595,4.968,31.667c1.242,8.071,4.348,14.901,7.451,20.489
			c3.104,5.589,6.209,8.692,10.556,8.692c3.104,0,6.21-3.104,8.071-9.312c2.483-6.209,3.727-14.281,4.969-23.595
			c1.861-16.766,2.482-27.941,2.482-34.771c0-6.829,0-11.797,0-14.901c0-3.104,0-7.45-0.621-13.659s-0.621-11.177-1.242-16.766
			c-0.619-5.588-1.24-10.555-1.861-16.765c-0.621-6.209-1.863-11.797-3.104-16.766C447.472,133.406,446.851,130.302,445.609,125.955
			L445.609,125.955z"/>
		<path fill="#294437" stroke="#294437" stroke-width="0.75" stroke-miterlimit="10" d="M487.21,211.641l0.621-47.188
			c0-8.071-0.621-18.007-1.863-28.562c-1.241-10.556-1.861-18.006-1.861-21.11c0-3.104,0.62-5.589,1.861-7.45
			c1.242-1.863,3.104-2.484,4.968-2.484c6.209,0,9.313,6.831,9.313,19.87c0,0-0.621,17.385-1.242,50.914
			c0.621-1.241,1.863-5.588,4.968-12.418c2.483-6.83,4.968-13.66,8.072-20.49s5.588-13.66,8.692-21.11
			c6.83-16.144,12.418-24.216,15.521-24.216c1.863,0,3.727,0.621,4.969,1.863c1.24,1.241,1.861,2.483,1.861,4.346
			c0,1.863-4.347,11.798-13.66,31.046c-9.312,19.248-14.279,31.045-15.521,36.014v4.346c2.483,6.209,9.312,26.078,19.869,60.229
			c10.556,34.151,16.144,52.156,16.144,54.021c0,1.861-0.621,3.725-2.482,4.967c-1.863,1.242-3.727,1.862-5.589,1.862l-5.589-1.241
			c-4.347-23.595-8.691-44.085-13.039-61.47c-4.347-17.387-10.556-34.15-17.386-50.294c-4.967,8.691-7.45,14.279-7.45,16.144
			c-0.62,4.967-0.62,8.692-0.62,11.797l1.861,45.947v22.354c0,8.692-3.104,13.039-8.691,13.039c-4.969,0-7.451-4.347-7.451-12.419
			c0-8.07,0.621-19.869,1.862-34.771C486.589,230.268,487.21,219.092,487.21,211.641L487.21,211.641z"/>
		<path fill="#294437" stroke="#294437" stroke-width="0.75" stroke-miterlimit="10" d="M618.222,291.738
			c-4.967,0-7.45-1.862-7.45-6.209v-32.287c-2.483-1.862-6.829-3.104-12.419-4.347c-5.588-1.242-11.797-1.863-16.144-2.483
			c-1.862,3.104-3.104,6.829-4.346,12.418s-2.484,11.177-3.105,16.766c-0.62,5.588-2.482,9.935-4.967,13.039
			c-6.209,0-9.935-1.863-11.177-4.968c2.483-3.104,6.209-19.869,11.177-49.674c4.967-29.804,9.312-53.396,12.418-70.161
			c3.105-16.766,6.83-31.047,10.556-42.223c3.727-11.177,7.451-17.386,11.178-17.386c3.725,0,6.209,0.621,8.07,2.483
			c0,6.209,1.862,21.731,4.969,47.811c3.104,26.078,4.967,42.842,4.967,50.293s0.621,20.49,2.482,37.876
			c1.863,17.385,2.484,31.045,2.484,39.738C626.915,288.634,623.811,291.738,618.222,291.738L618.222,291.738z M608.287,210.399
			c-1.241-14.901-2.483-28.562-3.727-42.223c-1.24-13.659-1.861-21.11-1.861-24.215c0-3.105,0-4.348,0-4.969
			c-2.483,2.484-6.209,17.387-11.178,44.706c-4.967,27.319-7.449,44.084-8.07,51.535c6.83,1.862,12.418,2.483,17.385,2.483
			c4.968,0,8.072,0,9.936-0.621C610.15,233.993,609.529,225.301,608.287,210.399L608.287,210.399z"/>
		<path fill="#294437" stroke="#294437" stroke-width="0.75" stroke-miterlimit="10" d="M657.339,197.98v8.072v1.242
			c0.621,14.279,1.242,36.013,1.242,64.573v6.209h18.627c3.726,2.483,5.589,4.968,5.589,6.83s-0.621,3.727-1.863,5.589
			c-1.241,1.862-2.482,1.862-3.726,1.862c-1.241,0-2.483,0-4.347-0.621c-1.241,0.621-3.104,0.621-4.967,0.621l-8.072-0.621
			c-1.862,1.862-3.726,3.104-6.209,3.104s-4.967-0.621-6.209-2.483c-1.241-1.862-2.483-3.104-2.483-5.589l1.862-11.176
			c0-18.628-0.62-47.189-2.483-84.444c-1.861-37.254-2.482-65.815-2.482-84.442c0-1.242,0.621-2.483,1.861-3.726
			c1.242-1.241,2.484-1.241,4.348-1.241c1.862,0,3.726,0.621,4.967,1.862c1.242,1.242,2.483,3.104,2.483,4.968L657.339,197.98z"/>
		<path fill="#294437" stroke="#294437" stroke-width="0.75" stroke-miterlimit="10" d="M697.077,226.543l-1.862-101.209v-1.241
			c0-8.692,1.241-14.281,4.346-16.766c1.242-1.241,3.104-1.862,4.969-1.862c11.797,0,21.109,3.725,27.939,11.176
			s9.936,17.386,9.936,29.183c0,7.451-1.862,15.523-6.209,23.596c-3.727,8.071-8.692,14.28-14.28,18.007
			c9.935,6.829,17.385,15.521,21.731,26.078c4.347,10.555,6.209,21.73,6.209,32.907c0,6.209-1.241,12.418-4.348,18.628
			c-3.104,6.209-6.209,11.176-9.312,15.521c-3.104,4.346-6.83,6.83-11.797,9.313c-4.969,2.483-10.557,3.726-16.145,3.726h-1.242
			c-7.451,0-11.797-1.862-11.797-6.209L697.077,226.543z M711.979,119.125c-2.482,0-3.725,3.104-3.725,8.692
			c0,5.588,0,15.522,0.621,27.94c0.62,12.418,0.62,21.731,0.62,27.94c4.347-1.241,8.072-4.347,11.177-10.556
			c2.483-4.968,4.346-9.935,6.209-14.902c1.863-4.967,2.483-8.07,3.104-8.691v-8.692c0-4.968-1.862-9.312-5.589-14.281
			C720.672,121.609,716.946,119.125,711.979,119.125L711.979,119.125z M729.985,269.386c4.968-6.21,6.829-13.66,6.829-21.732
			c0-8.07-0.62-15.521-1.861-21.73c-1.242-6.209-3.105-11.177-4.348-14.281c-1.241-3.104-3.726-6.209-5.588-8.071
			c-2.483-2.483-4.968-4.347-6.83-4.968h-8.692c0.621,22.974,1.242,50.294,1.242,82.581
			C718.809,279.32,725.639,275.595,729.985,269.386L729.985,269.386z"/>
		<path fill="#294437" stroke="#294437" stroke-width="0.75" stroke-miterlimit="10" d="M826.848,216.608l-2.483,31.666v1.242
			c-1.241,4.346-1.862,9.313-1.862,14.901s-0.621,10.556-2.482,15.521c-1.863,4.968-4.969,9.314-8.693,13.039
			c-3.725,3.727-8.071,5.589-12.418,5.589c-4.346,0-8.692-1.242-12.418-4.347c-3.727-3.105-6.83-6.83-9.313-11.797
			c-2.482-4.968-4.347-10.557-6.209-17.387c-1.862-6.829-3.104-13.038-4.347-19.247s-1.863-13.039-2.483-19.869
			c-1.241-10.557-1.241-19.248-1.241-24.837c0-5.588,0-11.177,0-15.522s0-8.071,0-11.176c0-1.863,0-3.727,0-5.589s0-4.347,0-6.83
			c0-4.967,0-9.313,0.621-13.039c0.62-3.727,0.62-8.071,1.241-12.418c0.62-4.347,1.241-8.071,1.862-11.797
			c0.621-3.727,1.863-6.83,3.104-9.936c1.242-3.104,3.104-6.209,4.969-8.071c4.346-4.968,8.691-6.831,13.66-6.831
			c4.967,0,9.934,1.242,13.658,3.105c3.727,1.862,6.83,4.967,9.313,9.313s4.968,8.071,6.83,12.419
			c1.862,4.346,3.104,9.312,4.347,16.765c1.242,7.45,1.862,13.039,2.483,17.385c0.62,4.348,1.241,10.557,1.241,19.248
			c0.621,11.178,0.621,19.869,0.621,26.078V216.608L826.848,216.608z M804.494,125.955c-1.862-4.347-3.727-7.45-6.209-9.936
			c-2.483-2.483-4.967-3.726-7.451-3.726c-2.482,0-4.346,0.621-6.209,2.483c-1.862,1.862-3.104,4.347-3.725,7.45
			c-0.621,3.104-1.863,6.21-3.105,9.935c-1.241,3.727-1.241,7.451-1.861,12.42c-0.621,4.967-0.621,8.691-1.242,12.418
			c0,3.726-0.62,8.07-0.62,12.418c0,7.45,0,13.659-0.621,17.386v1.241c0,11.177,0.621,22.974,2.483,36.013
			c1.861,13.039,3.726,23.595,4.967,31.667c1.242,8.071,4.347,14.901,7.451,20.489c3.104,5.589,6.209,8.692,10.556,8.692
			c3.104,0,6.209-3.104,8.072-9.312c2.482-6.209,3.725-14.281,4.967-23.595c1.862-16.766,2.482-27.941,2.482-34.771
			c0-6.829,0-11.797,0-14.901c0-3.104,0-7.45-0.62-13.659s-0.62-11.177-1.241-16.766c-0.621-5.588-1.242-10.555-1.863-16.765
			c-0.621-6.209-1.862-11.797-3.104-16.766C806.357,133.406,806.357,130.302,804.494,125.955L804.494,125.955z"/>
		<path fill="#294437" stroke="#294437" stroke-width="0.75" stroke-miterlimit="10" d="M842.991,161.348l1.862-45.327v-1.862
			c0-8.071,1.862-12.418,5.588-12.418c3.104,0,7.451,7.451,13.039,22.975c9.936,27.939,22.354,73.888,36.634,137.842v1.241
			l1.241-86.307v-73.268c1.241-4.347,3.727-6.209,8.071-6.209c4.347,0,6.83,3.104,6.83,9.935v1.241
			c-1.241,1.863-1.241,4.347-1.241,7.451l-1.862,91.895v75.751c0,2.483-0.62,4.969-1.862,7.451
			c-1.242,2.483-3.104,3.727-4.968,3.727c-3.727,0-10.557-16.766-20.489-50.915c-9.936-34.149-20.49-70.783-30.425-110.521v81.339
			c0,8.072,0.621,19.869,1.862,35.393c1.241,15.522,1.862,27.319,1.862,35.393c0,1.241-0.621,3.104-2.483,3.726
			c-1.862,0.62-4.347,1.862-7.45,1.862c-3.104,0-4.347-1.242-4.347-3.726l1.241-18.007c0-8.692-0.621-22.354-1.862-41.602
			s-1.862-31.045-1.862-35.392v-31.666L842.991,161.348L842.991,161.348z"/>
		<path fill="#294437" stroke="#294437" stroke-width="0.75" stroke-miterlimit="10" d="M995.734,200.465l0.621,4.967
			c0,11.797-3.104,25.457-9.313,41.601c-6.83,18.008-15.522,31.046-25.457,38.497c-5.589,4.347-11.177,6.83-16.765,6.83
			c-3.104,0-5.588-0.621-8.072-1.863c-2.483-1.24-3.727-3.726-3.727-6.209c3.727-3.726,5.59-13.659,5.59-29.183
			c0-9.312-0.621-22.974-2.484-40.979c-1.862-18.007-2.483-31.666-2.483-40.979l0.621-27.32c0-4.346-0.621-10.556-2.482-17.385
			c-1.863-6.83-2.484-12.419-2.484-15.522c0-5.589,6.21-8.692,19.249-8.692h3.726c16.765,0,29.184,9.312,36.634,28.562
			c5.589,13.039,8.071,31.667,8.071,54.642v11.797C995.734,198.602,995.734,199.223,995.734,200.465L995.734,200.465z
			 M949.787,253.862v23.596c6.209-4.348,11.798-9.936,16.144-16.766c4.348-6.83,8.072-14.9,10.557-23.595
			c4.347-16.145,6.83-32.908,6.83-49.052c0-18.627-2.483-33.528-6.83-44.084c-4.968-11.178-10.557-18.628-18.006-22.354
			c-4.348-2.483-9.314-3.104-14.902-3.104c0,14.901,1.242,37.255,3.104,67.68S949.787,238.961,949.787,253.862z"/>
		<path fill="#294437" stroke="#294437" stroke-width="0.75" stroke-miterlimit="10" d="M1039.198,200.465h-6.209
			c-2.483,0-4.348,0.62-4.968,1.861v76.372c8.692-0.621,13.038-0.621,13.659-0.621c9.313,0,14.281,2.483,14.281,6.83v0.621
			c-1.242,2.483-3.104,3.726-5.588,4.967c-2.484,1.242-4.968,1.863-7.451,1.863s-4.968,0-8.072,0h-7.449
			c-6.21,0-9.936-1.242-11.178-3.726c-0.62-1.242-1.241-2.484-1.241-4.348v-143.43c0-3.104-0.621-6.83-1.862-12.419
			c-1.242-5.588-1.862-9.935-1.862-13.039v-0.62c2.483-4.347,4.967-7.451,6.209-8.692l18.627-2.483c2.483,0,4.967,0.621,7.451,2.483
			c2.483,1.862,3.725,3.726,3.725,5.589c0,4.967-3.725,7.45-11.176,7.45h-7.451c-1.24,0-1.861,0-2.482,0l1.861,40.979
			c0,3.104,0,8.071-0.619,14.281c-0.621,6.209-0.621,11.176-0.621,13.659c0.621,0,1.861-0.62,3.726-0.62
			c3.104-0.621,6.209-1.242,8.071-1.242c1.863,0,3.726,0.621,4.968,1.862c1.241,1.241,2.483,3.104,2.483,4.968
			c0,1.862-0.621,3.726-1.862,4.967C1042.924,199.223,1041.061,200.465,1039.198,200.465z"/>
		<path fill="#294437" stroke="#294437" stroke-width="0.75" stroke-miterlimit="10" d="M1067.139,161.348l1.863-45.327v-1.862
			c0-8.071,1.862-12.418,5.588-12.418c3.104,0,7.451,7.451,13.039,22.975c9.936,27.939,22.354,73.888,36.634,137.842v1.241
			l1.242-86.307v-73.268c1.241-4.347,3.726-6.209,8.071-6.209c4.347,0,6.83,3.104,6.83,9.935v1.241
			c-1.242,1.863-1.242,4.347-1.242,7.451l-1.862,91.895v75.751c0,2.483-0.621,4.969-1.862,7.451
			c-1.241,2.483-3.104,3.727-4.968,3.727c-3.726,0-10.556-16.766-20.489-50.915c-9.936-34.149-19.869-70.783-29.805-109.9v81.339
			c0,8.071,0.621,19.869,1.863,35.393c1.242,15.522,1.862,27.319,1.862,35.392c0,1.242-0.62,3.104-2.483,3.726
			c-1.862,0.621-4.346,1.242-6.83,1.242c-2.482,0-4.346-1.242-4.346-3.726l1.241-18.007c0-8.692-0.621-22.354-1.862-41.602
			c-1.242-19.248-1.863-31.045-1.863-35.392v-31.666L1067.139,161.348L1067.139,161.348z"/>
	</g>
	<g>
		<path fill="#FFFFFF" stroke="#FFFFFF" stroke-width="0.75" stroke-miterlimit="10" d="M361.165,189.909v8.071v1.242
			c0.621,14.281,1.242,36.013,1.242,64.574v6.209h18.627c3.726,2.483,5.589,4.968,5.589,6.83s-0.621,3.726-1.863,5.589
			c-1.24,1.861-2.482,1.861-3.726,1.861c-1.241,0-2.483,0-4.347-0.62c-1.241,0.62-3.104,0.62-4.968,0.62l-8.07-0.62
			c-1.863,1.862-3.727,3.104-6.21,3.104s-4.968-0.62-6.209-2.483c-1.241-1.861-2.483-3.104-2.483-5.588l1.863-11.177
			c0-18.627-0.621-47.188-2.484-84.443c-1.862-37.255-2.483-65.815-2.483-84.443c0-1.242,0.621-2.483,1.863-3.727
			c1.241-1.242,2.483-1.242,4.346-1.242c1.863,0,3.727,0.621,4.969,1.863c1.24,1.242,2.482,3.104,2.482,4.967L361.165,189.909z"/>
		<path fill="#FFFFFF" stroke="#FFFFFF" stroke-width="0.75" stroke-miterlimit="10" d="M461.132,209.157l-2.482,31.666v1.242
			c-1.242,4.347-1.863,9.313-1.863,14.901c0,5.589-0.621,10.556-2.483,15.522c-1.861,4.968-4.968,9.313-8.691,13.039
			c-3.727,3.727-8.072,5.588-12.419,5.588s-8.692-1.241-12.418-4.347c-3.727-3.104-6.209-7.45-8.692-12.418
			c-2.483-4.967-4.347-10.556-6.209-17.386c-1.863-6.83-3.104-13.039-4.347-19.248c-1.241-6.209-1.862-13.039-2.483-19.869
			c-1.242-10.555-1.242-19.248-1.242-24.836s0-11.177,0-15.522c0-4.347,0-8.071,0-11.177c0-1.861,0-3.726,0-5.588
			c0-1.863,0-4.347,0-6.83c0-4.968,0-9.312,0.621-13.039c0.621-3.726,0.621-8.071,1.242-12.418c0.62-4.347,1.241-8.071,1.862-11.798
			c0.621-3.726,1.861-6.83,3.104-9.935c1.242-3.105,3.104-6.21,4.968-8.072c4.347-4.968,8.692-6.83,13.659-6.83
			c4.968,0,9.936,1.242,13.66,3.104c3.726,1.862,6.83,4.968,9.313,9.313c2.483,4.347,4.968,8.071,6.83,12.418
			s3.104,9.313,4.347,16.765c1.243,7.452,1.862,13.039,2.482,17.387c0.621,4.346,1.242,10.556,1.242,19.248
			c0.621,11.176,0.621,19.868,0.621,26.078v13.038h-0.621V209.157z M438.779,118.505c-1.863-4.348-3.727-7.451-6.209-9.936
			c-2.484-2.483-4.969-3.726-7.451-3.726c-2.483,0-4.347,0.621-6.209,2.483c-1.863,1.862-3.104,4.348-3.727,7.451
			c-0.621,3.104-1.861,6.209-3.104,9.936c-1.242,3.726-1.242,7.45-1.863,12.418c-0.62,4.967-0.62,8.691-1.241,12.418
			c0,3.726-0.62,8.071-0.62,12.418c0,7.451,0,13.66-0.621,17.386v1.242c0,11.176,0.621,22.974,2.483,36.013
			s3.726,23.594,4.968,31.666c1.241,8.072,4.347,14.901,7.45,20.49c3.104,5.588,6.209,8.691,10.557,8.691
			c3.104,0,6.209-3.104,8.07-9.312c2.483-6.209,3.727-14.281,4.969-23.595c1.861-16.766,2.482-27.94,2.482-34.771s0-11.798,0-14.901
			c0-3.104,0-7.45-0.621-13.66c-0.621-6.209-0.621-11.177-1.242-16.766c-0.619-4.967-1.24-10.555-1.861-16.764
			s-1.862-11.798-3.104-16.765C440.642,125.955,440.642,122.229,438.779,118.505L438.779,118.505z"/>
		<path fill="#FFFFFF" stroke="#FFFFFF" stroke-width="0.75" stroke-miterlimit="10" d="M481.001,204.189l0.621-47.188
			c0-8.072-0.621-18.008-1.863-28.562c-1.241-10.556-1.862-18.007-1.862-21.111c0-3.104,0.621-5.588,1.862-7.451
			c1.242-1.861,3.104-2.482,4.968-2.482c6.209,0,9.313,6.83,9.313,19.869c0,0-0.621,17.386-1.242,50.914
			c0.621-1.241,1.863-5.588,4.968-12.418c2.483-6.83,4.968-13.66,8.071-20.49c3.104-6.829,5.589-13.659,8.693-21.11
			c6.83-16.144,12.418-24.216,15.521-24.216c1.862,0,3.727,0.621,4.967,1.863c1.242,1.242,1.863,2.484,1.863,4.348
			c0,1.862-4.347,11.796-13.66,31.044c-9.312,19.248-14.28,31.046-15.521,36.014v4.347c2.482,6.209,9.312,26.078,19.869,60.229
			c10.556,34.149,16.144,52.155,16.144,54.02c0,1.862-0.621,3.726-2.482,4.967c-1.863,1.242-3.727,1.863-5.59,1.863l-5.588-1.242
			c-4.347-23.595-8.691-44.084-13.039-61.47c-4.347-17.386-10.556-34.15-17.386-50.294c-4.967,8.691-7.45,14.281-7.45,16.144
			c-0.621,4.968-0.621,8.693-0.621,11.798l1.862,45.947v20.489c0,8.692-3.104,13.039-8.692,13.039c-4.968,0-7.45-4.347-7.45-12.418
			s0.62-19.869,1.862-34.771C480.38,220.955,481.001,211.641,481.001,204.189L481.001,204.189z"/>
		<path fill="#FFFFFF" stroke="#FFFFFF" stroke-width="0.75" stroke-miterlimit="10" d="M612.013,284.287
			c-4.968,0-7.45-1.861-7.45-6.209v-32.286c-2.483-1.863-6.83-3.104-12.419-4.348c-5.588-1.243-11.797-1.861-16.144-2.482
			c-1.862,3.104-3.104,6.83-4.347,12.418c-1.241,5.588-2.483,11.177-3.104,16.765s-2.482,9.936-4.967,13.039
			c-6.209,0-9.935-1.862-11.177-4.968c2.482-3.104,6.209-19.868,11.177-49.672c4.967-29.805,9.312-53.398,12.418-70.163
			c3.105-16.766,6.83-31.046,10.556-42.223c3.727-11.177,7.45-17.386,11.177-17.386c3.726,0,6.21,0.621,8.071,2.484
			c0,6.209,1.862,21.731,4.969,47.81c3.104,26.078,4.967,42.843,4.967,50.293c0,7.451,0.621,20.49,2.482,37.876
			c1.863,17.387,2.483,31.046,2.483,39.738C620.085,281.183,617.601,284.287,612.013,284.287L612.013,284.287z M601.457,202.948
			c-1.241-14.901-2.483-28.562-3.727-42.222c-1.24-13.66-1.861-21.111-1.861-24.216c0-3.105,0-4.347,0-4.967
			c-2.483,2.482-6.209,17.385-11.177,44.704c-4.968,27.32-7.45,44.086-8.071,51.535c6.83,1.863,12.418,2.483,17.385,2.483
			c4.968,0,8.072,0,9.936-0.62C603.94,226.543,602.699,217.85,601.457,202.948L601.457,202.948z"/>
		<path fill="#FFFFFF" stroke="#FFFFFF" stroke-width="0.75" stroke-miterlimit="10" d="M650.509,189.909v8.071v1.242
			c0.621,14.281,1.242,36.013,1.242,64.574v6.209h18.627c3.726,2.483,5.589,4.968,5.589,6.83s-0.621,3.726-1.863,5.589
			c-1.241,1.861-2.482,1.861-3.726,1.861c-1.241,0-2.483,0-4.347-0.62c-1.241,0.62-3.104,0.62-4.967,0.62l-8.072-0.62
			c-1.862,1.862-3.726,3.104-6.209,3.104s-4.967-0.62-6.209-2.483c-1.241-1.861-2.483-3.104-2.483-4.967l1.862-11.177
			c0-18.627-0.62-47.189-2.483-84.443c-1.861-37.255-2.482-65.815-2.482-84.443c0-1.242,0.621-2.484,1.862-3.727
			s2.483-1.242,4.347-1.242c1.862,0,3.726,0.621,4.968,1.863c1.241,1.242,2.483,3.104,2.483,4.967L650.509,189.909z"/>
		<path fill="#FFFFFF" stroke="#FFFFFF" stroke-width="0.75" stroke-miterlimit="10" d="M690.247,219.092l-1.241-101.208v-1.242
			c0-8.692,1.241-14.281,4.346-16.765c1.242-1.242,3.104-1.862,4.969-1.862c11.797,0,21.109,3.726,27.939,11.176
			c6.83,7.451,9.936,17.386,9.936,29.184c0,7.45-1.862,15.522-6.209,23.595c-3.727,8.072-8.692,14.281-14.28,18.007
			c9.934,6.83,17.385,15.522,21.731,26.078c4.346,10.556,6.209,21.73,6.209,32.908c0,6.209-1.242,12.418-4.348,18.627
			c-3.104,6.209-6.209,11.177-9.312,15.521c-3.104,4.348-6.83,6.83-11.797,9.314c-4.969,2.482-10.557,3.725-16.145,3.725h-1.242
			c-7.451,0-11.797-1.862-11.797-6.209L690.247,219.092z M705.77,111.675c-2.482,0-3.725,3.104-3.725,8.691s0,15.522,0.62,27.94
			c0.621,12.419,0.621,21.732,0.621,27.941c4.347-1.242,8.072-4.348,11.177-10.557c2.483-4.967,4.346-9.935,6.209-14.9
			c1.862-4.969,2.483-8.072,3.104-8.693v-8.692c0-4.967-1.862-9.312-5.589-14.28C714.463,114.158,710.116,111.675,705.77,111.675z
			 M723.776,261.935c4.967-6.209,6.829-13.66,6.829-21.732c0-8.07-0.62-15.521-1.862-21.73c-1.241-6.209-3.104-11.176-4.347-14.281
			c-1.241-3.104-3.726-6.209-5.588-8.071c-2.483-2.482-4.968-4.347-6.83-4.968h-8.692c0.621,22.975,1.242,50.294,1.242,82.581
			C712.6,271.869,718.809,268.144,723.776,261.935L723.776,261.935z"/>
		<path fill="#FFFFFF" stroke="#FFFFFF" stroke-width="0.75" stroke-miterlimit="10" d="M820.018,209.157l-2.483,31.666v1.242
			c-1.241,4.347-1.862,9.313-1.862,14.901c0,5.589-0.621,10.556-2.482,15.522c-1.863,4.968-4.969,9.313-8.693,13.039
			c-3.725,3.727-8.071,5.588-12.418,5.588c-4.346,0-8.692-1.241-12.418-4.347c-3.727-3.104-6.83-6.83-9.313-11.797
			c-2.482-4.968-4.347-10.556-6.209-17.386s-3.104-13.039-4.347-19.248s-1.862-13.039-2.482-19.869
			c-1.242-10.556-1.242-19.248-1.242-24.836c0-5.589,0-11.177,0-15.523c0-4.346,0-8.07,0-11.176c0-1.863,0-3.726,0-5.588
			c0-1.863,0-4.347,0-6.83c0-4.968,0-9.313,0.621-13.039c0.62-3.726,0.62-8.072,1.241-12.419c0.62-4.346,1.241-8.071,1.862-11.797
			s1.863-6.83,3.104-9.935c1.242-3.104,3.104-6.21,4.969-8.072c4.346-4.968,8.691-6.83,13.66-6.83c4.967,0,9.935,1.241,13.659,3.104
			c3.726,1.862,6.829,4.967,9.313,9.312c2.482,4.346,4.967,8.072,6.829,12.418c1.862,4.347,3.104,9.312,4.347,16.765
			c1.242,7.451,1.863,13.039,2.483,17.386s1.241,10.556,1.241,19.249c0.621,11.176,0.621,19.868,0.621,26.077V209.157
			L820.018,209.157z M798.285,118.505c-1.862-4.348-3.727-7.451-6.209-9.936c-2.483-2.483-4.967-3.726-7.451-3.726
			c-2.482,0-4.346,0.621-6.209,2.483c-1.862,1.862-3.104,4.348-3.725,7.451c-0.621,3.104-1.863,6.209-3.105,9.936
			c-1.241,3.726-1.241,7.45-1.861,12.418c-0.621,4.967-0.621,8.691-1.242,12.418c0,3.726-0.62,8.071-0.62,12.418
			c0,7.451,0,13.66-0.621,17.386v1.242c0,11.176,0.621,22.974,2.483,36.013c1.861,13.039,3.726,23.594,4.967,31.666
			c1.242,8.072,4.347,14.901,7.451,20.49c3.104,5.588,6.209,8.691,10.556,8.691c3.104,0,6.209-3.104,8.071-9.312
			c2.483-6.209,3.726-14.281,4.968-23.595c1.861-16.766,2.482-27.94,2.482-34.771s0-11.798,0-14.901c0-3.104,0-7.45-0.621-13.66
			c-0.62-6.209-0.62-11.177-1.241-16.766c-0.62-4.967-1.241-10.555-1.862-16.764s-1.862-11.798-3.104-16.765
			S799.527,122.229,798.285,118.505L798.285,118.505z"/>
		<path fill="#FFFFFF" stroke="#FFFFFF" stroke-width="0.75" stroke-miterlimit="10" d="M836.781,153.896l1.863-45.326v-1.862
			c0-8.072,1.862-12.419,5.588-12.419c3.104,0,7.45,7.451,13.039,22.975c9.935,27.939,22.354,73.888,36.634,137.842v1.242
			l1.241-86.307V96.772c1.241-4.346,3.727-6.209,8.071-6.209c4.347,0,6.83,3.104,6.83,9.935v1.242
			c-1.241,1.863-1.241,4.347-1.241,7.451l-1.862,91.896v75.751c0,2.483-0.621,4.968-1.862,7.45
			c-1.242,2.483-3.104,3.727-4.968,3.727c-3.727,0-10.557-16.765-20.489-50.915c-9.936-34.149-19.869-70.783-29.805-109.9v81.339
			c0,8.072,0.621,19.869,1.862,35.393c1.242,15.522,1.863,27.32,1.863,35.393c0,1.241-0.621,3.104-2.484,3.726
			c-1.861,0.621-4.346,1.242-6.829,1.242s-4.347-1.242-4.347-3.727l1.241-18.006c0-8.693-0.621-22.354-1.862-41.602
			s-1.862-31.046-1.862-35.393v-31.666h-0.621V153.896z"/>
		<path fill="#FFFFFF" stroke="#FFFFFF" stroke-width="0.75" stroke-miterlimit="10" d="M988.904,192.393l0.621,4.967
			c0,11.798-3.104,25.458-9.313,41.603c-6.83,18.006-15.521,31.045-25.457,38.496c-5.589,4.347-11.177,6.829-16.765,6.829
			c-3.104,0-5.588-0.62-8.072-1.861c-2.483-1.242-3.726-3.727-3.726-6.21c3.726-3.726,5.589-13.659,5.589-29.184
			c0-9.312-0.621-22.974-2.484-40.979c-1.862-18.007-2.482-31.666-2.482-40.98l0.62-27.318c0-4.348-0.62-10.557-2.482-17.387
			c-1.863-6.829-2.483-12.418-2.483-15.522c0-5.588,6.209-8.692,19.248-8.692h3.727c16.764,0,29.183,9.313,36.633,28.562
			c5.589,13.039,8.072,31.666,8.072,54.64v11.797C989.525,191.15,988.904,191.771,988.904,192.393L988.904,192.393z
			 M943.578,246.412v23.595c6.209-4.347,11.797-9.936,16.144-16.765c4.348-6.83,8.072-14.901,10.557-23.595
			c4.346-16.144,6.83-32.908,6.83-49.052c0-18.628-2.483-33.529-6.83-44.085c-4.968-11.177-10.557-18.627-18.007-22.354
			c-4.347-2.482-9.313-3.104-14.901-3.104c0,14.9,1.242,37.254,3.104,67.679C942.336,209.157,943.578,231.51,943.578,246.412
			L943.578,246.412z"/>
		<path fill="#FFFFFF" stroke="#FFFFFF" stroke-width="0.75" stroke-miterlimit="10" d="M1032.368,193.014h-6.209
			c-2.483,0-4.347,0.621-4.968,1.862v76.372c8.692-0.621,13.039-0.621,13.66-0.621c9.312,0,14.28,2.482,14.28,6.83v0.62
			c-1.241,2.483-3.104,3.727-5.588,4.968c-2.483,1.241-4.968,1.862-7.451,1.862c-2.482,0-4.968,0-8.071,0h-7.45
			c-6.21,0-9.936-1.241-11.177-3.726c-0.621-1.242-1.242-2.483-1.242-4.347V133.404c0-3.104-0.621-6.83-1.862-12.418
			c-1.242-5.589-1.862-9.935-1.862-13.039v-0.621c2.483-4.347,4.967-7.451,6.209-8.692l18.627-2.483
			c2.483,0,4.967,0.621,7.451,2.483c2.483,1.862,3.725,3.726,3.725,5.588c0,4.967-3.725,7.451-11.176,7.451h-7.451
			c-1.24,0-1.861,0-2.482,0l1.861,40.979c0,3.104,0,8.072-0.619,14.281c-0.621,6.209-0.621,11.176-0.621,13.66
			c0.621,0,1.861-0.621,3.726-0.621c3.104-0.621,6.209-1.242,8.071-1.242c1.863,0,3.726,0.621,4.968,1.863
			c1.241,1.241,2.483,3.104,2.483,4.967s-0.621,3.726-1.862,4.968C1036.094,191.771,1034.23,193.014,1032.368,193.014z"/>
		<path fill="#FFFFFF" stroke="#FFFFFF" stroke-width="0.75" stroke-miterlimit="10" d="M1060.309,153.896l1.863-45.326v-1.862
			c0-8.072,1.862-12.419,5.588-12.419c3.104,0,7.451,7.451,13.039,22.975c9.936,27.939,22.354,73.888,36.634,137.842v1.242
			l1.242-86.307V96.772c1.241-4.346,3.726-6.209,8.071-6.209c4.347,0,6.83,3.104,6.83,9.935v1.242
			c-1.241,1.863-1.241,4.347-1.241,7.451l-1.863,91.896v75.751c0,2.483-0.621,4.968-1.862,7.45
			c-1.241,2.483-3.104,3.727-4.968,3.727c-3.726,0-10.556-16.765-20.489-50.915c-9.936-34.149-19.868-70.783-29.805-109.9v81.339
			c0,8.072,0.621,19.869,1.863,35.393c1.242,15.522,1.862,27.32,1.862,35.393c0,1.241-0.62,3.104-2.483,3.726
			c-1.862,0.621-4.346,1.242-6.83,1.242c-2.482,0-4.346-1.242-4.346-3.727l1.241-18.006c0-8.693-0.621-22.354-1.862-41.602
			c-1.242-19.248-1.863-31.046-1.863-35.393v-31.666h-0.621V153.896z"/>
	</g>
	<g>
		<g opacity="0.5">
			<path fill="#294437" stroke="#294437" stroke-width="0.75" stroke-miterlimit="10" d="M131.429,22.885
				c-2.484,2.484-2.484,4.347,0.621,15.523c1.863,7.45,1.863,9.935,1.863,16.764c0,13.66-4.346,26.078-12.418,35.393
				c-1.863,2.484-3.104,3.104-6.83,3.727c-13.039,3.104-31.667,11.797-42.843,19.248c-27.941,18.007-44.084,41.601-48.431,68.921
				c-1.242,8.071-1.242,24.837,0.621,32.286c4.347,18.008,13.039,33.529,27.32,47.812c19.248,19.248,49.672,34.149,80.097,39.738
				c4.346,0.62,9.313,1.861,10.555,1.861l2.484,0.621l-8.693,6.83c-9.935,8.071-11.176,9.313-11.176,12.418
				c0,4.347,4.967,7.451,9.313,5.588c0.621,0,5.588-4.346,11.797-8.691l10.556-8.692v15.522v15.521l1.862,1.863
				c2.484,2.482,6.83,2.482,9.314,0l1.863-1.863v-15.521V312.23l10.555,8.692c5.588,4.967,11.176,8.691,11.797,8.691
				c4.347,1.863,9.312-1.241,9.312-5.588c0-3.104-1.242-4.347-11.176-12.418c-4.967-3.726-8.693-6.83-8.693-6.83
				s3.105-0.621,6.83-1.242c27.32-3.726,51.536-13.659,72.025-28.562c7.451-5.588,18.627-16.145,23.595-23.595
				c12.418-16.766,18.627-34.15,18.627-54.02c0-33.528-16.765-61.471-49.673-83.202c-11.797-7.45-30.424-16.144-42.843-19.248
				c-4.346-1.242-4.967-1.242-7.451-4.347c-3.726-4.346-8.693-14.28-10.556-21.11c-1.863-8.693-1.863-18.627,0.621-30.425
				c2.483-11.177,2.483-13.04,0.621-15.522c-3.104-3.104-5.588-2.484-18.006,3.726c-6.209,3.104-11.176,5.588-11.797,5.588
				c-0.621,0-6.209-2.483-11.797-5.588C136.396,20.4,133.913,19.779,131.429,22.885L131.429,22.885z M150.677,42.754
				c4.346,1.863,5.588,2.483,10.556,2.483c4.968,0,5.588,0,10.555-2.483c2.484-1.242,4.967-2.483,4.967-2.483
				s-0.621,2.483-0.621,4.967c-1.863,12.419,0.621,30.425,6.83,42.222l1.242,2.483l-1.242-0.62
				c-2.483-0.621-32.287-1.242-38.496-0.621c-3.104,0.621-5.588,0.621-6.209,0.621c0,0,1.242-2.484,2.483-5.589
				c5.588-12.418,7.451-27.94,4.967-40.979c-0.621-1.242-0.621-2.483-0.621-2.483C145.71,40.27,148.194,41.512,150.677,42.754z
				 M155.023,197.359c0,73.89,0,93.137-0.621,93.137c-0.621,0-2.484-0.62-4.967-1.861c-14.902-6.83-26.699-26.078-30.425-49.052
				c-6.209-36.635,12.418-112.386,32.908-132.255c1.242-1.241,3.104-2.483,3.104-2.483L155.023,197.359L155.023,197.359z
				 M176.135,114.158c8.072,11.797,14.901,29.184,20.49,52.156c7.451,29.804,9.935,55.261,6.83,73.269
				c-3.726,23.594-15.523,42.222-30.425,49.052c-2.483,1.241-4.346,1.861-4.967,1.861s-0.621-19.247-0.621-93.137v-93.136
				l3.104,3.104C171.788,108.57,174.893,112.295,176.135,114.158z M128.945,117.263c-11.176,21.73-19.869,53.397-23.594,85.686
				c-1.242,12.418-1.242,32.287,0.621,42.223c2.484,12.418,8.072,26.078,13.039,33.528c1.242,1.862,1.863,3.104,1.863,3.727
				c0,0-1.863-0.621-3.725-1.863c-18.627-9.935-34.15-27.939-40.359-46.568c-3.104-9.935-4.346-15.521-3.726-27.939
				c0.621-16.145,3.726-27.941,11.797-44.705c9.314-18.628,20.49-33.529,35.392-44.706c4.346-3.104,11.797-8.071,12.418-8.071
				C132.671,109.19,131.429,112.916,128.945,117.263z M194.762,111.675c9.936,6.209,17.386,13.039,26.078,22.974
				c3.104,3.726,6.83,7.45,7.451,8.071c3.726,1.863,9.313-1.241,9.313-6.209c0-3.104-4.967-9.313-13.039-18.627
				c-3.104-3.104-5.588-6.209-5.588-6.209s3.104,1.241,6.209,2.482c17.385,7.451,32.908,19.248,43.463,32.287
				c18.006,21.731,23.595,46.568,15.523,72.025c-5.588,19.248-21.111,37.876-42.222,50.915l-3.726,2.482l3.104-3.104
				c9.313-10.556,16.765-25.457,19.869-40.98c1.242-6.209,1.863-24.215,1.242-31.666c-1.242-8.071-3.104-16.765-4.346-18.627
				c-2.484-3.104-8.072-2.483-10.556,0.62c-1.242,1.863-1.242,4.968,0.621,11.798c1.863,8.071,2.483,24.836,1.242,32.287
				c-3.104,17.386-11.176,31.666-24.215,44.085c-3.104,3.104-8.072,6.829-10.556,8.692c-4.967,3.726-11.797,7.451-12.418,6.83
				c0,0,0.621-1.242,1.862-3.104c6.83-10.556,12.418-24.837,14.281-39.737c4.346-31.047-6.209-88.17-23.595-121.698
				c-2.483-4.348-4.346-8.692-3.726-8.692C189.794,109.19,192.278,110.433,194.762,111.675z M99.142,117.263
				c-21.111,21.73-35.392,51.535-39.117,78.854c-1.242,8.071-0.621,24.836,1.242,31.666c3.104,14.902,11.176,30.426,19.869,40.98
				l2.483,3.104l-4.346-3.104c-7.451-4.968-11.177-8.072-18.006-14.281c-13.039-12.418-20.49-25.457-24.836-40.979
				c-1.863-6.83-2.484-22.354-0.621-29.805c5.588-29.183,27.941-54.02,61.47-69.542c3.104-1.241,6.209-2.482,6.83-2.482
				C104.109,112.295,101.625,114.779,99.142,117.263L99.142,117.263z"/>
			<path fill="#294437" stroke="#294437" stroke-width="0.75" stroke-miterlimit="10" d="M238.846,153.896
				c-1.242,1.241-1.863,2.483-1.863,4.967c0,2.484,0.621,3.104,1.863,4.969c1.242,1.24,2.484,1.861,4.967,1.861
				c2.484,0,3.104-0.621,4.967-1.861c1.863-1.242,1.863-2.484,1.863-4.969c0-2.483-0.621-3.104-1.863-4.967
				c-1.242-1.863-2.483-1.863-4.967-1.863C241.33,152.033,240.709,152.654,238.846,153.896z"/>
		</g>
		<path fill="#294437" stroke="#FFFFFF" stroke-width="0.75" stroke-miterlimit="10" d="M124.599,14.812
			c-1.863,2.484-1.863,4.967,0.621,16.145c1.863,7.451,1.863,9.935,1.863,16.765c0,13.66-4.346,26.078-12.418,35.392
			c-1.863,2.483-3.104,3.104-6.83,3.725c-13.039,3.104-31.667,11.798-42.843,19.249c-27.941,18.007-44.084,41.602-48.431,68.921
			c-1.242,8.071-1.242,24.837,0.621,32.288c4.347,18.006,13.039,33.527,27.32,47.81c19.248,19.248,49.672,34.15,80.097,39.738
			c4.346,0.621,9.313,1.861,10.555,1.861l2.484,0.621l-8.693,6.83c-9.935,8.072-11.176,9.313-11.176,12.418
			c0,4.348,4.967,7.451,9.313,5.588c0.621,0,5.588-4.346,11.797-8.691l10.556-8.692v15.522v15.521l1.863,1.863
			c2.483,2.483,6.83,2.483,9.313,0l1.863-1.863v-15.521v-15.522l10.555,8.692c5.588,4.968,11.176,8.691,11.797,8.691
			c4.347,1.863,9.313-1.24,9.313-5.588c0-3.104-1.242-4.346-11.176-12.418c-4.967-3.726-8.692-6.83-8.692-6.83
			s3.104-0.621,6.83-1.241c27.32-3.726,51.536-13.659,72.026-28.562c7.451-5.588,18.627-16.144,23.594-23.595
			c12.418-16.766,18.627-34.149,18.627-54.02c0-33.528-16.765-61.47-49.673-83.202c-11.797-7.45-30.424-16.144-42.843-19.247
			c-4.346-1.242-4.967-1.242-7.451-4.347c-3.726-4.347-8.693-14.28-10.556-21.11c-1.863-8.693-1.863-18.627,0.621-30.426
			c2.483-11.176,2.483-13.039,0.621-15.521c-3.726-4.348-6.83-3.727-19.249,2.482c-6.209,3.104-11.176,5.588-11.797,5.588
			s-6.209-2.483-11.797-5.588C130.188,12.33,127.704,11.707,124.599,14.812z M144.468,34.682c4.346,1.863,5.588,2.484,10.555,2.484
			c4.967,0,5.588,0,10.556-2.484c2.483-1.242,4.967-2.482,4.967-2.482s-0.621,2.482-0.621,4.967
			c-1.863,12.418,0.621,30.424,6.83,42.222l1.242,2.483l-1.242-0.621c-2.483-0.621-32.287-1.242-38.496-0.621
			c-3.105,0.621-5.588,0.621-6.209,0.621c0,0,1.242-2.484,2.484-5.588c5.588-12.418,7.451-27.941,4.967-40.98
			c-0.621-1.242-0.621-2.482-0.621-2.482S141.984,33.439,144.468,34.682L144.468,34.682z M148.814,189.909
			c0,73.889,0,93.137-0.621,93.137c-0.621,0-2.484-0.62-4.967-1.862c-14.902-6.83-26.699-26.078-30.425-49.052
			c-6.209-36.634,12.418-112.386,32.908-132.255c1.242-1.241,3.104-2.482,3.104-2.482
			C148.814,96.772,148.814,138.373,148.814,189.909z M169.925,106.086c8.072,11.798,14.902,29.183,20.49,52.155
			c7.451,29.805,9.935,55.263,6.83,73.269c-3.726,23.595-15.523,42.222-30.425,49.052c-2.483,1.242-4.346,1.863-4.967,1.863
			s-0.621-19.249-0.621-93.138V96.151l3.104,3.104C165.579,100.498,168.684,104.224,169.925,106.086z M122.736,109.19
			c-11.176,21.732-19.869,53.398-23.595,85.687c-1.242,12.418-1.242,32.287,0.621,42.222c2.484,12.419,8.072,26.078,13.039,33.529
			c1.242,1.862,1.863,3.104,1.863,3.726c0,0-1.863-0.621-3.726-1.862c-18.627-9.935-34.15-27.94-40.359-46.567
			c-3.104-9.936-4.347-15.522-3.726-27.941c0.621-16.144,3.726-27.939,11.797-44.705c9.313-18.627,20.49-33.528,35.392-44.705
			c4.347-3.104,11.797-8.072,12.418-8.072C126.462,101.119,124.599,104.845,122.736,109.19L122.736,109.19z M188.553,103.603
			c9.936,6.209,17.386,13.039,26.078,22.974c3.104,3.727,6.83,7.451,7.451,8.072c3.725,1.862,9.313-1.242,9.313-6.209
			c0-3.104-4.967-9.313-13.039-18.628c-3.104-3.104-5.588-6.209-5.588-6.209s3.105,1.242,6.209,2.483
			c17.385,7.45,32.908,19.248,43.463,32.286c18.006,21.732,23.595,46.568,15.523,72.026c-5.588,19.248-21.111,37.875-42.222,50.914
			l-3.725,2.483l3.104-3.104c9.313-10.556,16.765-25.457,19.869-40.979c1.242-6.209,1.862-24.217,1.242-31.667
			c-1.242-8.071-3.104-16.766-4.346-18.627c-2.484-3.104-8.072-2.483-10.556,0.62c-1.242,1.862-1.242,4.968,0.621,11.798
			c1.862,8.071,2.483,24.837,1.242,32.286c-3.104,17.387-11.176,31.667-24.215,44.086c-3.104,3.104-8.072,6.829-10.556,8.691
			c-4.967,3.727-11.797,7.451-12.418,6.83c0,0,0.621-1.241,1.862-3.104c6.83-10.557,12.418-24.837,14.281-39.738
			c4.346-31.045-6.209-88.169-23.595-121.698c-2.483-4.347-4.346-8.692-3.726-8.692C185.448,100.498,186.069,102.36,188.553,103.603
			L188.553,103.603z M92.933,109.19c-21.111,21.732-35.392,51.536-39.117,78.855c-1.242,8.071-0.621,24.837,1.242,31.667
			c3.105,14.9,11.176,30.424,19.869,40.979l2.484,3.104l-4.347-3.104c-7.451-4.967-11.176-8.071-18.006-14.28
			c-13.039-12.419-20.49-25.458-24.836-40.979c-1.862-6.83-2.483-22.354-0.621-29.804c5.588-29.184,27.941-54.02,61.47-69.542
			c3.105-1.242,6.209-2.483,6.83-2.483C97.9,104.224,95.417,106.707,92.933,109.19z"/>
		<path fill="#294437" stroke="#FFFFFF" stroke-width="0.75" stroke-miterlimit="10" d="M232.637,145.824
			c-1.242,1.242-1.863,2.483-1.863,4.969c0,2.482,0.621,3.104,1.863,4.967c1.242,1.242,2.484,1.863,4.967,1.863
			s3.104-0.621,4.967-1.863c1.242-1.241,1.863-2.483,1.863-4.967c0-2.484-0.621-3.104-1.863-4.969
			c-1.242-1.24-2.484-1.861-4.967-1.861S234.5,144.583,232.637,145.824z"/>
	</g>
</g>
</svg>
