<?xml version="1.0"?>
<svg xmlns="http://www.w3.org/2000/svg" xmlns:xlink="http://www.w3.org/1999/xlink" version="1.1" id="Layer_1" x="0px" y="0px" viewBox="0 0 512 512" style="enable-background:new 0 0 512 512;" xml:space="preserve" width="512px" height="512px"><g><g>
	<g>
		<path d="M406.472,155.028H367.03c-47.453,0-88.387,28.427-106.679,69.146c-18.29-40.718-59.226-69.146-106.679-69.146h-39.441    c-5.633,0-10.199,4.567-10.199,10.199v39.442c0,64.447,52.431,116.878,116.878,116.878h29.242v61.066    c0.001,5.632,4.567,10.199,10.2,10.199c5.633,0,10.199-4.567,10.199-10.199v-61.066h29.242    c64.447,0,116.878-52.431,116.878-116.878v-39.442C416.671,159.595,412.105,155.028,406.472,155.028z M250.152,286.724    l-82.649-82.649c-3.983-3.982-10.441-3.982-14.425,0c-3.983,3.983-3.983,10.441,0,14.425l82.65,82.649h-14.819    c-53.198,0-96.478-43.28-96.478-96.479v-29.243h29.242c53.199,0,96.479,43.28,96.479,96.479V286.724z M396.273,204.669    c0,53.199-43.28,96.479-96.479,96.479h-14.818l54.754-54.754c3.983-3.983,3.983-10.441,0-14.425    c-3.983-3.982-10.441-3.982-14.425,0l-54.753,54.753v-14.818c0-53.198,43.28-96.478,96.478-96.478h29.243V204.669z" data-original="#000000" class="active-path" fill="#000000"/>
	</g>
</g><g>
	<g>
		<path d="M367.624,204.074c-3.983-3.982-10.441-3.982-14.425,0l-4.008,4.008c-3.983,3.983-3.983,10.441,0,14.425    c1.993,1.991,4.603,2.987,7.213,2.987c2.61,0,5.221-0.996,7.212-2.987l4.008-4.008    C371.607,214.516,371.607,208.058,367.624,204.074z" data-original="#000000" class="active-path" fill="#000000"/>
	</g>
</g><g>
	<g>
		<path d="M501.801,245.801c-5.633,0-10.199,4.567-10.199,10.199c0,129.911-105.69,235.602-235.602,235.602    c-57.597,0-112.03-20.54-154.961-58.135h32.57c5.633,0,10.199-4.567,10.199-10.199c0-5.632-4.566-10.199-10.199-10.199H78.534    c-5.633,0-10.199,4.567-10.199,10.199v55.076c0,5.632,4.566,10.199,10.199,10.199c5.633,0,10.199-4.567,10.199-10.199v-28.528    C135.207,490.045,193.915,512,256,512c68.38,0,132.667-26.628,181.02-74.981C485.372,388.667,512,324.381,512,256    C512,250.368,507.434,245.801,501.801,245.801z" data-original="#000000" class="active-path" fill="#000000"/>
	</g>
</g><g>
	<g>
		<path d="M438.566,27.538c-5.633,0-10.199,4.567-10.199,10.199v28.988C381.126,23.611,320.379,0,256,0    C187.62,0,123.333,26.628,74.98,74.982C26.628,123.333,0,187.619,0,256c0,5.632,4.566,10.199,10.199,10.199    c5.633,0,10.199-4.567,10.199-10.199c0-129.911,105.69-235.602,235.602-235.602c59.647,0,115.901,22.028,159.499,62.215H383.49    c-5.633,0-10.199,4.567-10.199,10.199s4.566,10.199,10.199,10.199h55.076c5.633,0,10.199-4.567,10.199-10.199V37.737    C448.765,32.105,444.199,27.538,438.566,27.538z" data-original="#000000" class="active-path" fill="#000000"/>
	</g>
</g></g> </svg>
