<svg width="36" height="36" viewBox="0 0 36 36" version="1.1" xmlns="http://www.w3.org/2000/svg" xmlns:xlink="http://www.w3.org/1999/xlink">
<title>time</title>
<desc>Created using Figma</desc>
<g id="Canvas" transform="translate(-6688 2966)">
<g id="time">
<g id="Group">
<g id="Layer 2 16">
<g id="Group">
<g id="Vector">
<use xlink:href="#path0_fill" transform="translate(6707.55 -2933.15)" fill="#204638"/>
</g>
<g id="Vector">
<use xlink:href="#path1_fill" transform="translate(6719.92 -2955.51)" fill="#204638"/>
</g>
<g id="Vector">
<use xlink:href="#path2_fill" transform="translate(6712.83 -2935.43)" fill="#204638"/>
</g>
<g id="Vector">
<use xlink:href="#path3_fill" transform="translate(6721.09 -2949.97)" fill="#204638"/>
</g>
<g id="Vector">
<use xlink:href="#path4_fill" transform="translate(6717.16 -2939.31)" fill="#204638"/>
</g>
<g id="Vector">
<use xlink:href="#path5_fill" transform="translate(6720.02 -2944.36)" fill="#204638"/>
</g>
<g id="Vector">
<use xlink:href="#path6_fill" transform="translate(6688 -2966)" fill="#204638"/>
</g>
<g id="Vector">
<use xlink:href="#path7_fill" transform="translate(6703.94 -2959.65)" fill="#204638"/>
</g>
</g>
</g>
</g>
</g>
</g>
<defs>
<path id="path0_fill" d="M 2.08353 0.0435571C 1.78668 0.118079 1.48402 0.184261 1.18361 0.239997C 0.398294 0.387091 -0.120891 1.1479 0.0243628 1.93965C 0.0960998 2.32918 0.315723 2.65361 0.613891 2.8654C 0.921192 3.08328 1.3123 3.18165 1.71084 3.10698C 2.0686 3.04009 2.42914 2.96144 2.78295 2.8725C 3.55843 2.67809 4.03088 1.88672 3.83741 1.10596C 3.64441 0.324494 2.85948 -0.15101 2.08353 0.0435571Z"/>
<path id="path1_fill" d="M 0.420006 2.8715C 0.521382 3.17925 0.714925 3.43049 0.959388 3.60409C 1.32186 3.86125 1.79617 3.94778 2.2488 3.79702C 3.00765 3.54321 3.4188 2.71895 3.16776 1.95494C 3.05338 1.60666 2.92647 1.25728 2.79127 0.917098C 2.49442 0.169542 1.65261 -0.194414 0.910093 0.104608C 0.168347 0.403474 -0.193123 1.25167 0.103962 1.99945C 0.217565 2.28538 0.32397 2.57887 0.420006 2.8715Z"/>
<path id="path2_fill" d="M 1.50852 0.241784C 1.25322 0.411562 0.989727 0.575883 0.724292 0.729837C 0.0317633 1.13222 -0.205426 2.02391 0.193887 2.72119C 0.302305 2.91085 0.446707 3.06589 0.613009 3.18438C 1.05945 3.50078 1.66577 3.54818 2.17056 3.25523C 2.48614 3.07189 2.79994 2.87686 3.10399 2.67434C 3.7706 2.23072 3.95408 1.32625 3.51344 0.65446C 3.07288 -0.0175608 2.17536 -0.202151 1.50852 0.241784Z"/>
<path id="path3_fill" d="M 2.89329 1.4006C 2.86179 0.595981 2.189 -0.0302821 1.38998 0.00113233C 0.591978 0.0328586 -0.0302085 0.710803 0.00113294 1.51511C 0.0131278 1.82263 0.0162235 2.13474 0.00918141 2.44195C -0.00203959 2.94653 0.242966 3.39631 0.623706 3.66665C 0.850525 3.82754 1.12579 3.9249 1.42427 3.93176C 2.22305 3.94961 2.88501 3.31142 2.90273 2.50642C 2.9107 2.13934 2.90768 1.76744 2.89329 1.4006Z"/>
<path id="path4_fill" d="M 2.94679 0.292125C 2.30626 -0.191954 1.40007 -0.0605298 0.920351 0.583506C 0.736636 0.830145 0.543172 1.07374 0.345063 1.3083C -0.172651 1.921 -0.0995214 2.8413 0.508734 3.36318C 0.543403 3.39281 0.578459 3.42001 0.614831 3.44558C 1.21953 3.87501 2.05994 3.77633 2.54887 3.19839C 2.78544 2.91855 3.01605 2.62755 3.23559 2.33298C 3.71538 1.68894 3.58553 0.775503 2.94679 0.292125Z"/>
<path id="path5_fill" d="M 2.21119 0.0671487C 1.44854 -0.173722 0.636375 0.253919 0.397407 1.02213C 0.305936 1.31562 0.20456 1.61051 0.0951359 1.89932C -0.145148 2.5351 0.0850758 3.23463 0.61285 3.6095C 0.70966 3.67802 0.816298 3.7361 0.932145 3.78022C 1.67884 4.06723 2.515 3.68987 2.79963 2.9374C 2.92956 2.59403 3.05013 2.24317 3.15917 1.89426C 3.3979 1.12589 2.97367 0.308019 2.21119 0.0671487Z"/>
<path id="path6_fill" d="M 15.3224 33.1072C 14.0285 32.8731 12.7873 32.4747 11.6103 31.9189C 11.5964 31.9115 11.5839 31.9032 11.5693 31.8965C 11.2919 31.765 11.015 31.6241 10.7467 31.477C 10.7457 31.4759 10.744 31.4752 10.7426 31.4745C 10.2502 31.2014 9.76959 30.8992 9.30272 30.5681C 2.4949 25.7375 0.858028 16.2283 5.65396 9.37082C 6.69681 7.88023 7.95883 6.63667 9.36579 5.65105C 9.38312 5.63889 9.40046 5.62681 9.41763 5.61457C 14.3755 2.17347 21.1076 1.94157 26.3721 5.47761L 25.2414 7.12324C 24.9271 7.58129 25.1205 7.91507 25.6707 7.86518L 30.5822 7.42226C 31.1332 7.37238 31.4627 6.89227 31.3145 6.35628L 29.9956 1.56958C 29.848 1.03296 29.4699 0.968731 29.1553 1.4267L 28.022 3.07623C 24.1585 0.463838 19.5247 -0.532305 14.9254 0.271064C 14.4622 0.351822 14.0055 0.450665 13.555 0.565721C 13.5515 0.566345 13.5487 0.566734 13.546 0.567358C 13.5285 0.571645 13.5109 0.577336 13.494 0.582091C 9.52791 1.60801 6.06759 3.93806 3.59843 7.26254C 3.57761 7.28741 3.55617 7.31173 3.53652 7.33878C 3.45441 7.45017 3.37292 7.56414 3.29314 7.6781C 3.16267 7.86487 3.03405 8.05632 2.91101 8.24777C 2.89561 8.27085 2.88384 8.29431 2.87038 8.31762C 0.832801 11.4981 -0.150004 15.1751 0.0185433 18.9185C 0.0189303 18.9308 0.0182338 18.9432 0.0185433 18.9558C 0.0348718 19.3215 0.0636595 19.6922 0.102739 20.0572C 0.104829 20.0807 0.110014 20.103 0.11396 20.1266C 0.154356 20.4936 0.205044 20.8614 0.268578 21.2292C 0.914288 24.9816 2.67157 28.3583 5.30479 30.9856C 5.31091 30.9918 5.31725 30.9985 5.32344 31.0049C 5.32561 31.0073 5.32801 31.0085 5.3301 31.0108C 6.03756 31.7137 6.80709 32.3638 7.63566 32.9516C 9.80402 34.4907 12.2186 35.5081 14.8116 35.9768C 15.5984 36.1192 16.35 35.5916 16.4911 34.7995C 16.6322 34.0068 16.1089 33.2491 15.3224 33.1072Z"/>
<path id="path7_fill" d="M 1.17139 -1.52249e-07C 0.524213 -1.52249e-07 -3.77862e-08 0.528512 -3.77862e-08 1.17949L -3.77862e-08 12.9305L 10.6692 18.4861C 10.841 18.5757 11.0248 18.6179 11.2058 18.6179C 11.6295 18.6179 12.0388 18.3854 12.2469 17.9798C 12.5437 17.401 12.3191 16.6898 11.7444 16.3909L 2.34147 11.4941L 2.34147 1.17949C 2.3414 0.528512 1.8178 -1.52249e-07 1.17139 -1.52249e-07Z"/>
</defs>
</svg>
