<svg width="24" height="242" viewBox="0 0 24 242" version="1.1" xmlns="http://www.w3.org/2000/svg" xmlns:xlink="http://www.w3.org/1999/xlink">
<title>Vector</title>
<desc>Created using Figma</desc>
<g id="Canvas" transform="translate(-6553 3043)">
<g id="Vector">
<use xlink:href="#path0_stroke" transform="matrix(-4.37114e-08 1 -1 -4.37114e-08 6573 -3041)" fill="#99BCA6"/>
</g>
</g>
<defs>
<path id="path0_stroke" d="M 42.057 9.79979L 44.6134 7.40919L 42.057 9.79979ZM 144.436 3.35247L 142.348 0.54318L 142.161 0.682058L 141.995 0.84447L 144.436 3.35247ZM 197.067 13.0234L 195.706 16.2479L 197.067 13.0234ZM 1.86962 12.7586C 5.94653 10.1825 12.8506 7.0708 20.0778 6.17377C 27.2529 5.28319 34.2749 6.60222 39.5007 12.1904L 44.6134 7.40919C 37.3423 -0.366157 27.7417 -1.83119 19.2155 -0.772924C 10.7413 0.278892 2.86542 3.84899 -1.86962 6.84098L 1.86962 12.7586ZM 39.5007 12.1904C 43.8309 16.821 48.1905 19.0555 52.797 19.1736C 57.2098 19.2867 61.1845 17.4157 64.6422 15.4393C 68.4112 13.2849 71.3623 11.1717 75.0849 9.3622C 78.5763 7.66506 82.1202 6.60249 86.0613 6.84582L 86.4927 -0.140874C 80.9409 -0.483658 76.1636 1.05467 72.0246 3.06657C 68.1168 4.9661 64.1285 7.67006 61.1684 9.36207C 57.8969 11.2321 55.3529 12.2368 52.9764 12.1759C 50.7937 12.1199 48.0937 11.1308 44.6134 7.40919L 39.5007 12.1904ZM 86.0613 6.84582C 90.0648 7.09301 93.832 8.62911 97.9337 10.7166C 101.837 12.7031 106.368 15.3909 111.003 17.081C 115.842 18.8449 121.213 19.7204 127.326 18.1592C 133.366 16.6167 139.758 12.7899 146.877 5.86048L 141.995 0.84447C 135.415 7.24923 130.061 10.2361 125.594 11.3769C 121.2 12.499 117.305 11.9276 113.401 10.5044C 109.295 9.00747 105.609 6.76821 101.109 4.47796C 96.8065 2.28857 91.9821 0.198059 86.4927 -0.140874L 86.0613 6.84582ZM 146.523 6.16177C 150.414 3.2707 155.772 2.70161 164.028 4.6126C 172.293 6.52551 182.595 10.7135 195.706 16.2479L 198.428 9.79893C 185.462 4.32568 174.575 -0.131581 165.607 -2.20712C 156.631 -4.28457 148.712 -4.1853 142.348 0.54318L 146.523 6.16177ZM 195.706 16.2479C 202.562 19.1418 211.557 20.3267 219.696 18.8877C 227.842 17.4477 235.786 13.2183 239.245 4.66446L 232.755 2.04049C 230.526 7.55352 225.252 10.7971 218.478 11.9946C 211.697 13.1932 204.07 12.1802 198.428 9.79893L 195.706 16.2479Z"/>
</defs>
</svg>
