<svg width="100%" height="100%" viewBox="0 0 100% 100%" preserveAspectRatio="none" version="1.1" xmlns="http://www.w3.org/2000/svg" xmlns:xlink="http://www.w3.org/1999/xlink">
<title>Vector 2</title>
<desc>Created using Figma</desc>
<g id="Canvas" transform="translate(-2627 346)">
<g id="Vector 2">
<use xlink:href="#path0_stroke" transform="translate(2629 -342.566)" fill="#FFFFFF"/>
</g>
</g>
<defs>
<path id="path0_stroke" d="M 16.52 1.50807L 15.2469 3.65966L 16.52 1.50807ZM 31.624 1.18181e-11L 31.624 -2.5L 31.624 1.18181e-11ZM 1.95398 8.0945C 3.10771 6.6489 5.24244 4.67304 7.7496 3.53223C 10.1931 2.42039 12.7522 2.18354 15.2469 3.65966L 17.7931 -0.643513C 13.491 -3.18896 9.12743 -2.58798 5.6788 -1.01878C 2.29383 0.521447 -0.433048 3.06985 -1.95398 4.97556L 1.95398 8.0945ZM 15.2469 3.65966C 17.6101 5.05787 19.7161 5.76199 21.6746 5.88802C 23.6626 6.01595 25.2877 5.53446 26.6374 4.90468C 27.2939 4.59841 27.8884 4.25538 28.4017 3.94859C 28.9507 3.62052 29.3501 3.36971 29.785 3.12825C 30.6163 2.66666 31.1396 2.5 31.624 2.5L 31.624 -2.5C 29.8716 -2.49999 28.4504 -1.84977 27.3578 -1.24313C 26.8308 -0.950477 26.2734 -0.604335 25.8367 -0.343316C 25.3643 -0.0610055 24.9443 0.177205 24.5233 0.37362C 23.7183 0.749233 22.9372 0.958934 21.9957 0.898346C 21.0247 0.835863 19.6779 0.471747 17.7931 -0.643513L 15.2469 3.65966ZM 31.624 2.5C 33.324 2.49999 34.8558 3.52138 37.0572 5.23866C 38.0509 6.01386 39.2267 6.95624 40.4569 7.67356C 41.7171 8.40843 43.2377 9.03502 45 9.03502L 45 4.03503C 44.4514 4.03503 43.8166 3.84474 42.9756 3.35429C 42.1044 2.84629 41.2331 2.1549 40.1326 1.29635C 38.1454 -0.25389 35.3 -2.50002 31.624 -2.5L 31.624 2.5ZM 45 9.03502C 49.0556 9.03502 55.7985 7.36845 60.8691 1.6603L 57.1309 -1.6603C 53.2015 2.7632 47.9444 4.03503 45 4.03503L 45 9.03502Z"/>
</defs>
</svg>
